<svg width="162" height="184" viewBox="0 0 162 184" fill="none" xmlns="http://www.w3.org/2000/svg">
<g clip-path="url(#clip0_143_192)">
<mask id="mask0_143_192" style="mask-type:luminance" maskUnits="userSpaceOnUse" x="-12" y="-10" width="194" height="195">
<path d="M179.032 110.267C191.604 58.4782 159.83 6.30001 108.062 -6.27675C56.2947 -18.8535 4.13749 12.9337 -8.4342 64.7221C-21.0059 116.51 10.7685 168.689 62.536 181.265C114.303 193.842 166.461 162.055 179.032 110.267Z" fill="white"/>
</mask>
<g mask="url(#mask0_143_192)">
<path d="M94.8917 2.67925C102.009 4.50677 108.69 7.73444 114.547 12.1738C121.165 17.3494 126.422 24.0608 129.863 31.7269C133.324 39.4354 134.812 48.2406 136.3 56.513C138.352 67.966 140.106 79.7637 145.29 90.3237C148.531 96.9197 153.12 103.155 153.856 110.472C154.592 117.789 150.943 125.2 145.634 130.37C140.325 135.54 133.465 138.799 126.527 141.4C103.94 149.638 79.5485 151.624 55.9265 147.15C41.4398 144.533 24.7136 138.47 18.1046 124.166C12.858 112.901 15.6457 99.5989 19.8116 88.4592C22.5367 81.2051 26.2171 74.3584 28.4566 66.9006C32.2623 54.2726 30.9624 41.5818 32.8261 28.7501C34.3923 17.7828 39.6701 8.77393 50.0535 4.152C57.2489 1.22971 64.9674 -0.183443 72.731 9.23481e-05C80.205 -0.112578 87.6597 0.788677 94.8917 2.67925Z" fill="#3D2614"/>
<path d="M161.984 183.984H0C0 183.984 1.47216 162.802 6.89095 153.448C10.5557 147.181 28.5974 136.559 49.7401 130.386C59.9018 127.3 70.4445 125.649 81.0626 125.482C92.1253 125.673 103.102 127.461 113.654 130.793C134.217 137.06 151.585 147.244 155.172 153.448C160.512 162.802 161.984 183.984 161.984 183.984Z" fill="#89496B"/>
<path d="M117.115 168.975C116.712 170.624 115.863 172.131 114.661 173.33C113.46 174.529 111.952 175.375 110.302 175.775C109.848 175.869 110.036 176.558 110.49 176.464C112.262 176.036 113.881 175.128 115.171 173.84C116.461 172.552 117.372 170.934 117.804 169.163C117.914 168.724 117.209 168.52 117.115 168.975Z" fill="#562240"/>
<path d="M115.361 168.301C110.949 171.653 105.568 173.479 100.028 173.503C99.9326 173.503 99.841 173.541 99.7735 173.608C99.7059 173.676 99.668 173.768 99.668 173.863C99.668 173.959 99.7059 174.05 99.7735 174.118C99.841 174.186 99.9326 174.223 100.028 174.223C105.687 174.205 111.186 172.341 115.689 168.912C116.05 168.646 115.689 168.019 115.329 168.301H115.361Z" fill="#562240"/>
<path d="M113.575 130.793C110.443 144.58 87.5775 157.256 80.9841 156.645C67.6721 155.422 57.2103 143.719 49.6616 130.386C59.8233 127.3 70.366 125.649 80.9841 125.482C92.0468 125.673 103.024 127.461 113.575 130.793Z" fill="#F2A261"/>
<path d="M115.001 27.7474C108 16.9838 94.6411 13.3489 81.0001 13.3489C67.3592 13.3489 54.0001 16.9838 46.9839 27.7474C32.7478 49.6036 38.6208 92.6581 57.3203 107.025C64.196 112.015 72.5072 114.633 81.0001 114.483C89.5091 114.643 97.8384 112.025 104.727 107.025C123.364 92.6581 129.237 49.6036 115.001 27.7474Z" fill="#F2A261"/>
<path d="M31.8081 67.6684C45.8466 56.5727 55.3575 40.7353 58.5575 23.1255C73.2846 36.5277 92.4002 44.0834 112.307 44.3707C113.093 49.2277 114.839 53.8794 117.442 58.0543C120.045 62.2292 123.453 65.8437 127.467 68.6868C128.234 59.6153 129.033 50.1834 127.107 41.2999C125.18 32.4163 120.968 23.7835 114.124 17.8768C107.966 12.8955 100.541 9.73216 92.6834 8.74265C84.883 7.76873 76.9919 7.76873 69.1915 8.74265C61.3609 9.54169 52.9351 10.9988 47.4694 16.6704C43.5384 20.7283 41.7373 26.3373 40.2495 31.7896C36.9293 43.415 33.4056 55.7767 31.8081 67.6684Z" fill="#3D2614"/>
<path d="M100.31 65.2085C100.31 66.0266 100.068 66.8263 99.6133 67.5065C99.159 68.1867 98.5133 68.7168 97.7578 69.0299C97.0023 69.343 96.171 69.4249 95.369 69.2653C94.5669 69.1057 93.8302 68.7117 93.252 68.1333C92.6738 67.5548 92.28 66.8178 92.1205 66.0154C91.9609 65.2131 92.0428 64.3814 92.3557 63.6256C92.6687 62.8698 93.1986 62.2238 93.8785 61.7693C94.5585 61.3149 95.3578 61.0723 96.1756 61.0723C97.2721 61.0723 98.3238 61.508 99.0992 62.2837C99.8745 63.0594 100.31 64.1115 100.31 65.2085Z" fill="black"/>
<path d="M95.847 63.8298C95.847 64.0752 95.774 64.3151 95.6374 64.519C95.5007 64.7229 95.3066 64.8815 95.0796 64.9747C94.8526 65.0679 94.603 65.0915 94.3626 65.0424C94.1222 64.9934 93.9018 64.874 93.7294 64.6993C93.557 64.5246 93.4404 64.3026 93.3945 64.0615C93.3485 63.8204 93.3752 63.571 93.4713 63.3451C93.5673 63.1193 93.7284 62.9271 93.9339 62.793C94.1394 62.6589 94.3801 62.5889 94.6255 62.592C94.7872 62.592 94.9474 62.6241 95.0966 62.6865C95.2458 62.7489 95.3812 62.8403 95.4948 62.9555C95.6085 63.0706 95.6981 63.2072 95.7586 63.3573C95.8191 63.5074 95.8491 63.668 95.847 63.8298Z" fill="white"/>
<path d="M69.943 65.2085C69.943 66.0266 69.7005 66.8263 69.2462 67.5065C68.7919 68.1867 68.1461 68.7168 67.3906 69.0299C66.6351 69.343 65.8038 69.4249 65.0018 69.2653C64.1998 69.1057 63.463 68.7117 62.8848 68.1333C62.3066 67.5548 61.9128 66.8178 61.7533 66.0154C61.5937 65.2131 61.6756 64.3814 61.9886 63.6256C62.3015 62.8698 62.8314 62.2238 63.5114 61.7693C64.1913 61.3149 64.9907 61.0723 65.8084 61.0723C66.905 61.0723 67.9566 61.508 68.732 62.2837C69.5074 63.0594 69.943 64.1115 69.943 65.2085Z" fill="black"/>
<path d="M65.5736 63.8298C65.5736 64.0746 65.501 64.3139 65.3651 64.5174C65.2291 64.721 65.0359 64.8796 64.8098 64.9733C64.5838 65.067 64.335 65.0915 64.095 65.0437C63.855 64.996 63.6345 64.8781 63.4615 64.705C63.2885 64.5319 63.1706 64.3113 63.1229 64.0712C63.0752 63.8311 63.0997 63.5823 63.1933 63.3561C63.2869 63.1299 63.4455 62.9366 63.649 62.8006C63.8524 62.6646 64.0917 62.592 64.3364 62.592C64.4994 62.5899 64.6612 62.6205 64.8123 62.6819C64.9634 62.7434 65.1006 62.8345 65.2159 62.9499C65.3312 63.0652 65.4223 63.2025 65.4837 63.3536C65.5451 63.5047 65.5757 63.6666 65.5736 63.8298Z" fill="white"/>
<path d="M77.3508 79.7167C77.2118 79.715 77.0772 79.6683 76.9671 79.5835C76.8569 79.4988 76.7772 79.3806 76.74 79.2467C75.5341 75.0791 76.9436 73.669 78.3061 73.2147C79.1793 73.0191 80.0848 73.0173 80.9587 73.2095C81.8327 73.4017 82.654 73.7832 83.3647 74.3271C83.4367 74.3703 83.4993 74.4276 83.5487 74.4956C83.5981 74.5635 83.6334 74.6407 83.6524 74.7226C83.6713 74.8044 83.6737 74.8893 83.6592 74.9721C83.6448 75.0548 83.6139 75.1339 83.5683 75.2045C83.4754 75.3436 83.333 75.4421 83.1701 75.4799C83.0071 75.5178 82.8359 75.4921 82.6913 75.4081C82.134 74.9694 81.489 74.6557 80.8 74.4881C80.111 74.3205 79.394 74.303 78.6976 74.4367C77.4447 74.8284 77.1315 76.3325 77.9146 78.902C77.9386 78.9812 77.9467 79.0644 77.9385 79.1468C77.9302 79.2291 77.9057 79.309 77.8664 79.3819C77.827 79.4547 77.7737 79.519 77.7094 79.5711C77.6451 79.6232 77.5711 79.662 77.4917 79.6854L77.3508 79.7167Z" fill="#C16B5B"/>
<path d="M89.4728 85.2003C87.7076 86.8275 85.5419 87.9563 83.1973 88.4711C80.8528 88.9859 78.4136 88.8682 76.1294 88.1302C74.7982 87.6758 74.2188 89.6969 75.55 90.214C78.1962 91.0716 81.023 91.2087 83.7397 90.6112C86.4564 90.0136 88.965 88.703 91.0076 86.8141C92.0256 85.78 90.4908 84.2446 89.4728 85.2003Z" fill="#C16B5B"/>
<path d="M105.479 51.2958C103.175 49.914 100.601 49.0423 97.9322 48.7396C95.263 48.4369 92.56 48.7102 90.0053 49.541C89.777 49.6038 89.5634 49.7109 89.3764 49.8563C89.1895 50.0016 89.0331 50.1824 88.916 50.3883C88.7989 50.5941 88.7235 50.8211 88.6941 51.0561C88.6647 51.2911 88.6819 51.5296 88.7446 51.758C88.8073 51.9863 88.9144 52.2001 89.0597 52.3871C89.205 52.5741 89.3858 52.7306 89.5915 52.8477C89.7973 52.9648 90.0241 53.0403 90.2591 53.0697C90.494 53.0991 90.7324 53.082 90.9607 53.0192C93.0492 52.3141 95.2664 52.0735 97.4575 52.3144C99.6485 52.5552 101.761 53.2716 103.646 54.4136C104.06 54.6567 104.552 54.7256 105.017 54.6051C105.481 54.4847 105.878 54.1847 106.121 53.7712C106.364 53.3578 106.433 52.8647 106.312 52.4005C106.192 51.9362 105.892 51.5389 105.479 51.2958Z" fill="#3D2614"/>
<path d="M57.461 51.2958C59.7669 49.9117 62.343 49.0388 65.015 48.7361C67.6871 48.4334 70.393 48.7079 72.9499 49.541C73.411 49.6698 73.802 49.9766 74.037 50.3938C74.2719 50.811 74.3316 51.3046 74.2028 51.7658C74.0741 52.227 73.7674 52.6182 73.3504 52.8533C72.9333 53.0883 72.44 53.148 71.9789 53.0192C69.8904 52.3141 67.6732 52.0735 65.4822 52.3144C63.2911 52.5552 61.179 53.2716 59.2933 54.4136C57.3044 55.6357 55.472 52.5022 57.461 51.2958Z" fill="#3D2614"/>
<path d="M136.472 82.5839C131.367 88.6786 123.317 90.3237 118.478 86.2658C113.638 82.2079 113.873 74.0294 118.979 67.9034C124.084 61.7773 132.134 60.1636 136.973 64.2058C141.813 68.248 141.578 76.4892 136.472 82.5839Z" fill="#F2A261"/>
<path d="M133.638 67.1983C132.423 66.6294 131.094 66.3464 129.753 66.3708C128.412 66.3953 127.094 66.7266 125.901 67.3393C124.731 67.8366 123.711 68.6304 122.941 69.6424C122.516 70.2146 122.237 70.8817 122.128 71.586C122.019 72.2903 122.083 73.0107 122.314 73.6847C122.784 74.6932 123.514 75.5585 124.429 76.1915C124.987 76.5816 125.47 77.07 125.854 77.6329C126.081 78.0435 126.173 78.515 126.118 78.981C126.063 79.447 125.863 79.8839 125.547 80.2301C125.23 80.5763 124.813 80.8143 124.354 80.9105C123.894 81.0067 123.417 80.9563 122.988 80.7664C122.868 80.7066 122.737 80.6714 122.604 80.663C122.47 80.6545 122.336 80.6729 122.21 80.7171C122.083 80.7613 121.967 80.8304 121.868 80.9203C121.769 81.0102 121.688 81.119 121.632 81.2405C121.575 81.3619 121.544 81.4935 121.539 81.6274C121.534 81.7612 121.556 81.8947 121.603 82.0199C121.651 82.1452 121.723 82.2596 121.816 82.3564C121.908 82.4533 122.019 82.5306 122.142 82.5838C122.688 82.8324 123.281 82.9607 123.881 82.9599C124.63 82.9725 125.369 82.7849 126.022 82.4165C126.674 82.048 127.217 81.5121 127.594 80.8639C127.97 80.2157 128.167 79.4788 128.164 78.729C128.161 77.9793 127.958 77.244 127.577 76.5988C127.079 75.8243 126.442 75.1495 125.697 74.609C125.038 74.1963 124.498 73.6184 124.131 72.9326C124.018 72.5673 123.995 72.18 124.063 71.8037C124.131 71.4273 124.289 71.0729 124.523 70.7705C124.732 70.4772 124.986 70.2182 125.274 70.0028C126.322 69.9456 127.35 70.2998 128.14 70.9898C128.492 71.3806 128.752 71.8451 128.901 72.3493C129.05 72.8535 129.085 73.3847 129.002 73.904C128.979 74.0338 128.983 74.1668 129.013 74.2951C129.043 74.4233 129.098 74.5443 129.176 74.6509C129.253 74.7575 129.351 74.8475 129.464 74.9157C129.576 74.9838 129.702 75.0287 129.832 75.0477H129.988C130.225 75.0507 130.455 74.9685 130.636 74.8161C130.817 74.6636 130.938 74.4511 130.975 74.2174C131.108 73.3989 131.054 72.5612 130.818 71.7664C130.582 70.9716 130.17 70.2403 129.613 69.6268C129.168 69.1764 128.635 68.8241 128.046 68.5927C129.552 68.1333 131.175 68.2448 132.604 68.906C133.435 69.3278 134.088 70.0347 134.441 70.8976C134.795 71.7606 134.826 72.722 134.53 73.6063C134.475 73.7245 134.444 73.8525 134.438 73.9828C134.433 74.1132 134.453 74.2433 134.499 74.3657C134.544 74.488 134.613 74.6003 134.701 74.6958C134.79 74.7914 134.897 74.8684 135.016 74.9224C135.257 75.0345 135.532 75.0463 135.782 74.9552C136.031 74.8641 136.235 74.6776 136.347 74.4367C136.854 73.107 136.858 71.6381 136.359 70.3054C135.86 68.9727 134.893 67.8679 133.638 67.1983Z" fill="#C16B5B"/>
<path d="M25.4966 82.5839C30.6021 88.6786 38.6677 90.3237 43.4914 86.2658C48.315 82.2079 48.1897 73.9824 43.0059 67.9034C37.822 61.8244 29.8347 60.1636 25.0111 64.2058C20.1874 68.2481 20.391 76.4892 25.4966 82.5839Z" fill="#F2A261"/>
<path d="M28.347 67.1983C29.5618 66.6294 30.8906 66.3464 32.2317 66.3708C33.5727 66.3953 34.8904 66.7266 36.0836 67.3393C37.2536 67.8366 38.2738 68.6304 39.0436 69.6424C39.4648 70.2164 39.7416 70.8834 39.8506 71.587C39.9597 72.2906 39.8977 73.0101 39.6701 73.6847C39.2025 74.6994 38.4659 75.5664 37.5401 76.1915C36.99 76.5914 36.5087 77.0782 36.115 77.6329C35.8845 78.0449 35.79 78.5192 35.845 78.9881C35.9 79.457 36.1016 79.8965 36.4211 80.244C36.7407 80.5914 37.1617 80.829 37.6242 80.9228C38.0867 81.0166 38.5671 80.9619 38.9966 80.7664C39.2376 80.6543 39.5131 80.6425 39.7627 80.7336C40.0124 80.8247 40.2156 81.0112 40.3278 81.2521C40.4357 81.4937 40.4453 81.7678 40.3547 82.0163C40.2641 82.2649 40.0803 82.4684 39.8423 82.5838C39.2965 82.8324 38.7037 82.9607 38.1039 82.9599C37.3552 82.9703 36.6171 82.7817 35.9651 82.4132C35.3131 82.0447 34.7706 81.5096 34.393 80.8626C34.0155 80.2157 33.8165 79.48 33.8164 78.7309C33.8162 77.9817 34.015 77.246 34.3922 76.5988C34.8949 75.8236 35.5376 75.1489 36.2872 74.609C36.9463 74.1963 37.4862 73.6184 37.8534 72.9326C37.9504 72.5657 37.9585 72.1809 37.8767 71.8102C37.795 71.4396 37.6259 71.0938 37.3835 70.8018C37.1641 70.5119 36.9059 70.2536 36.6161 70.0341C35.5738 69.9794 34.5512 70.3335 33.7658 71.0212C33.415 71.4129 33.1546 71.877 33.0031 72.3806C32.8515 72.8842 32.8125 73.415 32.8887 73.9353C32.9134 74.0642 32.9116 74.1968 32.8836 74.325C32.8557 74.4532 32.802 74.5744 32.7259 74.6813C32.6498 74.7882 32.5528 74.8786 32.4408 74.9469C32.3288 75.0153 32.2042 75.0602 32.0744 75.0791H31.9021C31.6681 75.0783 31.442 74.9944 31.2641 74.8423C31.0863 74.6902 30.9682 74.4798 30.9311 74.2487C30.7952 73.4302 30.8472 72.5916 31.0833 71.7962C31.3194 71.0009 31.7333 70.2697 32.2936 69.6581C32.7178 69.2201 33.2231 68.8689 33.7814 68.624C32.2806 68.1656 30.6634 68.2772 29.2397 68.9374C28.4053 69.3565 27.7498 70.0623 27.3932 70.9255C27.0365 71.7887 27.0026 72.7515 27.2977 73.6377C27.4077 73.8766 27.4184 74.1495 27.3274 74.3963C27.2363 74.6431 27.051 74.8436 26.8122 74.9537C26.5733 75.0638 26.3006 75.0745 26.0539 74.9835C25.8071 74.8924 25.6067 74.707 25.4966 74.468C24.9883 73.1182 24.9984 71.6278 25.5249 70.285C26.0514 68.9422 27.0569 67.8424 28.347 67.1983Z" fill="#C16B5B"/>
<path d="M107.452 104.534L81.0002 106.101L54.5327 104.534C63.2404 109.877 62.6296 127.299 62.6296 127.299C66.9521 131.999 81.0002 131.999 81.0002 131.999C81.0002 131.999 95.0954 131.999 99.3552 127.299C99.3552 127.299 98.7601 109.877 107.452 104.534Z" fill="#F2A261"/>
</g>
</g>
<defs>
<clipPath id="clip0_143_192">
<rect width="162" height="184" fill="white"/>
</clipPath>
</defs>
</svg>
