<svg width="100" height="100" viewBox="0 0 100 100" fill="none" xmlns="http://www.w3.org/2000/svg">
<path fill-rule="evenodd" clip-rule="evenodd" d="M5 0C2.23858 0 0 2.23858 0 5V33C0 34.1046 0.895431 35 2 35H8C9.10457 35 10 34.1046 10 33V12C10 10.8954 10.8954 10 12 10H88C89.1046 10 90 10.8954 90 12V88C90 89.1046 89.1046 90 88 90H12C10.8954 90 10 89.1046 10 88V67C10 65.8954 9.10457 65 8 65H2C0.89543 65 0 65.8954 0 67V95C0 97.7614 2.23858 100 5 100H95C97.7614 100 100 97.7614 100 95V5C100 2.23858 97.7614 0 95 0H5ZM72.4974 43.1421L76.0329 46.6777C77.9856 48.6303 77.9856 51.7961 76.0329 53.7487L72.4974 57.2843L54.8197 74.9619C52.8671 76.9146 49.7013 76.9146 47.7487 74.9619C45.7961 73.0093 45.7961 69.8435 47.7487 67.8909L60.4263 55.2132H5C2.23858 55.2132 0 52.9746 0 50.2132C0 47.4518 2.23858 45.2132 5 45.2132H60.4263L47.7487 32.5355C45.7961 30.5829 45.7961 27.4171 47.7487 25.4645C49.7013 23.5118 52.8671 23.5118 54.8197 25.4645L72.4974 43.1421Z" fill="#D9D9D9"/>
</svg>
