<svg width="120" height="145" viewBox="0 0 120 145" fill="none" xmlns="http://www.w3.org/2000/svg">
<path fill-rule="evenodd" clip-rule="evenodd" d="M23 37C23 16.5655 39.5655 0 60 0C80.4345 0 97 16.5655 97 37V55.821C110.192 58.9742 120 70.8417 120 85V115C120 131.569 106.569 145 90 145H30C13.4315 145 0 131.569 0 115V85C0 70.8417 9.80786 58.9742 23 55.821V37ZM85 55H35V37C35 23.1929 46.1929 12 60 12C73.8071 12 85 23.1929 85 37V55ZM47 100C47 92.8203 52.8203 87 60 87C67.1797 87 73 92.8203 73 100C73 107.18 67.1797 113 60 113C52.8203 113 47 107.18 47 100Z" fill="white"/>
</svg>
