<svg width="162" height="199" viewBox="0 0 162 199" fill="none" xmlns="http://www.w3.org/2000/svg">
<g clip-path="url(#clip0_143_162)">
<mask id="mask0_143_162" style="mask-type:luminance" maskUnits="userSpaceOnUse" x="-17" y="-6" width="205" height="205">
<path d="M184.3 120.692C197.599 65.9107 164.055 10.7009 109.379 -2.62293C54.7025 -15.9467 -0.40176 17.661 -13.7001 72.442C-26.9984 127.223 6.54508 182.433 61.2214 195.757C115.898 209.08 171.002 175.473 184.3 120.692Z" fill="white"/>
</mask>
<g mask="url(#mask0_143_162)">
<path d="M135.89 52.0843C134.672 44.9998 131.97 38.2539 127.964 32.2901C123.957 26.3263 118.736 21.2797 112.644 17.4821C106.552 13.6845 99.7261 11.222 92.6159 10.2563C85.5058 9.29069 78.2721 9.84386 71.3906 11.8795C71.6725 5.46113 65.3135 0.0157344 58.8604 4.16067e-05C52.4073 -0.0156512 46.6121 4.40971 43.4482 9.99634C40.2844 15.583 39.3759 22.1739 39.2193 28.5923C37.6482 28.3498 36.0411 28.6255 34.6401 29.378C33.2391 30.1304 32.1202 31.3188 31.452 32.7639C30.7839 34.209 30.6027 35.8326 30.9358 37.3898C31.2689 38.9471 32.0982 40.3537 33.2988 41.3976C29.7223 51.5052 28.7359 62.3507 30.4298 72.9395C32.1237 83.5283 36.4438 93.5216 42.994 102.003L125.521 92.4932C129.96 86.8507 133.174 80.3425 134.96 73.3846C136.745 66.4266 137.062 59.172 135.89 52.0843Z" fill="#3D2614"/>
<path d="M114.98 42.5117C107.963 31.7308 94.6186 28.0901 80.9607 28.0901C67.3028 28.0901 53.9581 31.7308 46.9412 42.5117C32.7194 64.3875 38.5773 107.511 57.2786 121.917C64.162 126.941 72.4926 129.58 81.0077 129.434C89.5015 129.584 97.8135 126.962 104.69 121.964C123.375 107.464 129.249 64.3875 114.98 42.5117Z" fill="#754623"/>
<path d="M37.9976 83.925C43.8895 74.6391 46.2004 63.5196 44.4976 52.6493C46.2525 52.5903 47.9319 51.9202 49.247 50.7545C50.562 49.5888 51.4303 48.0003 51.7025 46.2623C65.3434 48.9448 79.4915 46.7221 91.6582 39.9852C92.3989 41.7807 93.8127 43.2137 95.5961 43.9766C97.3795 44.7394 99.3903 44.7713 101.197 44.0653C101.743 46.7866 103.261 49.2147 105.468 50.8935C107.674 52.5723 110.416 53.3864 113.179 53.1828C111.342 58.8548 111.408 64.9734 113.368 70.6039C115.328 76.2345 119.074 81.0674 124.033 84.3644C124.613 76.0943 125.333 67.4633 124.033 59.2559C122.942 50.9865 119.438 43.2238 113.962 36.9408C105.222 27.5252 91.5173 24.1198 78.6895 24.7632C65.3918 25.438 51.6555 30.5068 43.6988 41.1936C39.3493 47.3024 36.7299 54.4762 36.1181 61.9551C35.3663 69.3307 36.6663 76.6278 37.9976 83.925Z" fill="#3D2614"/>
<path d="M100.32 80.0331C100.32 80.8525 100.077 81.6535 99.6229 82.3348C99.1685 83.0161 98.5227 83.5471 97.7672 83.8607C97.0116 84.1742 96.1802 84.2563 95.3781 84.0964C94.576 83.9366 93.8392 83.542 93.2609 82.9626C92.6826 82.3832 92.2888 81.645 92.1293 80.8414C91.9697 80.0377 92.0516 79.2047 92.3646 78.4477C92.6775 77.6907 93.2075 77.0437 93.8875 76.5885C94.5675 76.1332 95.367 75.8903 96.1848 75.8903C97.2814 75.8903 98.3332 76.3267 99.1086 77.1037C99.8841 77.8806 100.32 78.9344 100.32 80.0331Z" fill="black"/>
<path d="M95.8719 78.6522C95.8677 78.9783 95.7356 79.2896 95.504 79.5187C95.2724 79.7478 94.96 79.8763 94.6345 79.8762C94.3323 79.842 94.0533 79.6975 93.8507 79.4703C93.6481 79.2431 93.5361 78.949 93.5361 78.6444C93.5361 78.3397 93.6481 78.0457 93.8507 77.8184C94.0533 77.5912 94.3323 77.4467 94.6345 77.4125C94.9627 77.4125 95.2774 77.5431 95.5094 77.7756C95.7415 78.0081 95.8719 78.3234 95.8719 78.6522Z" fill="white"/>
<path d="M69.9657 80.0331C69.9657 80.8525 69.7232 81.6535 69.2689 82.3348C68.8145 83.0161 68.1687 83.5471 67.4132 83.8607C66.6576 84.1742 65.8262 84.2563 65.0241 84.0964C64.222 83.9366 63.4852 83.542 62.9069 82.9626C62.3286 82.3832 61.9348 81.645 61.7753 80.8414C61.6157 80.0377 61.6976 79.2047 62.0106 78.4477C62.3235 77.6907 62.8535 77.0437 63.5335 76.5885C64.2135 76.1332 65.013 75.8903 65.8308 75.8903C66.9274 75.8903 67.9792 76.3267 68.7546 77.1037C69.5301 77.8806 69.9657 78.9344 69.9657 80.0331Z" fill="black"/>
<path d="M65.5016 78.6522C65.5016 78.898 65.4286 79.1383 65.2919 79.3425C65.1552 79.5467 64.9611 79.7056 64.734 79.799C64.507 79.8923 64.2574 79.9159 64.017 79.8668C63.7766 79.8177 63.5561 79.6981 63.3837 79.5231C63.2113 79.3481 63.0947 79.1258 63.0488 78.8843C63.0028 78.6428 63.0295 78.393 63.1256 78.1668C63.2217 77.9405 63.3827 77.748 63.5882 77.6137C63.7938 77.4794 64.0345 77.4093 64.2799 77.4125C64.4416 77.4124 64.6018 77.4446 64.751 77.5071C64.9003 77.5696 65.0357 77.6612 65.1493 77.7765C65.263 77.8918 65.3526 78.0286 65.4131 78.1789C65.4736 78.3293 65.5036 78.4901 65.5016 78.6522Z" fill="white"/>
<path d="M77.3895 94.5647C77.2491 94.5615 77.1132 94.5144 77.0009 94.43C76.8886 94.3455 76.8054 94.2281 76.763 94.0939C75.5569 89.9197 76.9822 88.5073 78.3292 88.0522C79.2015 87.8563 80.106 87.853 80.9796 88.0427C81.8533 88.2325 82.6753 88.6105 83.3883 89.1507C83.5337 89.2402 83.6377 89.3839 83.6773 89.5502C83.717 89.7164 83.6891 89.8917 83.5998 90.0374C83.5105 90.183 83.3671 90.2872 83.2011 90.3269C83.0351 90.3666 82.8602 90.3387 82.7148 90.2492C82.1563 89.8116 81.5117 89.4972 80.8234 89.3269C80.135 89.1565 79.4185 89.1339 78.7208 89.2606C77.4678 89.6686 77.1545 91.1751 77.9533 93.7487C77.997 93.911 77.9756 94.0839 77.8936 94.2305C77.8116 94.3772 77.6757 94.4858 77.5148 94.5333L77.3895 94.5647Z" fill="#522E13"/>
<path d="M105.489 66.098C103.186 64.7114 100.613 63.8356 97.9433 63.5297C95.2739 63.2238 92.57 63.4949 90.014 64.3247C89.5584 64.4635 89.1732 64.7717 88.9373 65.1861C88.7013 65.6004 88.6327 66.0896 88.7453 66.5531C88.877 67.0139 89.1834 67.4048 89.599 67.6424C90.0146 67.8799 90.5064 67.9451 90.9694 67.8242C93.0605 67.1166 95.2807 66.875 97.4747 67.1162C99.6687 67.3574 101.784 68.0757 103.672 69.2208C104.085 69.4622 104.577 69.5292 105.04 69.4071C105.503 69.285 105.898 68.9837 106.139 68.5696C106.38 68.1555 106.447 67.6624 106.325 67.1989C106.203 66.7354 105.902 66.3394 105.489 66.098Z" fill="#3D2614"/>
<path d="M57.4824 66.098C59.7854 64.7114 62.3584 63.8356 65.0278 63.5297C67.6973 63.2238 70.4012 63.4949 72.9572 64.3247C73.4142 64.46 73.8007 64.7683 74.0347 65.1843C74.2686 65.6003 74.3316 66.0913 74.2102 66.5531C74.082 67.0162 73.7763 67.4097 73.3596 67.6479C72.943 67.886 72.4492 67.9494 71.9861 67.8242C69.8974 67.1179 67.6799 66.877 65.4887 67.1182C63.2974 67.3594 61.1851 68.077 59.2993 69.2208C58.8859 69.4622 58.3938 69.5292 57.9312 69.4071C57.4686 69.285 57.0733 68.9837 56.8324 68.5696C56.5914 68.1555 56.5246 67.6624 56.6465 67.1989C56.7684 66.7354 57.069 66.3394 57.4824 66.098Z" fill="#3D2614"/>
<path d="M90.6873 99.8688C89.4969 98.0798 86.4114 100.026 82.7149 100.355C79.0185 100.685 75.6354 99.3509 74.7896 101.344C73.7089 103.855 77.3896 109.536 83.4981 109.033C89.6066 108.531 92.2066 102.16 90.6873 99.8688Z" fill="#8E4136"/>
<path d="M90.5309 103.886C89.2925 103.846 88.0527 103.883 86.8188 103.996C82.5116 104.388 78.9874 105.565 77.3115 107.04C78.3229 107.889 79.5182 108.49 80.8021 108.794C82.086 109.099 83.4232 109.098 84.707 108.794C85.9909 108.489 87.1859 107.888 88.197 107.039C89.2081 106.189 90.0073 105.115 90.5309 103.902V103.886Z" fill="#C16B5B"/>
<path d="M82.903 102.442C86.2078 102.144 88.9332 101.093 89.7946 99.2097C88.2283 98.7546 85.7066 100.088 82.7151 100.355C79.7235 100.622 76.9512 99.806 75.5415 100.528C76.7319 102.223 79.5982 102.756 82.903 102.442Z" fill="white"/>
<path d="M136.501 97.4364C131.395 103.525 123.329 105.189 118.505 101.124C113.681 97.0598 113.806 88.8211 118.99 82.7323C124.175 76.6435 132.163 74.8859 136.987 79.0288C141.811 83.1717 141.607 91.332 136.501 97.4364Z" fill="#754623"/>
<path d="M133.65 82.0105C132.433 81.4477 131.104 81.1695 129.764 81.1966C128.423 81.2238 127.107 81.5558 125.913 82.1674C124.74 82.6604 123.718 83.4565 122.953 84.4743C122.527 85.0468 122.247 85.715 122.138 86.4207C122.028 87.1264 122.093 87.8481 122.326 88.523C122.8 89.5351 123.536 90.4019 124.456 91.0339C125.006 91.4344 125.488 91.922 125.882 92.4776C126.112 92.8902 126.207 93.3653 126.152 93.835C126.097 94.3046 125.895 94.7449 125.575 95.0929C125.256 95.4409 124.835 95.6788 124.372 95.7728C123.91 95.8668 123.429 95.8119 123 95.6161C122.88 95.5405 122.745 95.4912 122.604 95.4717C122.463 95.4521 122.32 95.4627 122.184 95.5028C122.048 95.5428 121.922 95.6114 121.814 95.7039C121.706 95.7965 121.619 95.9109 121.559 96.0396C121.499 96.1683 121.466 96.3085 121.464 96.4506C121.462 96.5928 121.49 96.7339 121.546 96.8645C121.602 96.995 121.685 97.1122 121.79 97.2081C121.895 97.304 122.019 97.3765 122.154 97.4208C122.697 97.6773 123.292 97.8061 123.892 97.7974C124.48 97.7978 125.062 97.6768 125.601 97.4419C126.14 97.2069 126.625 96.8632 127.025 96.4322C127.623 95.7574 127.996 94.9122 128.092 94.0147C128.187 93.1171 128 92.2122 127.558 91.4262C127.047 90.6608 126.405 89.9915 125.662 89.4489C125.006 89.0316 124.467 88.4537 124.096 87.7698C123.983 87.4038 123.96 87.016 124.028 86.639C124.096 86.2621 124.254 85.9071 124.488 85.6042C124.706 85.3177 124.958 85.0595 125.239 84.8352C126.284 84.7802 127.31 85.1284 128.106 85.8082C128.477 86.1995 128.757 86.6686 128.925 87.1816C129.093 87.6945 129.145 88.2385 129.077 88.7741C129.054 88.903 129.058 89.035 129.087 89.1626C129.116 89.2902 129.169 89.4108 129.245 89.5173C129.321 89.6239 129.417 89.7143 129.528 89.7834C129.639 89.8524 129.762 89.8988 129.891 89.9197H130.048C130.285 89.9227 130.515 89.8403 130.696 89.6876C130.877 89.535 130.997 89.3221 131.035 89.088C131.17 88.2658 131.117 87.4236 130.881 86.6247C130.645 85.8257 130.232 85.0905 129.672 84.4743C129.248 84.039 128.742 83.6923 128.184 83.4543C129.685 82.9951 131.302 83.1069 132.726 83.7681C133.56 84.188 134.214 84.8958 134.568 85.761C134.922 86.6261 134.952 87.5904 134.653 88.4759C134.547 88.7176 134.54 88.9913 134.634 89.238C134.727 89.4847 134.914 89.6845 135.154 89.7941C135.272 89.8494 135.4 89.8807 135.53 89.8861C135.661 89.8916 135.791 89.8711 135.913 89.8258C136.035 89.7806 136.148 89.7115 136.243 89.6226C136.339 89.5336 136.416 89.4266 136.47 89.3077C136.981 87.9571 136.976 86.4648 136.456 85.1177C135.935 83.7707 134.936 82.6639 133.65 82.0105Z" fill="#522E13"/>
<path d="M25.5147 97.4364C30.6208 103.525 38.6714 105.189 43.5112 101.124C48.351 97.0598 48.1161 88.8211 43.01 82.7323C37.904 76.6435 29.8533 74.8859 25.0135 79.0288C20.1737 83.1717 20.4086 91.332 25.5147 97.4364Z" fill="#754623"/>
<path d="M28.3494 82.0105C29.5667 81.4477 30.8957 81.1695 32.2361 81.1966C33.5765 81.2238 34.8932 81.5558 36.0868 82.1674C37.2599 82.6604 38.2814 83.4565 39.047 84.4743C39.4731 85.0468 39.7529 85.715 39.8621 86.4207C39.9713 87.1264 39.9066 87.8481 39.6736 88.523C39.2037 89.5332 38.4739 90.3998 37.5591 91.0339C36.9999 91.429 36.5125 91.9173 36.1181 92.4776C35.8876 92.8902 35.7931 93.3653 35.8481 93.835C35.9031 94.3046 36.1048 94.7449 36.4243 95.0929C36.7439 95.4409 37.165 95.6788 37.6275 95.7728C38.0901 95.8668 38.5705 95.8119 39.0001 95.6161C39.241 95.5039 39.5166 95.492 39.7662 95.5833C40.0159 95.6745 40.2192 95.8613 40.3314 96.1026C40.3866 96.221 40.4178 96.3492 40.4232 96.4797C40.4286 96.6103 40.4082 96.7406 40.363 96.8632C40.3179 96.9858 40.2489 97.0982 40.1601 97.1939C40.0714 97.2896 39.9646 97.3667 39.8458 97.4208C39.3025 97.6773 38.7079 97.8061 38.1073 97.7974C37.5195 97.7978 36.938 97.6768 36.399 97.4419C35.86 97.2069 35.3752 96.8632 34.9747 96.4322C34.3847 95.753 34.0172 94.9085 33.922 94.0132C33.8267 93.1178 34.0083 92.2147 34.4422 91.4262C34.9532 90.6608 35.5947 89.9915 36.3374 89.4489C36.9934 89.0316 37.5324 88.4537 37.9037 87.7698C38.0168 87.4038 38.0402 87.016 37.9721 86.639C37.9039 86.2621 37.7461 85.9071 37.5121 85.6042C37.2674 85.3185 36.9825 85.07 36.6663 84.8666C35.6218 84.8116 34.596 85.1598 33.8 85.8396C33.4489 86.2345 33.1895 86.7025 33.0405 87.2099C32.8916 87.7174 32.8567 88.2516 32.9386 88.7741C32.9792 89.0362 32.9147 89.3037 32.7592 89.5183C32.6037 89.733 32.3697 89.8772 32.1084 89.9197H31.9675C31.7308 89.9227 31.5009 89.8403 31.3197 89.6876C31.1386 89.535 31.0183 89.3221 30.9807 89.088C30.8493 88.2658 30.9035 87.4246 31.1393 86.6261C31.3751 85.8277 31.7866 85.0924 32.3434 84.4743C32.7672 84.039 33.2729 83.6923 33.8313 83.4543C32.3303 82.9951 30.713 83.1069 29.2891 83.7681C28.4553 84.188 27.801 84.8958 27.447 85.761C27.0929 86.6261 27.063 87.5904 27.3626 88.4759C27.4657 88.7161 27.4729 88.9868 27.3825 89.2322C27.2921 89.4775 27.1112 89.6786 26.8771 89.7941C26.6361 89.9064 26.3605 89.9182 26.1109 89.827C25.8613 89.7358 25.658 89.549 25.5457 89.3077C25.033 87.959 25.0356 86.4681 25.5531 85.1213C26.0706 83.7744 27.0664 82.6666 28.3494 82.0105Z" fill="#522E13"/>
<path d="M107.462 119.422L81.0076 120.991L54.5532 119.422C63.293 124.726 62.6352 142.177 62.6352 142.177C66.9738 146.884 81.0076 146.884 81.0076 146.884C81.0076 146.884 95.1041 146.884 99.3801 142.177C99.3174 142.177 98.7692 124.726 107.462 119.422Z" fill="#754623"/>
<path d="M155.108 168.415C149.689 158.999 112.819 140.403 81.0078 140.403C49.1967 140.403 12.3109 159.031 6.90724 168.415C1.50359 177.799 0.015625 199 0.015625 199H161.969C161.969 199 160.528 177.783 155.108 168.415Z" fill="#583D71"/>
<path d="M105.364 133.781C105.562 132.647 105.636 131.494 105.583 130.344C105.549 129.777 105.391 129.225 105.12 128.726C104.85 128.227 104.473 127.794 104.017 127.457C102.544 126.547 100.649 127.174 99.0201 127.771C87.9738 131.666 75.9994 132.066 64.7186 128.916C62.8313 128.267 60.8556 127.912 58.8608 127.865C57.8886 127.831 56.9253 128.059 56.0712 128.526C55.2172 128.992 54.5037 129.68 54.0053 130.517C53.0812 132.384 53.7704 134.613 54.1149 136.668C54.6882 140.053 54.3085 143.531 53.0186 146.712C56.527 149.411 61.0066 149.74 65.4078 150.258C76.6931 151.564 88.1046 151.3 99.3177 149.474C102.208 149.231 104.92 147.975 106.977 145.927C105.531 142.052 104.979 137.9 105.364 133.781Z" fill="#583D71"/>
<path d="M105.583 147.857C98.1068 150.667 90.1978 152.143 82.2138 152.22C79.9897 152.22 77.7499 152.22 75.5101 151.937C75.0559 151.937 75.0559 152.612 75.5101 152.659C83.5039 153.365 91.5594 152.675 99.3175 150.619C101.495 150.039 103.656 149.348 105.786 148.548C106.209 148.391 106.021 147.7 105.583 147.857Z" fill="#362549"/>
<path d="M110.062 178.662C105.413 182.52 99.9999 185.344 94.18 186.948C92.5583 187.399 90.9107 187.75 89.2462 187.999C88.792 187.999 88.98 188.753 89.4342 188.69C95.4924 187.766 101.285 185.562 106.428 182.224C107.868 181.297 109.249 180.28 110.563 179.18C110.924 178.882 110.407 178.38 110.062 178.662Z" fill="#362549"/>
<path d="M114.072 178.898C108.768 185.417 101.842 190.418 93.992 193.398C91.7866 194.209 89.5252 194.86 87.2257 195.344C86.7715 195.438 86.9595 196.128 87.4137 196.034C95.6873 194.23 103.345 190.286 109.623 184.594C111.403 182.981 113.058 181.234 114.573 179.368C114.855 179.007 114.354 178.49 114.072 178.85V178.898Z" fill="#362549"/>
</g>
</g>
<defs>
<clipPath id="clip0_143_162">
<rect width="162" height="199" fill="white"/>
</clipPath>
</defs>
</svg>
