<svg width="162" height="187" viewBox="0 0 162 187" fill="none" xmlns="http://www.w3.org/2000/svg">
<g clip-path="url(#clip0_143_69)">
<mask id="mask0_143_69" style="mask-type:luminance" maskUnits="userSpaceOnUse" x="-12" y="-6" width="194" height="194">
<path d="M179.032 114.057C191.604 62.2409 159.83 10.0344 108.062 -2.54923C56.2947 -15.1328 4.13749 16.6717 -8.4342 68.4882C-21.0059 120.305 10.7685 172.511 62.536 185.095C114.303 197.678 166.461 165.874 179.032 114.057Z" fill="white"/>
</mask>
<g mask="url(#mask0_143_69)">
<path d="M35.0027 81.6254C29.1886 70.4699 26.3918 57.9859 26.8901 45.4136C26.9471 39.9307 28.1194 34.5169 30.3356 29.5024C32.597 24.4505 36.7046 20.4568 41.8153 18.341C45.668 9.70352 55.0961 4.96934 64.2109 2.55522C75.5365 -0.706334 87.5432 -0.766017 98.9006 2.38279C110.283 5.58827 120.099 12.8542 126.496 22.8087C132.04 31.8538 134.029 42.7644 133.59 53.3771C133.152 63.9898 130.348 74.3674 126.934 84.4157C110.678 86.2028 94.4998 87.9899 78.1024 88.2564C63.6158 88.4915 47.7196 88.7737 35.0027 81.6254Z" fill="#3D2614"/>
<path d="M161.984 187H0C0 187 0.156612 184.711 0.563805 181.294C0.563805 180.839 0.673433 180.338 0.736079 179.836C1.37118 174.586 2.38661 169.388 3.77436 164.285C3.91531 163.784 4.07193 163.266 4.22854 162.718C4.89481 160.54 5.78715 158.439 6.89095 156.447C8.6482 153.929 10.8638 151.764 13.4217 150.067L15.1444 148.86C19.687 145.876 24.4576 143.255 29.4118 141.022C30.3358 140.599 31.2912 140.16 32.2622 139.752C39.4894 136.572 46.9637 133.988 54.6108 132.024L56.2865 131.616C64.3495 129.622 72.6165 128.569 80.9217 128.481C88.6312 128.555 96.3093 129.475 103.818 131.225L105.385 131.585C117.193 134.4 128.597 138.704 139.322 144.392C139.933 144.722 140.528 145.051 141.108 145.396C144.128 147.069 147.023 148.961 149.769 151.055C150.238 151.415 150.677 151.776 151.084 152.121C152.623 153.341 153.956 154.802 155.031 156.447C156.126 158.437 157.003 160.539 157.646 162.718L158.069 164.05C159.087 167.695 159.893 171.395 160.481 175.133L160.716 176.607C161.671 182.407 161.984 187 161.984 187Z" fill="#B7403D"/>
<path d="M105.447 131.569C103.712 133.792 101.59 135.683 99.1828 137.15C91.8533 141.586 83.083 142.072 74.8765 140.505C70.6158 139.8 66.4456 138.628 62.4415 137.009C59.5416 135.854 56.885 134.163 54.6108 132.024L56.2866 131.616C58.6945 133.664 61.4539 135.258 64.4304 136.319C72.2611 139.251 81.2976 141.022 89.5824 139.329C95.1059 138.334 100.127 135.487 103.818 131.256L105.447 131.569Z" fill="#892B2B"/>
<path d="M141.171 145.38L138.822 146.07C127.593 149.054 115.97 150.281 104.367 149.707C92.6228 149.125 80.9239 147.843 69.3326 145.866C57.4614 144.032 45.5901 142.088 33.5936 141.163C32.1998 141.069 30.8216 140.975 29.4277 140.912C30.3517 140.489 31.3071 140.05 32.2781 139.643C34.0478 139.752 35.8175 139.893 37.5872 140.05C49.4428 141.116 61.1888 143.185 72.966 144.91C84.7049 146.891 96.5693 148.039 108.47 148.343C114.388 148.424 120.304 148.057 126.167 147.245C130.636 146.599 135.053 145.635 139.385 144.361C139.996 144.706 140.591 145.035 141.171 145.38Z" fill="#892B2B"/>
<path d="M151.147 152.105C148.907 152.889 146.715 153.673 144.585 154.629C138.571 157.137 132.682 159.927 126.512 162.059C120.338 164.145 113.931 165.461 107.436 165.978C94.2965 167.06 81.0784 165.242 68.2831 162.498C55.0024 159.677 41.9566 155.773 28.6915 152.858C23.6642 151.744 18.5743 150.788 13.4688 150.067L15.1915 148.86C21.456 149.785 27.5795 151.086 33.6718 152.513C46.9212 155.648 59.9983 159.52 73.373 162.075C86.4972 164.583 100.091 165.931 113.388 163.846C119.91 162.754 126.281 160.896 132.369 158.313C138.226 155.914 143.943 153.187 149.878 151.039C150.301 151.478 150.74 151.76 151.147 152.105Z" fill="#892B2B"/>
<path d="M158.132 164.019C148.829 165.163 139.761 168.722 130.834 171.23C118.544 174.608 105.881 176.44 93.1375 176.685C80.4529 176.931 67.7865 175.609 55.4252 172.75C42.8962 169.819 30.5552 165.383 17.6346 164.176C13.0234 163.713 8.3753 163.761 3.77441 164.317C3.91537 163.815 4.07198 163.298 4.22859 162.749C9.78024 162.171 15.3818 162.276 20.9078 163.063C33.9693 164.834 46.4043 169.333 59.2622 172.076C71.9593 174.69 84.9378 175.669 97.8829 174.992C110.835 174.296 123.653 172.011 136.049 168.189C143.097 166.041 150.395 163.611 157.772 162.655L158.132 164.019Z" fill="#892B2B"/>
<path d="M34.3453 180.792C42.4127 182.409 50.3774 184.503 58.1974 187.063H53.1545C45.5654 184.661 37.8069 182.832 29.9445 181.592C20.2069 180.205 10.3302 180.094 0.563965 181.263C0.563965 180.808 0.673594 180.306 0.736239 179.805C11.9268 178.478 23.2517 178.811 34.3453 180.792Z" fill="#892B2B"/>
<path d="M160.779 176.56C159.015 176.244 157.229 176.077 155.438 176.058C149.628 176.049 143.906 177.487 138.79 180.244C134.906 182.25 131.257 184.696 127.545 187.016H124.773C125.917 186.342 127.06 185.621 128.188 184.915C133.231 181.78 138.242 178.425 143.849 176.466C149.197 174.626 154.919 174.152 160.497 175.086L160.779 176.56Z" fill="#892B2B"/>
<path d="M115.142 159.583C112.571 164.8 108.285 168.973 103.004 171.402C101.498 172.091 99.9231 172.616 98.3057 172.97C97.8515 173.08 98.0551 173.769 98.4936 173.66C104.295 172.298 109.45 168.976 113.09 164.254C114.103 162.911 114.974 161.466 115.69 159.943C115.893 159.535 115.282 159.175 115.079 159.583H115.142Z" fill="#FFCB99"/>
<path d="M115.909 164.897C113.848 170.405 109.984 175.052 104.946 178.08C104.555 178.315 104.946 178.942 105.306 178.692C110.488 175.571 114.454 170.778 116.551 165.1C116.708 164.662 116.019 164.473 115.862 164.897H115.909Z" fill="#FFCB99"/>
<path d="M115.001 30.6782C108 19.893 94.6411 16.2719 81.0001 16.2719C67.3592 16.2719 54.0001 19.893 46.9839 30.6782C32.7478 52.5306 38.6208 95.6085 57.3203 109.999C64.196 114.992 72.5072 117.611 81.0001 117.461C89.5091 117.621 97.8384 115.001 104.727 109.999C123.364 95.6085 129.237 52.5306 115.001 30.6782Z" fill="#FFB8AE"/>
<path d="M123.285 43.0622C119.761 31.7127 112.213 21.3665 101.594 16.0367C89.6292 10.1111 75.0642 11.3338 62.7232 16.4129C52.0422 20.8649 42.3635 28.3894 36.8978 38.5632C31.432 48.737 30.6333 61.7324 36.2087 71.8435L38.182 71.9533C46.3205 62.6195 51.5667 51.1149 53.2794 38.8454C57.1536 41.4056 61.5533 43.0611 66.153 43.6893L63.4123 40.3189C71.727 45.0205 81.387 46.7665 90.8195 45.2726L88.9871 42.4195C96.7002 46.0485 105.424 46.9173 113.701 44.8806C113.39 57.0092 117.348 68.8613 124.883 78.3648C126.84 66.7018 126.809 54.396 123.285 43.0622Z" fill="#3D2614"/>
<path d="M100.31 68.1596C100.31 68.9781 100.068 69.7783 99.6133 70.4588C99.159 71.1394 98.5133 71.6698 97.7578 71.9831C97.0023 72.2963 96.171 72.3783 95.369 72.2186C94.5669 72.0589 93.8302 71.6647 93.252 71.086C92.6738 70.5072 92.28 69.7698 92.1205 68.967C91.9609 68.1642 92.0428 67.3321 92.3557 66.5759C92.6687 65.8197 93.1986 65.1733 93.8785 64.7186C94.5585 64.2638 95.3578 64.0211 96.1756 64.0211C97.2721 64.0211 98.3238 64.4571 99.0992 65.2333C99.8745 66.0094 100.31 67.062 100.31 68.1596Z" fill="black"/>
<path d="M95.8469 66.8272C95.85 67.0734 95.7797 67.315 95.645 67.5211C95.5102 67.7271 95.3172 67.8882 95.0905 67.9839C94.8637 68.0796 94.6137 68.1054 94.3722 68.0581C94.1308 68.0109 93.9089 67.8926 93.7349 67.7185C93.561 67.5443 93.4428 67.3222 93.3956 67.0806C93.3483 66.8389 93.3742 66.5886 93.4697 66.3617C93.5653 66.1348 93.7263 65.9415 93.9322 65.8066C94.138 65.6718 94.3794 65.6014 94.6254 65.6045C94.9493 65.6045 95.2601 65.7333 95.4891 65.9626C95.7182 66.1919 95.8469 66.5029 95.8469 66.8272Z" fill="white"/>
<path d="M69.943 68.1596C69.943 68.9781 69.7005 69.7783 69.2462 70.4588C68.7919 71.1394 68.1461 71.6698 67.3906 71.9831C66.6351 72.2963 65.8038 72.3783 65.0018 72.2186C64.1998 72.0589 63.463 71.6647 62.8848 71.086C62.3066 70.5072 61.9128 69.7698 61.7533 68.967C61.5937 68.1642 61.6756 67.3321 61.9886 66.5759C62.3015 65.8197 62.8314 65.1733 63.5114 64.7186C64.1913 64.2638 64.9907 64.0211 65.8084 64.0211C66.905 64.0211 67.9566 64.4571 68.732 65.2333C69.5074 66.0094 69.943 67.062 69.943 68.1596Z" fill="black"/>
<path d="M65.5735 66.8272C65.5766 67.0728 65.5067 67.3138 65.3726 67.5195C65.2386 67.7252 65.0465 67.8863 64.8207 67.9825C64.5949 68.0786 64.3457 68.1054 64.1046 68.0594C63.8636 68.0134 63.6417 67.8967 63.4671 67.7242C63.2925 67.5516 63.1731 67.331 63.1241 67.0903C63.075 66.8497 63.0986 66.5999 63.1918 66.3727C63.2849 66.1455 63.4435 65.9511 63.6473 65.8143C63.8511 65.6776 64.0909 65.6045 64.3363 65.6045C64.6617 65.6045 64.9741 65.7328 65.2056 65.9617C65.4372 66.1905 65.5694 66.5015 65.5735 66.8272Z" fill="white"/>
<path d="M77.3508 82.66C77.2144 82.657 77.0824 82.6116 76.973 82.5301C76.8636 82.4487 76.7821 82.3352 76.74 82.2054C75.5341 78.0356 76.9436 76.6091 78.3061 76.1545C79.1798 75.9682 80.0832 75.9712 80.9557 76.1632C81.8282 76.3551 82.6495 76.7317 83.3647 77.2675C83.4479 77.3053 83.522 77.3605 83.5822 77.4294C83.6424 77.4982 83.6872 77.5791 83.7136 77.6667C83.74 77.7542 83.7475 77.8464 83.7355 77.9371C83.7234 78.0278 83.6922 78.1148 83.6439 78.1925C83.5955 78.2701 83.5312 78.3365 83.4552 78.3873C83.3792 78.438 83.2932 78.4719 83.203 78.4868C83.1128 78.5016 83.0205 78.497 82.9323 78.4732C82.844 78.4495 82.7619 78.4072 82.6913 78.3491C82.134 77.9102 81.489 77.5963 80.8 77.4286C80.111 77.2609 79.394 77.2434 78.6976 77.3772C77.4447 77.7848 77.1315 79.2897 77.9146 81.8449C77.9636 82.007 77.9466 82.182 77.8675 82.3317C77.7883 82.4814 77.6532 82.5938 77.4917 82.6444L77.3508 82.66Z" fill="#C16B5B"/>
<path d="M105.478 54.2864C103.174 52.9038 100.601 52.0317 97.932 51.7288C95.2628 51.426 92.5598 51.6994 90.0051 52.5306C89.758 52.5766 89.5231 52.6733 89.3153 52.8147C89.1074 52.9562 88.9312 53.1393 88.7976 53.3524C88.6641 53.5655 88.5762 53.8041 88.5395 54.053C88.5028 54.3018 88.5181 54.5556 88.5844 54.7983C88.6507 55.041 88.7666 55.2672 88.9248 55.4627C89.0829 55.6583 89.2799 55.8188 89.5032 55.9342C89.7265 56.0497 89.9713 56.1175 90.2222 56.1333C90.473 56.1492 90.7244 56.1128 90.9605 56.0264C93.0483 55.3166 95.2662 55.0737 97.458 55.3147C99.6497 55.5558 101.762 56.275 103.646 57.4216C104.06 57.6367 104.54 57.6844 104.988 57.555C105.436 57.4256 105.816 57.1288 106.052 56.7262C106.287 56.3235 106.359 55.8457 106.252 55.3916C106.145 54.9375 105.868 54.5418 105.478 54.2864Z" fill="black"/>
<path d="M57.4613 54.2862C59.7672 52.9014 62.3433 52.0281 65.0153 51.7252C67.6874 51.4223 70.3933 51.6969 72.9503 52.5305C73.405 52.669 73.789 52.9777 74.0223 53.3922C74.2557 53.8068 74.3204 54.2954 74.2032 54.7565C74.0714 55.2169 73.7651 55.6074 73.3495 55.8447C72.934 56.0819 72.4422 56.1471 71.9793 56.0263C69.8937 55.3189 67.6786 55.0772 65.4898 55.3183C63.3009 55.5593 61.1914 56.2772 59.3093 57.4215C58.8939 57.6668 58.3982 57.7368 57.9312 57.6163C57.4643 57.4958 57.0642 57.1945 56.8192 56.7787C56.5741 56.363 56.5041 55.8668 56.6245 55.3994C56.7449 54.9319 57.0459 54.5315 57.4613 54.2862Z" fill="black"/>
<path d="M90.6317 87.9742C89.4258 86.1714 86.3562 88.1153 82.6602 88.4601C78.9641 88.805 75.5813 87.4412 74.7356 89.4321C73.6549 91.9559 77.398 97.6307 83.4432 97.0663C89.4885 96.502 92.1979 90.2472 90.6317 87.9742Z" fill="#8E4136"/>
<path d="M90.5218 91.9872C89.2838 91.9417 88.0442 91.9732 86.8101 92.0813C82.5032 92.4889 78.9012 93.6489 77.3037 95.2165C78.1544 95.9344 79.1399 96.4747 80.2023 96.8059C81.2646 97.137 82.3824 97.2522 83.4899 97.1447C85.0199 97.0068 86.4833 96.4537 87.7225 95.5448C88.9616 94.636 89.9295 93.406 90.5218 91.9872Z" fill="#C16B5B"/>
<path d="M82.895 90.5294C86.1995 90.2315 88.9245 89.1969 89.7859 87.3941C88.2198 86.9395 85.6827 88.2563 82.707 88.5385C79.7314 88.8207 76.9437 87.9742 75.5342 88.6953C76.7244 90.3412 79.6688 90.8429 82.895 90.5294Z" fill="white"/>
<path d="M136.472 85.5287C131.367 91.6267 123.317 93.2727 118.478 89.2283C113.638 85.1838 113.873 76.9382 118.979 70.8402C124.084 64.7422 132.134 63.0962 136.973 67.1563C141.813 71.2164 141.578 79.368 136.472 85.5287Z" fill="#FFB8AE"/>
<path d="M133.638 70.1349C132.422 69.5681 131.092 69.2876 129.751 69.3148C128.41 69.342 127.093 69.6761 125.901 70.2916C124.729 70.7784 123.707 71.5683 122.941 72.5803C122.516 73.1528 122.237 73.8203 122.128 74.525C122.019 75.2297 122.083 75.9504 122.315 76.6248C122.784 77.6339 123.514 78.4996 124.429 79.1329C124.987 79.5233 125.47 80.012 125.854 80.5752C126.081 80.9859 126.174 81.4578 126.118 81.924C126.063 82.3902 125.863 82.8274 125.547 83.1738C125.23 83.5201 124.813 83.7583 124.354 83.8546C123.895 83.9508 123.417 83.9004 122.988 83.7104C122.732 83.5981 122.443 83.592 122.183 83.6934C121.923 83.7949 121.714 83.9955 121.602 84.2512C121.49 84.5069 121.484 84.7967 121.585 85.0569C121.686 85.317 121.887 85.5263 122.142 85.6385C122.688 85.8873 123.281 86.0156 123.881 86.0148C124.63 86.0274 125.369 85.8397 126.022 85.471C126.674 85.1024 127.217 84.5662 127.594 83.9177C127.97 83.2691 128.167 82.5318 128.164 81.7816C128.161 81.0315 127.958 80.2958 127.577 79.6503C127.075 78.8787 126.439 78.2042 125.697 77.6594C125.042 77.248 124.503 76.676 124.131 75.9977C124.018 75.6296 123.995 75.2397 124.063 74.8607C124.131 74.4816 124.289 74.1244 124.523 73.8188C124.74 73.5324 124.993 73.2744 125.274 73.0506C126.321 73.0016 127.346 73.355 128.14 74.0382C128.493 74.4321 128.753 74.8996 128.902 75.4067C129.051 75.9138 129.085 76.4477 129.002 76.9697C128.961 77.2315 129.026 77.4987 129.181 77.7131C129.337 77.9275 129.571 78.0716 129.832 78.114H129.989C130.227 78.1132 130.457 78.0276 130.637 77.8725C130.818 77.7174 130.938 77.5029 130.975 77.2675C131.106 76.4486 131.052 75.6107 130.816 74.8157C130.58 74.0207 130.169 73.2889 129.613 72.6744C129.23 72.2023 128.756 71.813 128.219 71.5301C129.723 71.0567 131.351 71.1686 132.776 71.8436C133.612 72.2605 134.269 72.9673 134.623 73.8324C134.977 74.6975 135.006 75.662 134.703 76.5464C134.591 76.7876 134.579 77.0634 134.67 77.3132C134.761 77.5631 134.947 77.7665 135.188 77.8789C135.43 77.9868 135.704 77.9965 135.952 77.9058C136.2 77.8151 136.404 77.6311 136.519 77.3929C137.014 76.0401 136.993 74.5524 136.462 73.2137C135.93 71.875 134.925 70.779 133.638 70.1349Z" fill="#C16B5B"/>
<path d="M25.4966 85.5287C30.6021 91.6267 38.6677 93.2727 43.4914 89.2283C48.315 85.1838 48.1897 76.9382 43.0059 70.8402C37.822 64.7422 29.8347 63.0962 25.0111 67.1563C20.1874 71.2164 20.391 79.368 25.4966 85.5287Z" fill="#FFB8AE"/>
<path d="M28.3471 70.1349C29.5631 69.5681 30.8925 69.2876 32.2336 69.3148C33.5746 69.342 34.8917 69.6761 36.0837 70.2916C37.2556 70.7784 38.2772 71.5683 39.0437 72.5803C39.4649 73.1546 39.7417 73.822 39.8507 74.5259C39.9598 75.2299 39.8978 75.9498 39.6702 76.6248C39.2026 77.64 38.466 78.5075 37.5402 79.1329C36.9901 79.5331 36.5088 80.0202 36.1151 80.5752C35.8846 80.9874 35.7901 81.4619 35.8451 81.9311C35.9001 82.4002 36.1017 82.84 36.4212 83.1876C36.7408 83.5353 37.1618 83.773 37.6243 83.8669C38.0869 83.9607 38.5672 83.906 38.9967 83.7104C39.2522 83.5981 39.5417 83.592 39.8017 83.6935C40.0616 83.7949 40.2706 83.9955 40.3828 84.2512C40.4949 84.5069 40.501 84.7967 40.3997 85.0569C40.2983 85.317 40.0979 85.5263 39.8424 85.6385C39.2966 85.8873 38.7038 86.0156 38.104 86.0148C37.3553 86.0252 36.6172 85.8365 35.9652 85.4678C35.3132 85.0991 34.7707 84.5637 34.3932 83.9164C34.0156 83.2691 33.8166 82.533 33.8165 81.7834C33.8163 81.0339 34.0151 80.2977 34.3923 79.6503C34.8992 78.878 35.5412 78.2035 36.2873 77.6594C36.9422 77.248 37.4812 76.676 37.8535 75.9977C37.9695 75.6121 37.9873 75.2035 37.9052 74.8093C37.8231 74.415 37.6438 74.0476 37.3836 73.7404C37.156 73.4576 36.8987 73.2001 36.6162 72.9722C35.5751 72.9257 34.5555 73.279 33.7659 73.9598C33.4148 74.3548 33.1543 74.8218 33.0028 75.3283C32.8513 75.8347 32.8124 76.3682 32.8889 76.8913C32.9113 77.02 32.9079 77.1519 32.879 77.2794C32.8501 77.4068 32.7962 77.5273 32.7204 77.6337C32.6447 77.7401 32.5486 77.8305 32.4377 77.8995C32.3268 77.9685 32.2034 78.0147 32.0745 78.0356H31.9022C31.6668 78.0312 31.4405 77.9439 31.2629 77.7891C31.0854 77.6343 30.9679 77.4219 30.9312 77.1891C30.7965 76.3702 30.8491 75.5314 31.0851 74.7358C31.3211 73.9402 31.7344 73.2086 32.2937 72.596C32.7175 72.1612 33.2232 71.8149 33.7815 71.5771C32.2819 71.1078 30.6609 71.2197 29.2398 71.8906C28.4008 72.3049 27.7412 73.0105 27.3838 73.8759C27.0265 74.7412 26.9959 75.7072 27.2978 76.5934C27.3733 76.7137 27.4225 76.8487 27.442 76.9894C27.4615 77.1301 27.4509 77.2734 27.4109 77.4097C27.371 77.546 27.3026 77.6723 27.2102 77.7802C27.1178 77.888 27.0036 77.975 26.8752 78.0354C26.7467 78.0958 26.6069 78.1282 26.465 78.1304C26.3231 78.1327 26.1823 78.1047 26.052 78.0484C25.9217 77.9921 25.8048 77.9088 25.7091 77.8039C25.6133 77.699 25.541 77.5749 25.4967 77.4399C24.9831 76.0852 24.9903 74.5879 25.517 73.2382C26.0436 71.8885 27.0522 70.7826 28.3471 70.1349Z" fill="#C16B5B"/>
<path d="M107.452 107.491L81.0002 109.153L54.5327 107.585C63.2404 112.946 62.6296 130.331 62.6296 130.331C66.9521 135.034 81.0002 135.034 81.0002 135.034C81.0002 135.034 95.0954 135.034 99.3552 130.331C99.3552 130.237 98.7601 112.852 107.452 107.491Z" fill="#FFB8AE"/>
</g>
</g>
<defs>
<clipPath id="clip0_143_69">
<rect width="162" height="187" fill="white"/>
</clipPath>
</defs>
</svg>
