<svg width="162" height="199" viewBox="0 0 162 199" fill="none" xmlns="http://www.w3.org/2000/svg">
<g clip-path="url(#clip0_143_7)">
<path d="M145.756 55.9281C156.055 43.7517 152.012 23.3058 136.725 10.2611C121.439 -2.7837 100.698 -3.48759 90.3993 8.68888C80.1007 20.8653 84.144 41.3112 99.4304 54.356C114.717 67.4007 135.458 68.1046 145.756 55.9281Z" fill="#89496B"/>
<path d="M128.068 49.0296C133.96 42.5622 132.156 31.2715 124.039 23.8111C115.922 16.3506 104.566 15.5455 98.6745 22.0129C92.7829 28.4802 94.5868 39.7709 102.704 47.2314C110.82 54.6918 122.176 55.4969 128.068 49.0296Z" fill="#E57067"/>
<path d="M55.4251 25.0285C44.9477 25.2959 35.6762 33.193 31.573 42.8834C27.4697 52.5738 27.9552 63.6644 30.4454 73.9368C32.507 83.1064 36.6622 91.6693 42.5828 98.9495C48.5546 106.221 56.8608 111.177 66.0747 112.966C74.9866 114.638 84.1231 114.707 93.0591 113.171C102.328 111.627 110.904 107.268 117.632 100.68C125.666 92.484 129.738 81.0316 131.1 69.6265C132.214 61.4684 131.639 53.1671 129.409 45.2431C127.583 39.1246 124.551 33.4374 120.493 28.5202C116.434 23.603 111.432 19.5562 105.785 16.6207C100.137 13.6852 93.959 11.921 87.6187 11.4331C81.2783 10.9452 74.905 11.7435 68.8781 13.7806C63.227 15.8426 58.4692 19.8205 55.4251 25.0285Z" fill="#89496B"/>
<mask id="mask0_143_7" style="mask-type:luminance" maskUnits="userSpaceOnUse" x="-17" y="6" width="194" height="195">
<path d="M173.976 124.44C185.606 72.2207 152.89 20.4184 100.903 8.73642C48.9157 -2.94556 -2.6562 29.9165 -14.2862 82.1358C-25.9162 134.355 6.79963 186.157 58.7867 197.839C110.774 209.521 162.346 176.659 173.976 124.44Z" fill="white"/>
</mask>
<g mask="url(#mask0_143_7)">
<path d="M161.922 199H0C0 199 1.47216 177.763 6.87529 168.324C7.8353 166.82 9.02437 165.477 10.3991 164.344C11.3387 163.526 12.4194 162.661 13.6253 161.78C14.377 161.245 15.1914 160.679 16.0215 160.207C27.9205 152.79 40.8976 147.281 54.4855 143.878C63.1363 141.58 72.0367 140.364 80.9843 140.26C88.9397 140.334 96.8617 141.305 104.602 143.154C117.638 146.183 130.182 151.05 141.86 157.611C142.721 158.099 143.535 158.587 144.334 159.074C146.182 160.238 147.874 161.387 149.314 162.488C151.578 164.058 153.537 166.03 155.093 168.308C160.497 177.763 161.922 199 161.922 199Z" fill="#FFCB99"/>
<path d="M72.6525 191.669C74.724 192.621 76.5191 194.088 77.8677 195.932C78.134 196.31 78.7604 195.932 78.4942 195.571C77.0854 193.616 75.1971 192.06 73.0128 191.056C72.6056 190.851 72.2454 191.481 72.6525 191.669Z" fill="#F2B583"/>
<path d="M82.7854 195.445C83.857 193.54 85.5019 192.026 87.4838 191.119C87.9066 190.914 87.4838 190.301 87.1235 190.489C85.0312 191.454 83.2942 193.056 82.1589 195.067C82.1112 195.151 82.0984 195.25 82.1233 195.343C82.1483 195.436 82.209 195.515 82.292 195.563C82.3751 195.611 82.4738 195.624 82.5663 195.599C82.6588 195.573 82.7376 195.513 82.7854 195.429V195.445Z" fill="#F2B583"/>
<path d="M35.5512 199H32.6382C32.4816 198.151 32.2937 197.301 32.0901 196.452C28.9958 183.517 22.6427 171.6 13.6411 161.843C14.3929 161.308 15.2072 160.742 16.0373 160.27C18.137 162.577 20.1031 165.004 21.9259 167.538C28.6732 176.915 33.3212 187.648 35.5512 199Z" fill="#F2B583"/>
<path d="M144.334 159.09C143.332 161.497 142.408 163.951 141.562 166.421C138.006 176.938 135.939 187.905 135.423 199H132.541C132.541 197.537 132.698 196.074 132.807 194.627C133.869 181.892 136.924 169.406 141.859 157.627C142.721 158.115 143.535 158.602 144.334 159.09Z" fill="#F2B583"/>
<path d="M26.3736 199H0C0 199 1.47216 177.763 6.87529 168.324C7.8353 166.821 9.02437 165.478 10.3991 164.344C14.8782 168.749 18.2297 175.136 20.8138 180.658C23.4975 186.486 25.3684 192.658 26.3736 199Z" fill="#FFB8AE"/>
<path d="M161.922 199H142.517C140.826 186.408 143.238 173.604 149.393 162.504C151.656 164.074 153.615 166.046 155.172 168.324C160.497 177.763 161.922 199 161.922 199Z" fill="#FFB8AE"/>
<path d="M104.602 143.154C103.59 146.301 102.333 149.362 100.843 152.31C98.3571 157.396 94.5128 161.688 89.7392 164.706C87.3431 166.189 84.641 167.102 81.8396 167.375C79.0382 167.647 76.2118 167.273 73.5768 166.279C70.4716 164.777 67.7176 162.633 65.4956 159.987C61.0334 155.19 57.3356 149.73 54.5327 143.799C63.1835 141.501 72.0839 140.286 81.0316 140.181C88.9742 140.285 96.8802 141.282 104.602 143.154Z" fill="#FFB8AE"/>
<path d="M114.938 42.1283C108 31.3052 94.5784 27.6713 81.0001 27.6713C67.4218 27.6713 54.0001 31.3052 46.9839 42.1283C32.7478 64.0576 38.6208 107.287 57.3203 121.728C64.196 126.738 72.5072 129.367 81.0001 129.216C89.4878 129.363 97.793 126.735 104.664 121.728C123.364 107.287 129.237 64.0576 114.938 42.1283Z" fill="#FFB8AE"/>
<path d="M127.561 59.6214C127.062 51.7659 124.249 44.2367 119.48 37.991C114.372 31.8459 107.547 27.3801 99.8874 25.17C92.2576 22.9929 84.3017 22.2044 76.3955 22.8418C66.2783 23.4553 55.8166 25.8465 48.2052 32.4693C41.095 38.5888 37.1327 47.7758 35.8015 57.0729C34.7482 66.4181 35.1977 75.8727 37.1327 85.0745C43.9357 74.2027 48.1532 61.9026 49.4581 49.1287C61.0052 49.8413 72.5286 47.3948 82.8009 42.0496C90.9761 49.9088 101.884 54.2497 113.199 54.1469C114.891 64.7273 118.991 74.7728 125.18 83.5014C125.306 82.762 125.509 81.9283 125.634 81.2204C126.872 73.5593 128.172 67.4084 127.561 59.6214Z" fill="#89496B"/>
<path d="M100.31 79.7417C100.31 80.5617 100.068 81.3634 99.6155 82.0457C99.1625 82.7279 98.5186 83.2602 97.765 83.5755C97.0113 83.8907 96.1816 83.9748 95.3804 83.8171C94.5793 83.6593 93.8425 83.2669 93.2631 82.6893C92.6836 82.1116 92.2874 81.3745 92.1243 80.571C91.9613 79.7675 92.0387 78.9334 92.3468 78.174C92.655 77.4146 93.18 76.7639 93.8558 76.3038C94.5316 75.8437 95.3279 75.5948 96.1443 75.5886C96.6899 75.5845 97.2309 75.6888 97.7361 75.8957C98.2414 76.1025 98.7009 76.4078 99.0881 76.7938C99.4754 77.1799 99.7827 77.6391 99.9925 78.1451C100.202 78.651 100.31 79.1936 100.31 79.7417Z" fill="black"/>
<path d="M94.6254 79.5843C95.3087 79.5843 95.8627 79.0279 95.8627 78.3415C95.8627 77.6552 95.3087 77.0988 94.6254 77.0988C93.9421 77.0988 93.3882 77.6552 93.3882 78.3415C93.3882 79.0279 93.9421 79.5843 94.6254 79.5843Z" fill="white"/>
<path d="M69.943 79.7417C69.943 80.5631 69.7005 81.366 69.2462 82.049C68.7919 82.7319 68.1461 83.2642 67.3906 83.5786C66.6351 83.8929 65.8038 83.9752 65.0018 83.8149C64.1998 83.6547 63.463 83.2591 62.8848 82.6783C62.3066 82.0975 61.9128 81.3575 61.7533 80.5519C61.5937 79.7463 61.6756 78.9112 61.9886 78.1524C62.3015 77.3935 62.8314 76.7449 63.5114 76.2885C64.1913 75.8322 64.9907 75.5886 65.8084 75.5886C66.905 75.5886 67.9566 76.0262 68.732 76.805C69.5074 77.5839 69.943 78.6402 69.943 79.7417Z" fill="black"/>
<path d="M65.4954 78.3415C65.4985 78.588 65.4286 78.8298 65.2945 79.0362C65.1605 79.2426 64.9683 79.4044 64.7426 79.5009C64.5168 79.5973 64.2675 79.6242 64.0265 79.578C63.7855 79.5319 63.5636 79.4148 63.389 79.2416C63.2144 79.0685 63.095 78.8471 63.0459 78.6056C62.9969 78.3641 63.0205 78.1134 63.1137 77.8854C63.2068 77.6574 63.3654 77.4624 63.5692 77.3251C63.773 77.1878 64.0128 77.1145 64.2581 77.1145C64.5836 77.1145 64.8959 77.2433 65.1275 77.4729C65.3591 77.7026 65.4913 78.0147 65.4954 78.3415Z" fill="white"/>
<path d="M77.3508 94.293C77.2138 94.2923 77.0807 94.2477 76.9708 94.1656C76.8609 94.0836 76.7801 93.9683 76.74 93.8368C75.5341 89.6523 76.9436 88.2208 78.3061 87.7646C79.1798 87.5777 80.0832 87.5807 80.9557 87.7733C81.8282 87.9659 82.6495 88.3438 83.3647 88.8815C83.4479 88.9195 83.522 88.9749 83.5822 89.044C83.6424 89.113 83.6872 89.1942 83.7136 89.2821C83.74 89.37 83.7475 89.4625 83.7355 89.5535C83.7234 89.6445 83.6922 89.7318 83.6439 89.8098C83.5956 89.8877 83.5312 89.9543 83.4552 90.0052C83.3792 90.0562 83.2932 90.0902 83.203 90.1051C83.1128 90.12 83.0205 90.1153 82.9323 90.0915C82.844 90.0677 82.7619 90.0252 82.6913 89.9669C82.134 89.5265 81.489 89.2114 80.8 89.0432C80.111 88.8749 79.394 88.8573 78.6976 88.9916C77.4447 89.4006 77.1315 90.9108 77.9146 93.475C77.9385 93.5566 77.9462 93.6421 77.9371 93.7267C77.928 93.8113 77.9023 93.8932 77.8615 93.9678C77.8208 94.0424 77.7657 94.1081 77.6996 94.1612C77.6334 94.2143 77.5575 94.2538 77.4761 94.2773L77.3508 94.293Z" fill="#C16B5B"/>
<path d="M105.541 65.7566C103.237 64.3692 100.664 63.494 97.9949 63.1901C95.3257 62.8862 92.6227 63.1605 90.068 63.9947C89.6401 64.1518 89.2865 64.4647 89.0775 64.8713C88.8685 65.278 88.8192 65.7486 88.9394 66.1901C89.0596 66.6315 89.3405 67.0114 89.7265 67.2546C90.1125 67.4977 90.5754 67.5863 91.0233 67.5028C93.1111 66.7905 95.329 66.5467 97.5208 66.7886C99.7126 67.0305 101.825 67.7522 103.709 68.9028C104.122 69.1187 104.603 69.1666 105.051 69.0367C105.498 68.9069 105.879 68.6091 106.115 68.205C106.35 67.8009 106.422 67.3214 106.315 66.8657C106.208 66.41 105.931 66.0129 105.541 65.7566Z" fill="#89496B"/>
<path d="M57.4612 65.7566C59.7651 64.3692 62.3384 63.494 65.0076 63.1901C67.6768 62.8862 70.3798 63.1605 72.9345 63.9947C73.1816 64.0408 73.4165 64.1379 73.6243 64.2798C73.8322 64.4218 74.0084 64.6055 74.142 64.8194C74.2755 65.0332 74.3634 65.2726 74.4001 65.5224C74.4368 65.7721 74.4215 66.0268 74.3552 66.2703C74.2889 66.5139 74.173 66.7409 74.0148 66.9371C73.8567 67.1333 73.6597 67.2944 73.4364 67.4103C73.2131 67.5261 72.9683 67.5941 72.7174 67.61C72.4666 67.626 72.2152 67.5894 71.9791 67.5028C69.8913 66.7905 67.6734 66.5467 65.4816 66.7886C63.2899 67.0305 61.1776 67.7522 59.2935 68.9028C58.88 69.1187 58.3996 69.1666 57.9518 69.0367C57.5041 68.9069 57.1231 68.6091 56.8878 68.205C56.6524 67.8009 56.5807 67.3214 56.6874 66.8657C56.7942 66.41 57.0712 66.0129 57.4612 65.7566Z" fill="#89496B"/>
<path d="M90.6788 99.6259C89.4729 97.8168 86.4033 99.7675 82.7072 100.114C79.0112 100.46 75.6283 99.091 74.767 101.089C73.702 103.622 77.4294 109.316 83.4903 108.75C89.5512 108.184 92.1979 101.907 90.6788 99.6259Z" fill="#8E4136"/>
<path d="M90.522 103.653C89.2615 103.631 88.0009 103.689 86.7476 103.826C82.4408 104.235 78.8387 105.399 77.2256 106.972C78.2395 107.82 79.4359 108.419 80.7201 108.723C82.0043 109.026 83.3411 109.025 84.6248 108.72C85.9086 108.414 87.104 107.813 88.1167 106.964C89.1293 106.115 89.9313 105.041 90.4594 103.826L90.522 103.653Z" fill="#C16B5B"/>
<path d="M82.895 102.253C86.1995 101.954 88.9246 100.916 89.7859 99.1068C88.2198 98.6505 85.6827 99.972 82.707 100.255C79.7314 100.538 76.928 99.6888 75.5342 100.412C76.7244 101.97 79.5904 102.505 82.895 102.253Z" fill="white"/>
<path d="M136.472 97.1718C131.367 103.291 123.317 104.943 118.478 100.884C113.638 96.8257 113.873 88.5511 118.979 82.4317C124.084 76.3122 132.134 74.6604 136.973 78.7348C141.813 82.8092 141.562 91.0524 136.472 97.1718Z" fill="#FFB8AE"/>
<path d="M133.637 81.8024C132.421 81.2337 131.092 80.9522 129.751 80.9795C128.41 81.0067 127.093 81.3421 125.901 81.9598C124.729 82.4483 123.707 83.2409 122.941 84.2565C122.516 84.831 122.237 85.5008 122.128 86.208C122.019 86.9152 122.083 87.6384 122.314 88.3152C122.776 89.3329 123.507 90.2036 124.428 90.8322C124.987 91.2239 125.47 91.7143 125.854 92.2794C126.084 92.6931 126.179 93.1693 126.124 93.6401C126.069 94.1109 125.867 94.5523 125.547 94.9011C125.228 95.25 124.807 95.4885 124.344 95.5827C123.882 95.6769 123.402 95.622 122.972 95.4257C122.736 95.3408 122.476 95.3482 122.245 95.4462C122.014 95.5443 121.827 95.726 121.723 95.9554C121.619 96.1847 121.604 96.445 121.681 96.6849C121.759 96.9247 121.923 97.1265 122.142 97.2505C122.688 97.5001 123.281 97.6289 123.88 97.6281C124.63 97.6407 125.369 97.4524 126.021 97.0824C126.674 96.7125 127.217 96.1744 127.593 95.5236C127.97 94.8728 128.167 94.1328 128.164 93.3801C128.161 92.6273 127.958 91.8889 127.576 91.2412C127.075 90.4669 126.438 89.79 125.697 89.2433C125.045 88.8208 124.507 88.2425 124.131 87.5601C124.025 87.1914 124.007 86.803 124.078 86.426C124.148 86.049 124.306 85.6939 124.538 85.3892C124.756 85.1018 125.008 84.8429 125.29 84.6183C126.336 84.5708 127.361 84.9251 128.156 85.6094C128.504 85.998 128.763 86.4586 128.915 86.9588C129.066 87.4589 129.107 87.9864 129.033 88.5039C128.992 88.7667 129.057 89.0349 129.212 89.25C129.368 89.4652 129.602 89.6098 129.863 89.6523H130.02C130.258 89.6515 130.488 89.5656 130.668 89.4099C130.849 89.2543 130.969 89.0391 131.006 88.8028C131.137 87.9811 131.083 87.1402 130.847 86.3424C130.611 85.5446 130.2 84.8102 129.644 84.1936C129.195 83.7509 128.662 83.4032 128.078 83.1711C129.577 82.7001 131.198 82.8124 132.619 83.4857C133.458 83.9014 134.118 84.6096 134.475 85.478C134.833 86.3463 134.863 87.3157 134.561 88.2051C134.449 88.4471 134.437 88.7238 134.528 88.9746C134.62 89.2253 134.806 89.4295 135.047 89.5422C135.288 89.6505 135.562 89.6602 135.811 89.5692C136.059 89.4782 136.263 89.2936 136.378 89.0545C136.874 87.7175 136.87 86.2447 136.366 84.9105C135.862 83.5764 134.892 82.4718 133.637 81.8024Z" fill="#C16B5B"/>
<path d="M25.4966 97.1718C30.6021 103.291 38.6677 104.943 43.4914 100.884C48.315 96.8257 48.1114 88.5511 43.0059 82.4317C37.9003 76.3122 29.8347 74.6604 25.0111 78.7348C20.1874 82.8092 20.391 91.0524 25.4966 97.1718Z" fill="#FFB8AE"/>
<path d="M28.3311 81.8024C29.55 81.2346 30.8819 80.9537 32.2253 80.9809C33.5687 81.0082 34.8882 81.343 36.0834 81.9597C37.2527 82.4528 38.2731 83.2446 39.0434 84.2565C39.4645 84.8328 39.7413 85.5025 39.8504 86.2089C39.9594 86.9154 39.8975 87.6378 39.6698 88.3151C39.1957 89.3297 38.4603 90.1986 37.5399 90.8321C36.9851 91.2282 36.5029 91.7179 36.1147 92.2794C35.8885 92.6992 35.7943 93.178 35.8446 93.6527C35.895 94.1273 36.0874 94.5755 36.3966 94.938C36.7251 95.2811 37.1505 95.5148 37.6153 95.6077C38.0802 95.7005 38.5622 95.6479 38.9964 95.4571C39.1138 95.3494 39.2551 95.2714 39.4085 95.2293C39.5619 95.1873 39.7231 95.1826 39.8787 95.2155C40.0343 95.2484 40.1799 95.3181 40.3034 95.4187C40.4269 95.5193 40.5248 95.648 40.5891 95.7941C40.6533 95.9402 40.682 96.0996 40.6728 96.2591C40.6635 96.4185 40.6167 96.5735 40.536 96.7112C40.4554 96.8489 40.3433 96.9653 40.209 97.0509C40.0748 97.1364 39.9221 97.1887 39.7638 97.2033C39.224 97.4545 38.6359 97.5834 38.041 97.5808C37.3045 97.5754 36.582 97.3769 35.9454 97.0048C35.3087 96.6327 34.7798 96.1 34.4111 95.4595C34.0424 94.8189 33.8467 94.0928 33.8433 93.3529C33.84 92.613 34.0291 91.885 34.392 91.2411C34.8989 90.4661 35.5408 89.7893 36.287 89.2433C36.9461 88.8288 37.4859 88.2486 37.8531 87.56C37.9662 87.1932 37.9897 86.8044 37.9215 86.4265C37.8533 86.0486 37.6956 85.6928 37.4616 85.3891C37.2339 85.1054 36.9767 84.847 36.6942 84.6183C35.653 84.5716 34.6334 84.9261 33.8438 85.6094C33.4899 86.0039 33.2277 86.4725 33.076 86.9812C32.9244 87.4899 32.8871 88.0261 32.9668 88.5511C33.0078 88.8115 32.9454 89.0777 32.7931 89.2924C32.6409 89.5071 32.4108 89.6533 32.1524 89.6995H31.9331C31.6977 89.695 31.4714 89.6074 31.2939 89.4521C31.1163 89.2968 30.9989 89.0836 30.9621 88.85C30.8274 88.0282 30.88 87.1865 31.116 86.3881C31.3521 85.5897 31.7653 84.8555 32.3247 84.2407C32.7714 83.7957 33.3045 83.4476 33.8908 83.2182C32.3912 82.7473 30.7701 82.8596 29.349 83.5328C28.5101 83.9486 27.8504 84.6567 27.4931 85.5251C27.1357 86.3935 27.1052 87.3628 27.407 88.2522C27.4826 88.3729 27.5317 88.5084 27.5512 88.6496C27.5707 88.7908 27.5601 88.9346 27.5202 89.0714C27.4802 89.2082 27.4118 89.3349 27.3195 89.4431C27.2271 89.5514 27.1129 89.6387 26.9844 89.6993C26.856 89.7599 26.7161 89.7924 26.5742 89.7946C26.4323 89.7969 26.2915 89.7688 26.1612 89.7123C26.0309 89.6558 25.914 89.5722 25.8183 89.4669C25.7226 89.3617 25.6502 89.2372 25.606 89.1017C25.0882 87.7612 25.0798 86.2762 25.5824 84.9299C26.085 83.5836 27.0634 82.4703 28.3311 81.8024Z" fill="#C16B5B"/>
<path d="M107.452 119.211L81.0002 120.784L54.5327 119.211C63.256 124.591 62.6296 142.037 62.6296 142.037C66.9521 146.757 81.0002 146.757 81.0002 146.757C81.0002 146.757 95.0954 146.757 99.3552 142.037C99.3552 142.037 98.7444 124.591 107.452 119.211Z" fill="#FFB8AE"/>
</g>
</g>
<defs>
<clipPath id="clip0_143_7">
<rect width="162" height="199" fill="white"/>
</clipPath>
</defs>
</svg>
