<svg width="162" height="192" viewBox="0 0 162 192" fill="none" xmlns="http://www.w3.org/2000/svg">
<g clip-path="url(#clip0_143_42)">
<mask id="mask0_143_42" style="mask-type:luminance" maskUnits="userSpaceOnUse" x="-21" y="-8" width="201" height="202">
<path d="M150.496 163.839C189.545 124.722 189.545 61.3004 150.496 22.1832C111.447 -16.9339 48.1362 -16.9339 9.0872 22.1832C-29.9618 61.3004 -29.9618 124.722 9.0872 163.839C48.1362 202.956 111.447 202.956 150.496 163.839Z" fill="white"/>
</mask>
<g mask="url(#mask0_143_42)">
<path d="M87.2887 10.9831C86.2906 10.7684 85.3113 10.4746 84.3597 10.1044C80.3031 8.53542 76.9042 4.84824 73.1765 2.683C68.368 -0.0627665 61.9306 -1.36505 57.5137 2.02402C53.0968 5.41309 52.6583 11.7519 48.8366 15.5646C43.3859 20.9777 32.5943 20.0363 29.5087 27.0811C27.5039 31.647 30.1665 36.7933 30.6678 41.7671C31.4666 49.8004 26.4388 57.2532 20.7532 62.9644C17.3701 66.3692 13.611 69.5229 11.2146 73.6808C8.81819 77.8387 8.08204 83.4087 10.9013 87.2841C13.7206 91.1596 19.7508 92.5717 21.8653 97.0277C24.8882 103.21 18.6074 110.945 21.3641 117.252C23.6978 122.634 31.075 123.528 36.7449 122.053C42.4148 120.579 48.0847 117.629 53.8956 118.366C58.5945 118.915 62.7921 121.865 66.9584 124.266C71.1247 126.666 76.1211 128.628 80.679 127.059C85.2368 125.49 88.0091 120.908 92.2851 118.821C98.5502 115.777 105.896 118.821 112.365 121.332C118.833 123.842 126.9 125.788 132.194 121.332C136.376 117.723 137.222 111.18 141.591 107.823C145.961 104.465 152.336 105.296 156.346 101.719C160.355 98.1417 160.214 91.7558 157.912 87.0017C155.61 82.2476 151.522 78.6075 148.076 74.5908C144.63 70.5742 141.591 65.6318 142.03 60.3442C142.343 56.7041 144.27 52.9698 142.907 49.5808C141.544 46.1917 137.864 44.9522 135.076 43.3047C133.423 42.3923 131.987 41.1314 130.867 39.609C129.748 38.0866 128.971 36.3391 128.591 34.4869C128.359 32.5796 127.874 30.7118 127.15 28.9326C125.832 26.6274 123.66 24.936 121.105 24.2255C118.964 23.5421 116.74 23.1567 114.495 23.0802C113.931 23.0802 110.376 22.986 110.313 23.5509C110.406 21.826 110.015 20.1095 109.184 18.5955C108.354 17.0816 107.117 15.8306 105.614 14.9841C102.598 13.3313 99.2561 12.3619 95.8249 12.1441C93.2248 11.799 90.1236 11.6734 87.2887 10.9831Z" fill="#3D2614"/>
<path d="M162 192H0C0 192 1.4723 170.771 6.89162 161.404C10.0242 155.96 23.7917 147.393 41.0051 141.164C53.4257 136.677 67.6318 133.413 80.9922 133.413C93.8109 133.679 106.503 136.01 118.583 140.317C136.924 146.593 151.835 155.709 155.14 161.404C160.512 170.771 162 192 162 192Z" fill="#FF8877"/>
<path d="M111.926 180.985C109.623 183.961 106.315 185.992 102.623 186.697C102.168 186.697 102.372 187.465 102.826 187.387C106.692 186.632 110.148 184.483 112.537 181.346C112.819 180.97 112.208 180.609 111.926 180.985Z" fill="#E57067"/>
<path d="M110.062 179.024C105.984 182.603 100.76 184.596 95.3392 184.641C95.2437 184.641 95.1521 184.679 95.0845 184.747C95.017 184.815 94.979 184.907 94.979 185.002C94.979 185.098 95.017 185.19 95.0845 185.257C95.1521 185.325 95.2437 185.363 95.3392 185.363C100.95 185.321 106.358 183.261 110.579 179.558C110.924 179.26 110.407 178.742 110.062 179.056V179.024Z" fill="#E57067"/>
<path d="M118.551 140.332C108.697 153.661 94.5309 163.149 78.4702 167.178C64.0562 161.687 51.1963 152.758 41.0049 141.164C53.4255 136.677 67.6316 133.413 80.9919 133.413C93.801 133.688 106.483 136.024 118.551 140.332Z" fill="#754623"/>
<path d="M115.012 35.5381C107.995 24.7433 94.5719 21.0875 80.9923 21.0875C67.4127 21.0875 53.9897 24.7433 46.9885 35.5381C32.751 57.4101 38.6245 100.527 57.3102 114.93C64.1865 119.927 72.4986 122.548 80.9923 122.399C89.4861 122.548 97.7981 119.927 104.674 114.93C123.376 100.527 129.249 57.4101 115.012 35.5381Z" fill="#754623"/>
<path d="M92.2068 32.0706C88.7453 31.0978 84.7043 30.0936 81.838 32.2588C78.6115 34.6751 78.7055 39.7116 76.0428 42.7241C73.803 45.2032 70.091 45.7367 66.7704 45.3915C63.4499 45.0463 60.1921 43.9637 56.8559 43.8225C53.5198 43.6812 49.8077 44.9051 48.2101 47.8548C46.3932 51.2125 47.9438 55.3076 48.0848 59.1203C48.1275 62.6747 46.9494 66.1358 44.7481 68.9237C42.5467 71.7116 39.4558 73.657 35.9931 74.4339C34.1919 64.2039 32.4063 53.519 35.4293 43.5871C39.3136 30.7526 51.139 21.1973 64.1548 17.9494C77.1705 14.7016 91.1417 17.2591 103.312 22.8134C110.611 26.1554 117.8 30.9722 120.76 38.3466C123.015 43.995 122.546 50.5692 125.365 55.9666C126.743 58.5869 128.826 60.7835 130.189 63.388C131.523 65.9994 132.128 68.9232 131.941 71.8506C131.753 74.778 130.78 77.6004 129.124 80.0196C126.416 79.535 123.783 78.6963 121.293 77.5248C118.757 76.3182 116.799 74.159 115.842 71.5155C114.855 68.2677 116.03 64.8001 116.938 61.5209C117.847 58.2417 118.411 54.4447 116.437 51.6832C114.73 49.2669 111.644 48.3726 108.919 47.2429C106.194 46.1132 103.296 44.1049 103.139 41.1394C103.139 39.5704 104.017 38.2054 104.361 36.7148C104.535 34.7815 104.403 32.8329 103.97 30.9409C100.289 33.3885 96.2008 33.1532 92.2068 32.0706Z" fill="#3D2614"/>
<path d="M100.398 73.0532C100.398 73.8724 100.156 74.6733 99.7015 75.3545C99.2471 76.0357 98.6013 76.5666 97.8458 76.8801C97.0902 77.1936 96.2588 77.2756 95.4567 77.1158C94.6546 76.956 93.9178 76.5615 93.3395 75.9822C92.7612 75.4029 92.3674 74.6648 92.2079 73.8613C92.0483 73.0578 92.1302 72.2249 92.4432 71.4681C92.7561 70.7112 93.2861 70.0642 93.9661 69.6091C94.6461 69.1539 95.4456 68.911 96.2634 68.911C97.3601 68.911 98.4118 69.3474 99.1873 70.1242C99.9627 70.901 100.398 71.9546 100.398 73.0532Z" fill="black"/>
<path d="M94.6343 72.8963C95.3177 72.8963 95.8717 72.3413 95.8717 71.6568C95.8717 70.9722 95.3177 70.4172 94.6343 70.4172C93.951 70.4172 93.397 70.9722 93.397 71.6568C93.397 72.3413 93.951 72.8963 94.6343 72.8963Z" fill="white"/>
<path d="M69.9501 73.0532C69.9501 73.8724 69.7076 74.6733 69.2532 75.3545C68.7989 76.0357 68.1531 76.5666 67.3975 76.8801C66.642 77.1936 65.8106 77.2756 65.0085 77.1158C64.2063 76.956 63.4696 76.5615 62.8913 75.9822C62.313 75.4029 61.9192 74.6648 61.7596 73.8613C61.6001 73.0578 61.682 72.2249 61.9949 71.4681C62.3079 70.7112 62.8379 70.0642 63.5179 69.6091C64.1979 69.1539 64.9973 68.911 65.8151 68.911C66.9118 68.911 67.9636 69.3474 68.739 70.1242C69.5145 70.901 69.9501 71.9546 69.9501 73.0532Z" fill="black"/>
<path d="M65.5015 71.6568C65.5046 71.9026 65.4347 72.1438 65.3006 72.3497C65.1665 72.5556 64.9744 72.7169 64.7486 72.8131C64.5228 72.9093 64.2735 72.9361 64.0325 72.8901C63.7914 72.844 63.5695 72.7272 63.3949 72.5545C63.2202 72.3818 63.1008 72.161 63.0518 71.9201C63.0028 71.6793 63.0263 71.4293 63.1195 71.2019C63.2127 70.9744 63.3713 70.7799 63.5751 70.643C63.7789 70.5061 64.0187 70.433 64.2641 70.433C64.5896 70.433 64.902 70.5614 65.1336 70.7905C65.3652 71.0195 65.4974 71.3308 65.5015 71.6568Z" fill="white"/>
<path d="M77.3582 87.5665C77.2212 87.5658 77.0881 87.5213 76.9782 87.4394C76.8683 87.3576 76.7874 87.2427 76.7473 87.1115C75.5413 82.9379 76.951 81.5101 78.3136 81.0551C79.1874 80.8687 80.0909 80.8717 80.9635 81.0638C81.836 81.256 82.6575 81.6328 83.3727 82.1691C83.4559 82.207 83.5301 82.2622 83.5902 82.3311C83.6504 82.4 83.6952 82.481 83.7216 82.5687C83.7481 82.6563 83.7555 82.7486 83.7435 82.8393C83.7315 82.9301 83.7003 83.0172 83.6519 83.0949C83.6036 83.1726 83.5392 83.2391 83.4632 83.2899C83.3872 83.3407 83.3012 83.3747 83.211 83.3895C83.1208 83.4043 83.0285 83.3997 82.9403 83.376C82.852 83.3522 82.7698 83.3098 82.6992 83.2517C82.1475 82.8189 81.5104 82.5084 80.83 82.3407C80.1496 82.173 79.4413 82.1519 78.7522 82.2789C77.4835 82.6869 77.1859 84.1931 77.969 86.7506C77.993 86.832 78.0006 86.9173 77.9915 87.0017C77.9824 87.086 77.9568 87.1678 77.916 87.2421C77.8752 87.3165 77.8202 87.3821 77.754 87.4351C77.6879 87.488 77.6119 87.5274 77.5305 87.5508L77.3582 87.5665Z" fill="#522E13"/>
<path d="M89.4342 93.0581C87.6609 94.6742 85.4914 95.7901 83.1469 96.2918C80.8025 96.7934 78.3672 96.663 76.0895 95.9137C74.7738 95.4744 74.1943 97.4827 75.5256 98.0162C78.1768 98.8661 81.0053 98.9974 83.7235 98.3966C86.4417 97.7957 88.9525 96.4843 91.0005 94.5957C92.0342 93.6386 90.4992 92.101 89.4342 93.0581Z" fill="#C16B5B"/>
<path d="M105.489 59.1047C103.183 57.7186 100.606 56.8445 97.934 56.5413C95.2617 56.2382 92.5555 56.5131 89.9983 57.3474C89.769 57.4133 89.5548 57.5239 89.3681 57.6727C89.1814 57.8215 89.0258 58.0057 88.9102 58.2148C88.7946 58.4239 88.7212 58.6537 88.6942 58.8912C88.6673 59.1287 88.6873 59.3692 88.7531 59.5989C88.8189 59.8287 88.9293 60.0432 89.0779 60.2302C89.2264 60.4172 89.4103 60.5731 89.619 60.6889C89.8277 60.8047 90.0572 60.8783 90.2943 60.9053C90.5313 60.9323 90.7714 60.9122 91.0007 60.8463C93.0888 60.1359 95.3069 59.8927 97.4989 60.134C99.6908 60.3753 101.803 61.0951 103.688 62.2427C104.098 62.4244 104.561 62.4475 104.987 62.3077C105.414 62.1678 105.773 61.8749 105.997 61.4852C106.221 61.0956 106.293 60.6368 106.199 60.1973C106.105 59.7578 105.852 59.3686 105.489 59.1047Z" fill="black"/>
<path d="M57.4666 59.1047C59.7708 57.7209 62.3443 56.848 65.0138 56.5449C67.6832 56.2417 70.3865 56.5154 72.9414 57.3474C73.1886 57.3933 73.4235 57.4902 73.6313 57.6317C73.8392 57.7733 74.0155 57.9566 74.149 58.1699C74.2826 58.3832 74.3705 58.622 74.4072 58.8711C74.4439 59.1202 74.4286 59.3742 74.3623 59.6171C74.296 59.86 74.1801 60.0864 74.0219 60.2821C73.8637 60.4778 73.6667 60.6385 73.4434 60.754C73.2201 60.8696 72.9752 60.9374 72.7244 60.9533C72.4735 60.9692 72.2221 60.9327 71.986 60.8463C69.898 60.1359 67.6798 59.8927 65.4879 60.134C63.2959 60.3752 61.1834 61.0951 59.2991 62.2427C58.8855 62.458 58.4051 62.5058 57.9573 62.3763C57.5095 62.2467 57.1285 61.9497 56.8932 61.5467C56.6578 61.1436 56.5861 60.6654 56.6928 60.2109C56.7995 59.7564 57.0766 59.3603 57.4666 59.1047Z" fill="black"/>
<path d="M136.423 90.4379C131.317 96.5413 123.266 98.1888 118.426 94.1408C113.586 90.0927 113.821 81.8397 118.927 75.7362C124.033 69.6328 132.084 67.9853 136.924 72.0491C141.764 76.1128 141.591 84.3344 136.423 90.4379Z" fill="#754623"/>
<path d="M133.651 75.0301C132.435 74.4629 131.105 74.1821 129.764 74.2093C128.423 74.2365 127.105 74.571 125.913 75.187C124.741 75.6743 123.72 76.4649 122.953 77.4778C122.532 78.0526 122.255 78.7205 122.146 79.4251C122.037 80.1297 122.099 80.8503 122.326 81.5259C122.801 82.5378 123.536 83.4044 124.457 84.0363C125.015 84.427 125.498 84.9161 125.882 85.4798C126.112 85.8923 126.207 86.3673 126.152 86.8369C126.097 87.3065 125.895 87.7466 125.576 88.0946C125.256 88.4425 124.835 88.6805 124.372 88.7744C123.91 88.8684 123.43 88.8136 123 88.6178C122.764 88.5331 122.504 88.5405 122.273 88.6383C122.041 88.7361 121.855 88.9173 121.751 89.1461C121.646 89.3748 121.632 89.6345 121.709 89.8737C121.787 90.1129 121.951 90.3142 122.17 90.4378C122.716 90.6868 123.309 90.8152 123.908 90.8144C124.658 90.827 125.397 90.6392 126.05 90.2702C126.702 89.9013 127.245 89.3645 127.622 88.7154C127.998 88.0663 128.195 87.3283 128.192 86.5775C128.189 85.8267 127.987 85.0903 127.605 84.4442C127.1 83.6746 126.464 83.0001 125.725 82.4516C125.067 82.0365 124.528 81.4582 124.159 80.7727C124.053 80.4051 124.035 80.0176 124.106 79.6416C124.176 79.2656 124.334 78.9114 124.566 78.6075C124.784 78.3209 125.036 78.0626 125.318 77.8387C126.364 77.7912 127.389 78.1447 128.184 78.8272C128.536 79.2214 128.796 79.6893 128.945 80.1968C129.094 80.7044 129.129 81.2388 129.046 81.7612C129.005 82.0232 129.07 82.2907 129.225 82.5053C129.381 82.7199 129.615 82.8642 129.876 82.9066H130.033C130.271 82.9058 130.501 82.8201 130.682 82.6648C130.862 82.5096 130.982 82.2949 131.019 82.0593C131.136 81.2582 131.076 80.4412 130.843 79.6659C130.61 78.8906 130.211 78.1758 129.672 77.5719C129.224 77.1304 128.691 76.7836 128.106 76.5521C129.606 76.0824 131.227 76.1944 132.648 76.8659C133.487 77.2805 134.147 77.9868 134.504 78.853C134.862 79.7191 134.892 80.6859 134.59 81.5729C134.478 81.8143 134.467 82.0904 134.558 82.3404C134.649 82.5905 134.835 82.7942 135.076 82.9066C135.205 82.9586 135.344 82.9836 135.483 82.9799C135.622 82.9762 135.759 82.9439 135.885 82.8851C136.011 82.8263 136.124 82.7421 136.217 82.6379C136.309 82.5336 136.379 82.4115 136.423 82.279C136.921 80.9398 136.915 79.4644 136.404 78.1297C135.894 76.7951 134.915 75.6929 133.651 75.0301Z" fill="#522E13"/>
<path d="M25.499 90.4379C30.6051 96.5413 38.6714 98.1888 43.4956 94.1408C48.3197 90.0927 48.1161 81.8397 43.01 75.7362C37.9039 69.6328 29.9159 67.9853 25.0135 72.0491C20.111 76.1128 20.393 84.3344 25.499 90.4379Z" fill="#754623"/>
<path d="M28.3496 75.0301C29.5657 74.4629 30.8953 74.1821 32.2365 74.2093C33.5777 74.2365 34.8949 74.571 36.087 75.187C37.2613 75.6703 38.284 76.4616 39.0473 77.4778C39.4748 78.0494 39.7566 78.7168 39.8685 79.4222C39.9804 80.1276 39.919 80.8496 39.6895 81.5259C39.2153 82.5378 38.4799 83.4044 37.5593 84.0363C37.0265 84.4166 36.5607 84.8833 36.181 85.417C35.9505 85.8296 35.856 86.3046 35.911 86.7741C35.966 87.2437 36.1677 87.6839 36.4872 88.0318C36.8068 88.3798 37.2279 88.6177 37.6904 88.7117C38.153 88.8056 38.6334 88.7508 39.063 88.555C39.2994 88.4704 39.5589 88.4777 39.7902 88.5755C40.0215 88.6733 40.2077 88.8546 40.3121 89.0833C40.4164 89.3121 40.4313 89.5717 40.3537 89.8109C40.2761 90.0501 40.1117 90.2514 39.8931 90.3751C39.3472 90.624 38.7543 90.7525 38.1545 90.7516C37.4051 90.7643 36.6659 90.5764 36.0132 90.2075C35.3604 89.8385 34.8177 89.3018 34.4411 88.6527C34.0644 88.0036 33.8674 87.2655 33.8704 86.5147C33.8734 85.7639 34.0763 85.0275 34.4581 84.3815C34.965 83.6085 35.6071 82.9334 36.3533 82.3888C37.0088 81.971 37.5478 81.3934 37.9196 80.71C38.0254 80.3423 38.0436 79.9549 37.9729 79.5789C37.9022 79.2028 37.7445 78.8486 37.5123 78.5447C37.2946 78.2581 37.0421 77.9999 36.7605 77.7759C35.7193 77.7293 34.6996 78.0829 33.9099 78.7644C33.556 79.1579 33.2937 79.6252 33.142 80.1326C32.9904 80.64 32.953 81.1748 33.0328 81.6984C33.0738 81.9582 33.0114 82.2236 32.8591 82.4378C32.7068 82.652 32.4768 82.7977 32.2183 82.8438H32.046C31.8106 82.8393 31.5843 82.752 31.4067 82.5971C31.2291 82.4421 31.1117 82.2295 31.075 81.9966C30.9521 81.2122 31.0005 80.4104 31.2168 79.6465C31.4331 78.8827 31.8122 78.1749 32.328 77.5719C32.7715 77.124 33.3055 76.7763 33.8942 76.5521C32.3945 76.0824 30.7733 76.1944 29.352 76.8659C28.513 77.2805 27.8533 77.9868 27.4959 78.853C27.1385 79.7191 27.1079 80.6859 27.4099 81.5729C27.4561 81.6966 27.4777 81.8281 27.4732 81.9601C27.4687 82.092 27.4383 82.2218 27.3838 82.342C27.3293 82.4622 27.2516 82.5705 27.1553 82.6606C27.059 82.7507 26.9459 82.821 26.8225 82.8674C26.6991 82.9137 26.5678 82.9353 26.436 82.9308C26.3043 82.9263 26.1748 82.8959 26.0548 82.8413C25.9348 82.7866 25.8267 82.7088 25.7367 82.6124C25.6467 82.5159 25.5766 82.4026 25.5303 82.279C25.0285 80.9348 25.0386 79.4526 25.5586 78.1154C26.0787 76.7783 27.0723 75.6799 28.3496 75.0301Z" fill="#522E13"/>
<path d="M107.462 112.42L80.992 113.989L54.5376 112.42C63.2304 117.786 62.6352 135.186 62.6352 135.186C66.9582 139.893 80.992 139.893 80.992 139.893C80.992 139.893 95.0885 139.893 99.3644 135.186C99.3644 135.186 98.8319 117.786 107.462 112.42Z" fill="#754623"/>
</g>
</g>
<defs>
<clipPath id="clip0_143_42">
<rect width="162" height="192" fill="white"/>
</clipPath>
</defs>
</svg>
