<svg width="162" height="183" viewBox="0 0 162 183" fill="none" xmlns="http://www.w3.org/2000/svg">
<g clip-path="url(#clip0_143_103)">
<mask id="mask0_143_103" style="mask-type:luminance" maskUnits="userSpaceOnUse" x="-17" y="-11" width="194" height="194">
<path d="M148.049 154.685C185.718 116.933 185.718 55.7235 148.049 17.9708C110.38 -19.7819 49.3066 -19.7819 11.6375 17.9708C-26.0316 55.7235 -26.0316 116.933 11.6375 154.685C49.3066 192.438 110.38 192.438 148.049 154.685Z" fill="white"/>
</mask>
<g mask="url(#mask0_143_103)">
<path d="M161.922 183H0C0 183 1.47216 161.779 6.89095 152.393C10.728 145.738 30.4611 134.405 52.9664 128.409C62.0955 125.873 71.5119 124.523 80.9843 124.391C90.5978 124.527 100.153 125.914 109.41 128.519C131.758 134.546 151.272 145.785 155.078 152.393C160.497 161.779 161.922 183 161.922 183Z" fill="#362549"/>
<path d="M60.9223 183H0C0 183 1.47216 161.779 6.89095 152.393C10.3051 146.475 26.2639 136.869 45.5899 130.591C48.0017 129.806 50.4762 129.021 52.9664 128.409C58.8925 145.974 61.5881 164.47 60.9223 183Z" fill="#F2B583"/>
<path d="M161.922 183H101.704C101.398 164.547 103.999 146.16 109.41 128.519C113.9 129.723 118.328 131.153 122.675 132.804C139.088 138.957 152.04 147.135 155.078 152.393C160.497 161.779 161.922 183 161.922 183Z" fill="#F2B583"/>
<path d="M60.9225 183H48.1272C47.3285 180.536 46.5611 178.056 45.6997 175.591C44.9871 174.082 44.8861 172.355 45.4178 170.773C46.5455 168.575 50.0066 168.01 50.4608 165.577L41.6748 163.882C44.1655 152.984 45.4782 141.849 45.5901 130.669C48.002 129.885 50.4764 129.1 52.9666 128.488C58.8833 146.027 61.5788 164.497 60.9225 183Z" fill="#FFCB99"/>
<path d="M122.675 132.804C122.549 141.751 122.419 150.692 122.283 159.629C122.362 160.756 122.152 161.886 121.672 162.909C120.686 164.589 118.54 165.044 116.583 165.326L120.373 168.089C118.825 172.945 117.739 177.938 117.131 183H101.704C101.398 164.547 103.999 146.16 109.41 128.519C113.9 129.723 118.328 131.153 122.675 132.804Z" fill="#FFCB99"/>
<path d="M96.3791 156.489C92.8145 160.217 88.6608 163.33 84.0851 165.703C82.7833 166.393 81.4449 167.011 80.0758 167.555C79.6529 167.728 79.8409 168.418 80.2794 168.246C85.1392 166.282 89.6463 163.535 93.6228 160.115C94.766 159.126 95.8467 158.09 96.896 156.976C97.2092 156.631 96.708 156.128 96.3791 156.458V156.489Z" fill="#583D71"/>
<path d="M97.7104 160.209C91.5705 168.247 83.236 174.326 73.7174 177.71C73.2788 177.867 73.4668 178.558 73.9053 178.401C81.4466 175.719 88.2878 171.368 93.9204 165.672C95.495 164.068 96.965 162.364 98.3212 160.57C98.6031 160.209 97.9766 159.848 97.7104 160.209Z" fill="#583D71"/>
<path d="M133.199 53.5078C133.199 83.0634 108.799 89.7342 79.857 89.7342C50.915 89.7342 28.3784 83.0634 28.3784 53.5078C28.3784 23.9521 51.839 0 80.7966 0C109.754 0 133.199 23.9521 133.199 53.5078Z" fill="#3D2614"/>
<path d="M114.938 26.4792C108 15.696 94.5784 12.0546 81.0001 12.0546C67.4218 12.0546 54.0001 15.696 46.9839 26.4792C32.7478 48.3595 38.6208 91.4922 57.3203 105.901C64.196 110.9 72.5072 113.522 81.0001 113.372C89.4878 113.519 97.793 110.897 104.664 105.901C123.364 91.4922 129.237 48.3595 114.938 26.4792Z" fill="#F2A261"/>
<path d="M39.3098 68.1365C45.5231 57.4173 48.3208 45.0516 47.3283 32.6949C57.6923 35.893 68.8788 35.0522 78.6508 30.3405C82.9733 28.2372 87.4368 25.302 92.1508 26.1967C95.1108 26.7618 97.554 28.7552 100.107 30.3562C102.66 31.9572 105.87 33.1344 108.673 32.0356C109.275 38.4853 110.476 44.8646 112.26 51.0906C114.095 57.3059 117.626 62.8836 122.455 67.1948C124.679 57.008 126.261 46.4446 124.162 36.2265C122.064 26.0084 116.144 16.1827 106.935 11.3797C100.561 8.06781 93.1688 7.34579 85.996 7.40857C76.0165 7.22472 66.1175 9.22821 56.9913 13.2789C48.0487 17.5482 40.2494 24.7841 36.6317 34.029C32.3718 45.0006 34.0163 57.5731 39.3098 68.1365Z" fill="#3D2614"/>
<path d="M100.31 64.0084C100.31 64.8266 100.068 65.6265 99.6155 66.3072C99.1625 66.988 98.5186 67.5191 97.765 67.8336C97.0113 68.1481 96.1816 68.232 95.3804 68.0746C94.5793 67.9173 93.8425 67.5257 93.2631 66.9494C92.6836 66.373 92.2874 65.6376 92.1243 64.8359C91.9613 64.0341 92.0387 63.202 92.3468 62.4443C92.655 61.6866 93.18 61.0372 93.8558 60.5782C94.5316 60.1191 95.3279 59.8708 96.1443 59.8646C96.6899 59.8605 97.2309 59.9646 97.7361 60.171C98.2414 60.3774 98.7009 60.6819 99.0881 61.0671C99.4754 61.4523 99.7827 61.9105 99.9925 62.4153C100.202 62.9201 100.31 63.4616 100.31 64.0084Z" fill="black"/>
<path d="M95.847 62.6271C95.847 62.871 95.7751 63.1095 95.6405 63.3127C95.5059 63.5158 95.3145 63.6747 95.0902 63.7694C94.866 63.8641 94.6188 63.8904 94.3797 63.8451C94.1406 63.7997 93.9202 63.6847 93.7459 63.5144C93.5717 63.3441 93.4515 63.1261 93.4003 62.8877C93.3491 62.6493 93.3691 62.401 93.458 62.174C93.5468 61.9469 93.7005 61.7512 93.8998 61.6112C94.0991 61.4713 94.3352 61.3933 94.5785 61.3871C94.7441 61.3807 94.9094 61.4082 95.0641 61.4678C95.2188 61.5275 95.3598 61.6181 95.4785 61.7341C95.5972 61.8501 95.691 61.9891 95.7544 62.1426C95.8178 62.2961 95.8493 62.461 95.847 62.6271Z" fill="white"/>
<path d="M69.943 64.0084C69.943 64.8279 69.7005 65.6291 69.2462 66.3105C68.7919 66.992 68.1461 67.5231 67.3906 67.8367C66.6351 68.1503 65.8038 68.2324 65.0018 68.0725C64.1998 67.9126 63.463 67.518 62.8848 66.9385C62.3066 66.3589 61.9128 65.6206 61.7533 64.8168C61.5937 64.013 61.6756 63.1798 61.9886 62.4226C62.3015 61.6655 62.8314 61.0183 63.5114 60.563C64.1913 60.1076 64.9907 59.8646 65.8084 59.8646C66.905 59.8646 67.9566 60.3012 68.732 61.0783C69.5074 61.8554 69.943 62.9094 69.943 64.0084Z" fill="black"/>
<path d="M65.4955 62.6272C65.4955 62.8724 65.4229 63.1122 65.287 63.3161C65.151 63.52 64.9578 63.6789 64.7317 63.7728C64.5056 63.8666 64.2569 63.8912 64.0169 63.8433C63.7769 63.7955 63.5564 63.6774 63.3834 63.504C63.2103 63.3306 63.0925 63.1096 63.0448 62.8691C62.997 62.6286 63.0215 62.3792 63.1152 62.1526C63.2088 61.9261 63.3674 61.7324 63.5709 61.5962C63.7743 61.4599 64.0135 61.3872 64.2582 61.3872C64.4213 61.3851 64.5831 61.4157 64.7342 61.4773C64.8852 61.5388 65.0225 61.6301 65.1378 61.7457C65.2531 61.8612 65.3441 61.9988 65.4056 62.1502C65.467 62.3016 65.4976 62.4638 65.4955 62.6272Z" fill="white"/>
<path d="M77.3508 78.5272C77.2132 78.5291 77.0789 78.4855 76.9685 78.4033C76.8581 78.321 76.7778 78.2046 76.74 78.0721C75.5341 73.8969 76.9436 72.4843 78.3061 72.0291C79.1784 71.8342 80.0825 71.8315 80.9559 72.0212C81.8293 72.2109 82.6512 72.5885 83.3647 73.1278C83.5079 73.2212 83.6093 73.3668 83.6473 73.5338C83.6853 73.7008 83.657 73.8761 83.5683 74.0225C83.473 74.159 83.3307 74.2553 83.1688 74.293C83.0069 74.3307 82.8368 74.307 82.6913 74.2265C82.1328 73.7888 81.4883 73.4744 80.8 73.304C80.1117 73.1335 79.3952 73.111 78.6976 73.2377C77.4447 73.6458 77.1315 75.1526 77.9146 77.711C77.9385 77.7925 77.9462 77.8778 77.9371 77.9622C77.928 78.0466 77.9023 78.1283 77.8615 78.2028C77.8208 78.2772 77.7657 78.3427 77.6996 78.3957C77.6334 78.4487 77.5575 78.4881 77.4761 78.5115L77.3508 78.5272Z" fill="#C16B5B"/>
<path d="M89.4572 84.0208C87.6899 85.6419 85.5232 86.7612 83.1805 87.2634C80.8377 87.7655 78.4037 87.6323 76.1294 86.8775C74.7982 86.438 74.2188 88.5412 75.55 88.9807C78.1953 89.8349 81.0198 89.9682 83.7336 89.3669C86.4473 88.7655 88.9525 87.4513 90.992 85.559C92.0256 84.6172 90.4908 83.079 89.4572 84.0208Z" fill="#C16B5B"/>
<path d="M105.541 50.0703C103.238 48.6834 100.666 47.8075 97.9964 47.5015C95.3272 47.1956 92.6235 47.4667 90.0678 48.2967C89.6101 48.4322 89.2224 48.7398 88.986 49.1553C88.7495 49.5707 88.6826 50.0617 88.7992 50.5255C88.9273 50.9887 89.2331 51.3824 89.6497 51.6205C90.0663 51.8587 90.56 51.9221 91.0231 51.7969C93.1116 51.0905 95.3288 50.8495 97.5199 51.0908C99.711 51.3321 101.823 52.0498 103.709 53.1938C104.122 53.4374 104.615 53.5064 105.079 53.3857C105.543 53.265 105.94 52.9645 106.183 52.5503C106.426 52.1361 106.495 51.6421 106.375 51.177C106.254 50.712 105.954 50.3139 105.541 50.0703Z" fill="black"/>
<path d="M57.4614 50.0703C59.7642 48.6834 62.3369 47.8075 65.0061 47.5015C67.6753 47.1956 70.3789 47.4667 72.9347 48.2967C73.3953 48.4289 73.7866 48.7352 74.0262 49.151C74.2658 49.5668 74.3349 50.0596 74.2189 50.5255C74.0872 50.9865 73.7808 51.3775 73.3653 51.6151C72.9497 51.8526 72.4579 51.9179 71.995 51.7969C69.9065 51.0905 67.6893 50.8495 65.4982 51.0908C63.3071 51.3321 61.195 52.0498 59.3094 53.1938C59.1048 53.3155 58.8782 53.3955 58.6427 53.4294C58.4072 53.4632 58.1674 53.4503 57.9369 53.3912C57.7064 53.3322 57.4897 53.2283 57.2993 53.0853C57.1089 52.9424 56.9484 52.7633 56.8271 52.5582C56.7057 52.3531 56.6259 52.126 56.5921 51.89C56.5583 51.654 56.5712 51.4136 56.6301 51.1826C56.689 50.9516 56.7927 50.7344 56.9354 50.5436C57.078 50.3528 57.2567 50.192 57.4614 50.0703Z" fill="black"/>
<path d="M136.472 81.4153C131.367 87.5054 123.317 89.1692 118.478 85.1039C113.638 81.0386 113.873 72.7982 118.979 66.6925C124.084 60.5867 132.134 58.9386 136.973 63.0039C141.813 67.0692 141.562 75.3096 136.472 81.4153Z" fill="#F2A261"/>
<path d="M133.637 65.9861C132.421 65.4187 131.092 65.1378 129.751 65.165C128.41 65.1922 127.093 65.5268 125.901 66.1431C124.728 66.6362 123.706 67.4324 122.941 68.4504C122.515 69.023 122.235 69.6914 122.126 70.3972C122.016 71.1031 122.081 71.825 122.314 72.5C122.78 73.5129 123.511 74.3806 124.428 75.0114C124.983 75.4011 125.465 75.8844 125.854 76.4397C126.084 76.8524 126.179 77.3276 126.124 77.7973C126.069 78.2671 125.867 78.7074 125.547 79.0555C125.228 79.4036 124.807 79.6416 124.344 79.7356C123.882 79.8296 123.402 79.7747 122.972 79.5789C122.854 79.5243 122.726 79.4935 122.596 79.4884C122.466 79.4833 122.336 79.5039 122.214 79.5491C122.092 79.5943 121.979 79.6632 121.884 79.7518C121.788 79.8404 121.711 79.947 121.656 80.0655C121.602 80.184 121.571 80.3121 121.566 80.4425C121.561 80.5729 121.582 80.7031 121.627 80.8255C121.672 80.9479 121.741 81.0603 121.829 81.1561C121.917 81.2519 122.024 81.3293 122.142 81.3839C122.685 81.6404 123.28 81.7693 123.88 81.7607C124.468 81.7601 125.049 81.6386 125.588 81.4037C126.127 81.1688 126.612 80.8255 127.013 80.3951C127.604 79.7162 127.972 78.8704 128.064 77.9738C128.157 77.0772 127.97 76.1739 127.529 75.3881C127.028 74.6202 126.391 73.9501 125.65 73.4104C125 72.9863 124.462 72.4099 124.084 71.7309C123.977 71.3632 123.958 70.9754 124.029 70.599C124.1 70.2226 124.258 69.8683 124.491 69.5648C124.7 69.271 124.954 69.0115 125.243 68.7957C126.287 68.7439 127.311 69.0918 128.109 69.7689C128.478 70.1637 128.753 70.6371 128.913 71.1537C129.073 71.6702 129.114 72.2164 129.033 72.7511C129.011 72.8812 129.015 73.0144 129.044 73.1429C129.074 73.2714 129.13 73.3926 129.207 73.4994C129.284 73.6062 129.382 73.6964 129.495 73.7646C129.608 73.8329 129.733 73.8779 129.863 73.8969H130.02C130.256 73.8999 130.486 73.8176 130.667 73.6649C130.848 73.5122 130.969 73.2993 131.006 73.0651C131.138 72.2427 131.083 71.4013 130.848 70.6027C130.612 69.8041 130.2 69.0687 129.644 68.4504C129.195 68.0087 128.662 67.6618 128.078 67.4302C129.577 66.9603 131.198 67.0723 132.619 67.7441C133.456 68.1615 134.114 68.8683 134.471 69.7339C134.828 70.5995 134.86 71.5653 134.561 72.4529C134.502 72.573 134.466 72.7039 134.458 72.8378C134.449 72.9718 134.468 73.106 134.512 73.2327C134.556 73.3594 134.625 73.476 134.715 73.5755C134.805 73.675 134.914 73.7554 135.035 73.812C135.157 73.8687 135.288 73.9004 135.422 73.9052C135.556 73.9101 135.689 73.888 135.814 73.8403C135.94 73.7927 136.054 73.7203 136.151 73.6276C136.248 73.5349 136.325 73.4237 136.378 73.3005C136.896 71.9567 136.904 70.4687 136.398 69.12C135.893 67.7712 134.91 66.6558 133.637 65.9861Z" fill="#C16B5B"/>
<path d="M25.4966 81.4153C30.6021 87.5054 38.6677 89.1692 43.4914 85.1039C48.315 81.0386 48.1114 72.7982 43.0059 66.6925C37.9003 60.5867 29.8347 58.9386 25.0111 63.0039C20.1874 67.0692 20.391 75.3096 25.4966 81.4153Z" fill="#F2A261"/>
<path d="M28.3313 65.9861C29.5503 65.4196 30.8822 65.1393 32.2256 65.1665C33.569 65.1937 34.8885 65.5277 36.0836 66.1431C37.254 66.6407 38.2743 67.436 39.0436 68.4504C39.466 69.0248 39.7435 69.693 39.8526 70.3981C39.9617 71.1033 39.8991 71.8243 39.6701 72.5C39.1959 73.5123 38.4606 74.3793 37.5401 75.0113C36.9898 75.4055 36.5083 75.8881 36.115 76.4397C35.8817 76.8621 35.7837 77.3461 35.8341 77.8262C35.8845 78.3063 36.081 78.7592 36.3969 79.1237C36.7223 79.4706 37.1468 79.7082 37.6123 79.8037C38.0778 79.8993 38.5613 79.8481 38.9966 79.6574C39.1163 79.5714 39.2537 79.5134 39.3986 79.4876C39.5436 79.4618 39.6925 79.4688 39.8344 79.5082C39.9763 79.5476 40.1076 79.6182 40.2187 79.7151C40.3298 79.8119 40.4179 79.9324 40.4764 80.0678C40.535 80.2032 40.5626 80.35 40.5572 80.4975C40.5518 80.6449 40.5136 80.7893 40.4452 80.92C40.3769 81.0507 40.2803 81.1645 40.1624 81.2529C40.0446 81.3413 39.9084 81.4022 39.764 81.431C39.2267 81.6889 38.6369 81.8179 38.0413 81.8077C37.4536 81.8081 36.8721 81.687 36.3332 81.452C35.7943 81.2171 35.3095 80.8733 34.909 80.4422C34.3108 79.7672 33.9379 78.9218 33.8424 78.0241C33.7469 77.1264 33.9337 76.2213 34.3766 75.4351C34.8839 74.6666 35.5259 73.9965 36.2716 73.4574C36.9275 73.04 37.4665 72.462 37.8377 71.7779C37.9521 71.4121 37.9763 71.0239 37.9081 70.6466C37.8399 70.2693 37.6814 69.9143 37.4462 69.6119C37.2268 69.3215 36.9685 69.0627 36.6788 68.8428C35.6395 68.7902 34.6196 69.1385 33.8284 69.8159C33.4755 70.2102 33.2138 70.6778 33.0622 71.1852C32.9106 71.6926 32.8728 72.2273 32.9514 72.7511C32.9738 72.88 32.9704 73.0121 32.9415 73.1397C32.9126 73.2673 32.8587 73.3879 32.783 73.4945C32.7072 73.6011 32.6111 73.6915 32.5002 73.7606C32.3893 73.8297 32.2659 73.876 32.137 73.8969H31.9334C31.6994 73.8962 31.4733 73.8121 31.2954 73.6597C31.1176 73.5073 30.9995 73.2966 30.9624 73.065C30.8275 72.2427 30.8801 71.4004 31.116 70.6012C31.352 69.8021 31.7653 69.0668 32.3249 68.4504C32.7717 68.0063 33.3047 67.659 33.8911 67.4301C32.3914 66.9603 30.7704 67.0723 29.3493 67.7441C28.5127 68.1614 27.8551 68.8683 27.4981 69.7338C27.1411 70.5994 27.1089 71.5653 27.4073 72.4529C27.5193 72.6943 27.5311 72.9705 27.4401 73.2207C27.3491 73.4709 27.1626 73.6746 26.9218 73.787C26.8037 73.8423 26.6757 73.8736 26.5455 73.879C26.4152 73.8845 26.2851 73.864 26.1628 73.8187C26.0404 73.7735 25.9283 73.7044 25.8327 73.6154C25.7372 73.5265 25.6602 73.4194 25.6063 73.3005C25.0831 71.9588 25.0719 70.471 25.5746 69.1216C26.0774 67.7721 27.0588 66.6558 28.3313 65.9861Z" fill="#C16B5B"/>
<path d="M107.452 103.405L81.0002 104.975L54.5327 103.405C63.256 108.758 62.6296 126.212 62.6296 126.212C66.9521 130.921 81.0002 130.921 81.0002 130.921C81.0002 130.921 95.0954 130.921 99.3552 126.212C99.3552 126.212 98.7444 108.758 107.452 103.405Z" fill="#F2A261"/>
</g>
</g>
<defs>
<clipPath id="clip0_143_103">
<rect width="162" height="183" fill="white"/>
</clipPath>
</defs>
</svg>
