<svg width="162" height="187" viewBox="0 0 162 187" fill="none" xmlns="http://www.w3.org/2000/svg">
<g clip-path="url(#clip0_143_133)">
<mask id="mask0_143_133" style="mask-type:luminance" maskUnits="userSpaceOnUse" x="-17" y="-7" width="194" height="195">
<path d="M173.537 113.059C186.109 61.1251 154.332 8.80013 102.559 -3.81201C50.787 -16.4242 -1.37521 15.4525 -13.9481 67.3865C-26.521 119.321 5.25649 171.646 57.0289 184.258C108.801 196.87 160.964 164.993 173.537 113.059Z" fill="white"/>
</mask>
<g mask="url(#mask0_143_133)">
<path d="M86.8187 0.486981C75.6424 -1.02376 64.2683 0.681692 54.0209 5.40473C39.0786 12.5221 30.4484 28.2966 27.1749 44.1654C23.5255 61.0082 25.1231 78.4482 25.6086 95.6524C26.0942 112.857 25.264 130.737 17.417 146.087C59.5342 159.662 105.583 162.773 148.781 153.063C142.108 139.472 141.122 123.949 140.777 108.834C140.15 81.402 144.896 49.8687 129.28 25.5628C120.039 11.2809 103.766 2.56092 86.8187 0.486981Z" fill="#3D2614"/>
<path d="M162 186.984H0C0 186.984 1.4723 165.742 6.89162 156.346C9.08441 152.544 16.4929 147.202 26.6267 142.206C32.5055 139.347 38.5704 136.891 44.7799 134.853C56.4397 130.812 68.6585 128.628 80.9922 128.38C93.2573 128.62 105.411 130.772 117.017 134.759C123.627 136.937 130.071 139.594 136.297 142.709C145.961 147.564 152.978 152.701 155.093 156.394C160.528 165.742 162 186.984 162 186.984Z" fill="#684D84"/>
<path d="M101.698 136.314C97.0053 139.918 91.475 142.265 85.6282 143.133C83.9636 143.379 82.283 143.5 80.6005 143.494C80.5049 143.494 80.4133 143.532 80.3457 143.6C80.2782 143.668 80.2402 143.76 80.2402 143.856C80.2402 143.952 80.2782 144.043 80.3457 144.111C80.4133 144.179 80.5049 144.217 80.6005 144.217C86.6273 144.231 92.5577 142.701 97.8295 139.771C99.3298 138.933 100.764 137.983 102.121 136.927C102.481 136.66 102.121 136.031 101.761 136.314H101.698Z" fill="#362549"/>
<path d="M132.115 186.984H30.1193C31.1536 171.962 29.9767 156.869 26.6265 142.19C32.5057 139.337 38.5706 136.885 44.7796 134.853C46.0326 143.84 47.27 152.78 48.5387 161.783C69.6938 161.536 90.846 162.485 111.895 164.627C113.461 154.681 115.262 144.704 116.938 134.774C123.575 136.944 130.045 139.596 136.297 142.709C133.251 157.263 131.848 172.115 132.115 186.984Z" fill="#FF8877"/>
<path d="M52.8147 177.903C66.8798 176.992 80.9763 176.709 95.1041 177.054C99.1138 177.164 103.139 177.306 107.149 177.51C108.073 177.51 108.073 176.127 107.149 176.08C93.0627 175.358 78.9663 175.274 64.8593 175.829C60.834 176.002 56.8243 176.206 52.8147 176.473C51.8906 176.473 51.8906 178.044 52.8147 177.903Z" fill="#B7403D"/>
<path d="M43.7619 171.995C43.7619 172.704 43.5524 173.396 43.16 173.986C42.7676 174.575 42.2099 175.034 41.5573 175.305C40.9048 175.576 40.1868 175.647 39.494 175.509C38.8013 175.371 38.165 175.029 37.6656 174.528C37.1662 174.027 36.826 173.389 36.6882 172.694C36.5505 171.999 36.6212 171.279 36.8915 170.624C37.1618 169.97 37.6195 169.41 38.2067 169.017C38.794 168.623 39.4844 168.413 40.1907 168.413C41.1379 168.413 42.0462 168.79 42.7159 169.462C43.3856 170.134 43.7619 171.045 43.7619 171.995Z" fill="#FFCB99"/>
<path d="M124.033 171.995C124.033 172.704 123.824 173.396 123.431 173.986C123.039 174.575 122.481 175.034 121.829 175.305C121.176 175.576 120.458 175.647 119.766 175.509C119.073 175.371 118.437 175.029 117.937 174.528C117.438 174.027 117.098 173.389 116.96 172.694C116.822 171.999 116.893 171.279 117.163 170.624C117.433 169.97 117.891 169.41 118.478 169.017C119.065 168.623 119.756 168.413 120.462 168.413C121.409 168.413 122.318 168.79 122.987 169.462C123.657 170.134 124.033 171.045 124.033 171.995Z" fill="#FFCB99"/>
<path d="M115.027 30.3077C108.01 19.5138 94.5246 15.8687 81.0076 15.8687C67.4906 15.8687 54.005 19.5138 46.9881 30.3077C32.7506 52.2097 38.6242 95.3853 57.3255 109.809C64.2018 114.812 72.5138 117.437 81.0076 117.287C89.5014 117.437 97.8134 114.812 104.69 109.809C123.375 95.3853 129.249 52.2097 115.027 30.3077Z" fill="#FFD3B3"/>
<path d="M100.32 67.8742C100.32 68.6946 100.078 69.4965 99.6234 70.1786C99.169 70.8607 98.5232 71.3924 97.7676 71.7063C97.0121 72.0203 96.1807 72.1024 95.3786 71.9424C94.5765 71.7823 93.8397 71.3873 93.2614 70.8072C92.6831 70.2271 92.2893 69.488 92.1297 68.6834C91.9702 67.8788 92.0521 67.0448 92.365 66.2869C92.678 65.5289 93.208 64.8811 93.888 64.4254C94.568 63.9696 95.3674 63.7263 96.1853 63.7263C97.2819 63.7263 98.3337 64.1633 99.1091 64.9412C99.8846 65.7191 100.32 66.7741 100.32 67.8742Z" fill="black"/>
<path d="M95.856 66.4916C95.856 66.8166 95.7273 67.1283 95.4981 67.3581C95.269 67.588 94.9583 67.7171 94.6343 67.7171C94.3882 67.7202 94.1469 67.6496 93.941 67.5145C93.7351 67.3793 93.5741 67.1856 93.4785 66.9582C93.383 66.7307 93.3571 66.4799 93.4044 66.2376C93.4516 65.9954 93.5698 65.7728 93.7438 65.5983C93.9178 65.4238 94.1397 65.3052 94.3811 65.2578C94.6226 65.2104 94.8727 65.2363 95.0994 65.3322C95.3261 65.4281 95.5192 65.5896 95.654 65.7961C95.7887 66.0027 95.8591 66.2448 95.856 66.4916Z" fill="white"/>
<path d="M69.9657 67.8742C69.9657 68.6946 69.7232 69.4965 69.2689 70.1786C68.8145 70.8607 68.1687 71.3924 67.4132 71.7063C66.6576 72.0203 65.8262 72.1024 65.0241 71.9424C64.222 71.7823 63.4852 71.3873 62.9069 70.8072C62.3286 70.2271 61.9348 69.488 61.7753 68.6834C61.6157 67.8788 61.6976 67.0448 62.0106 66.2869C62.3235 65.5289 62.8535 64.8811 63.5335 64.4254C64.2135 63.9696 65.013 63.7263 65.8308 63.7263C66.9274 63.7263 67.9792 64.1633 68.7546 64.9412C69.5301 65.7191 69.9657 66.7741 69.9657 67.8742Z" fill="black"/>
<path d="M65.5016 66.4916C65.5016 66.7377 65.4286 66.9783 65.2919 67.1827C65.1552 67.3872 64.9611 67.5463 64.734 67.6397C64.507 67.7332 64.2574 67.7568 64.017 67.7077C63.7766 67.6585 63.5561 67.5387 63.3837 67.3635C63.2113 67.1884 63.0947 66.9657 63.0488 66.7239C63.0028 66.4821 63.0295 66.2321 63.1256 66.0056C63.2217 65.7791 63.3827 65.5863 63.5882 65.4518C63.7938 65.3174 64.0345 65.2472 64.2799 65.2503C64.4416 65.2503 64.6018 65.2825 64.751 65.3451C64.9003 65.4077 65.0357 65.4994 65.1493 65.6148C65.263 65.7303 65.3526 65.8672 65.4131 66.0178C65.4736 66.1683 65.5036 66.3293 65.5016 66.4916Z" fill="white"/>
<path d="M77.2957 82.4232C77.1567 82.4215 77.0221 82.3747 76.912 82.2897C76.8018 82.2047 76.7221 82.0861 76.6848 81.9519C75.4788 77.7726 76.8885 76.3585 78.2511 75.9029C79.1234 75.7067 80.0278 75.7035 80.9015 75.8934C81.7752 76.0833 82.5971 76.4619 83.3102 77.0027C83.3822 77.047 83.4448 77.1052 83.4943 77.1738C83.5439 77.2424 83.5796 77.3202 83.5992 77.4026C83.6188 77.485 83.6221 77.5705 83.6088 77.6542C83.5955 77.7379 83.5659 77.8182 83.5216 77.8904C83.4774 77.9626 83.4195 78.0254 83.351 78.0751C83.2826 78.1249 83.2051 78.1606 83.123 78.1803C83.0408 78.2 82.9556 78.2033 82.8721 78.1899C82.7887 78.1766 82.7087 78.1469 82.6367 78.1025C82.0782 77.6643 81.4336 77.3496 80.7452 77.179C80.0569 77.0084 79.3404 76.9858 78.6427 77.1127C77.3897 77.5212 77.0764 79.0295 77.8752 81.6062C77.9189 81.7687 77.8974 81.9418 77.8155 82.0886C77.7335 82.2354 77.5976 82.3442 77.4367 82.3918L77.2957 82.4232Z" fill="#C16B5B"/>
<path d="M89.4816 87.9223C87.7094 89.5423 85.539 90.6596 83.1937 91.1594C80.8484 91.6592 78.4127 91.5234 76.1369 90.7661C74.8056 90.3262 74.2418 92.4316 75.5574 92.8715C78.2052 93.7295 81.0331 93.8645 83.7502 93.2625C86.4672 92.6605 88.9754 91.3433 91.0166 89.4463C92.0347 88.5036 90.4997 86.9639 89.4816 87.9223Z" fill="#C16B5B"/>
<path d="M105.489 53.9223C103.186 52.534 100.613 51.6571 97.9433 51.3509C95.2739 51.0446 92.57 51.316 90.014 52.1468C89.5584 52.2858 89.1732 52.5944 88.9373 53.0092C88.7013 53.4241 88.6327 53.9138 88.7453 54.3779C88.877 54.8393 89.1834 55.2307 89.599 55.4685C90.0146 55.7063 90.5064 55.7716 90.9694 55.6505C93.058 54.9424 95.2755 54.7006 97.467 54.9421C99.6585 55.1837 101.771 55.9027 103.656 57.0489C104.07 57.2926 104.562 57.3617 105.027 57.2409C105.491 57.1201 105.888 56.8193 106.131 56.4047C106.374 55.9901 106.443 55.4956 106.322 55.0301C106.202 54.5645 105.902 54.166 105.489 53.9223Z" fill="black"/>
<path d="M57.4824 53.9223C59.7854 52.534 62.3583 51.6571 65.0278 51.3509C67.6973 51.0446 70.4011 51.316 72.9572 52.1468C73.412 52.2857 73.796 52.595 74.0294 53.0105C74.2627 53.426 74.3275 53.9157 74.2102 54.3779C74.082 54.8416 73.7763 55.2356 73.3596 55.474C72.9429 55.7124 72.4492 55.7759 71.9861 55.6505C69.8974 54.9434 67.6799 54.7022 65.4887 54.9437C63.2974 55.1852 61.1851 55.9037 59.2992 57.0489C59.0946 57.1685 58.8684 57.2466 58.6337 57.2786C58.399 57.3106 58.1603 57.2959 57.9312 57.2354C57.7021 57.1748 57.4872 57.0696 57.2986 56.9257C57.1101 56.7819 56.9517 56.6021 56.8324 56.3968C56.7131 56.1915 56.6352 55.9647 56.6033 55.7292C56.5714 55.4938 56.5861 55.2543 56.6465 55.0245C56.7068 54.7947 56.8117 54.5791 56.9551 54.39C57.0985 54.2009 57.2777 54.0419 57.4824 53.9223Z" fill="black"/>
<path d="M136.486 85.2985C131.38 91.3946 123.329 93.06 118.489 88.9907C113.649 84.9214 113.884 76.6728 118.99 70.5766C124.096 64.4805 132.147 62.7208 136.987 66.8687C141.827 71.0166 141.592 79.1866 136.486 85.2985Z" fill="#FFD3B3"/>
<path d="M133.682 69.8539C132.464 69.2905 131.135 69.0118 129.795 69.039C128.454 69.0663 127.138 69.3986 125.944 70.011C124.771 70.5046 123.75 71.3016 122.984 72.3206C122.558 72.8938 122.278 73.5628 122.169 74.2694C122.06 74.9759 122.124 75.6986 122.357 76.3742C122.827 77.3856 123.557 78.2533 124.472 78.8881C125.031 79.2837 125.518 79.7726 125.913 80.3336C126.143 80.7467 126.238 81.2224 126.183 81.6926C126.128 82.1628 125.926 82.6036 125.607 82.952C125.287 83.3004 124.866 83.5387 124.403 83.6327C123.941 83.7268 123.461 83.6719 123.031 83.4759C122.79 83.3635 122.514 83.3517 122.265 83.443C122.015 83.5343 121.812 83.7214 121.7 83.963C121.644 84.0815 121.613 84.2098 121.608 84.3405C121.602 84.4712 121.623 84.6017 121.668 84.7244C121.713 84.8472 121.782 84.9597 121.871 85.0555C121.96 85.1514 122.066 85.2286 122.185 85.2827C122.729 85.5395 123.323 85.6685 123.924 85.6598C124.511 85.6602 125.093 85.539 125.632 85.3038C126.171 85.0686 126.656 84.7245 127.056 84.2929C127.65 83.6151 128.021 82.7692 128.116 81.8717C128.211 80.9742 128.027 80.0691 127.589 79.2809C127.078 78.5146 126.436 77.8444 125.694 77.3012C125.038 76.8834 124.499 76.3048 124.127 75.6201C124.014 75.2537 123.991 74.8654 124.059 74.488C124.127 74.1106 124.285 73.7552 124.519 73.4519C124.733 73.1614 124.986 72.9023 125.271 72.682C126.315 72.6269 127.341 72.9756 128.137 73.6561C128.488 74.0515 128.748 74.5201 128.896 75.0282C129.045 75.5362 129.08 76.071 128.998 76.5942C128.958 76.8566 129.022 77.1245 129.178 77.3393C129.333 77.5542 129.567 77.6987 129.829 77.7412H129.985C130.222 77.7442 130.452 77.6617 130.633 77.5088C130.814 77.356 130.934 77.1429 130.972 76.9084C131.103 76.0853 131.049 75.243 130.813 74.4437C130.578 73.6443 130.166 72.9081 129.609 72.2892C129.163 71.8447 128.629 71.4971 128.043 71.268C129.544 70.8083 131.161 70.9201 132.585 71.5822C133.419 72.0026 134.073 72.7112 134.427 73.5775C134.781 74.4437 134.811 75.4091 134.512 76.2957C134.409 76.5362 134.401 76.8072 134.492 77.0528C134.582 77.2984 134.763 77.4998 134.997 77.6155C135.238 77.7279 135.514 77.7397 135.763 77.6484C136.013 77.557 136.216 77.37 136.329 77.1284C136.845 75.8004 136.861 74.3291 136.374 72.9901C135.886 71.6511 134.929 70.5361 133.682 69.8539Z" fill="#C16B5B"/>
<path d="M25.4989 85.2985C30.605 91.3946 38.6713 93.06 43.4954 88.9907C48.3196 84.9214 48.1159 76.6728 43.0099 70.5766C37.9038 64.4805 29.8375 62.7208 25.0134 66.8687C20.1892 71.0166 20.3928 79.1866 25.4989 85.2985Z" fill="#FFD3B3"/>
<path d="M28.3498 69.8539C29.5671 69.2905 30.8962 69.0118 32.2365 69.039C33.5769 69.0663 34.8936 69.3986 36.0872 70.011C37.2603 70.5046 38.2818 71.3016 39.0475 72.3206C39.4735 72.8938 39.7534 73.5628 39.8626 74.2694C39.9718 74.9759 39.907 75.6986 39.674 76.3742C39.1998 77.3875 38.4644 78.2554 37.5438 78.8881C36.9937 79.2891 36.5123 79.7773 36.1185 80.3336C35.888 80.7467 35.7936 81.2224 35.8485 81.6926C35.9035 82.1628 36.1052 82.6036 36.4247 82.952C36.7443 83.3004 37.1654 83.5387 37.628 83.6327C38.0905 83.7268 38.5709 83.6719 39.0005 83.4759C39.1207 83.4001 39.2555 83.3508 39.3961 83.3313C39.5367 83.3117 39.6799 83.3223 39.8161 83.3624C39.9523 83.4025 40.0784 83.4711 40.1862 83.5638C40.294 83.6564 40.3809 83.771 40.4412 83.8999C40.5016 84.0288 40.5339 84.169 40.5362 84.3114C40.5384 84.4538 40.5105 84.595 40.4542 84.7257C40.398 84.8565 40.3147 84.9737 40.2099 85.0697C40.1051 85.1658 39.9812 85.2384 39.8463 85.2827C39.3029 85.5395 38.7083 85.6685 38.1077 85.6598C37.5199 85.6602 36.9384 85.539 36.3994 85.3038C35.8605 85.0686 35.3756 84.7245 34.9752 84.2929C34.3768 83.6173 34.0039 82.7711 33.9084 81.8725C33.8129 80.9739 33.9997 80.0678 34.4426 79.2809C34.9537 78.5146 35.5952 77.8444 36.3378 77.3012C36.9938 76.8834 37.5328 76.3048 37.9041 75.6201C38.0172 75.2537 38.0407 74.8654 37.9725 74.488C37.9043 74.1106 37.7466 73.7552 37.5125 73.4519C37.2946 73.1651 37.042 72.9065 36.7607 72.682C35.7162 72.6269 34.6904 72.9756 33.8944 73.6561C33.5433 74.0515 33.2839 74.5201 33.1349 75.0282C32.986 75.5362 32.9511 76.071 33.033 76.5942C33.0736 76.8566 33.0091 77.1245 32.8536 77.3393C32.6981 77.5542 32.4641 77.6987 32.2028 77.7412H32.0462C31.8095 77.7442 31.5796 77.6617 31.3985 77.5088C31.2173 77.356 31.097 77.1429 31.0595 76.9084C30.9246 76.0852 30.9771 75.2421 31.2131 74.4422C31.4491 73.6422 31.8624 72.9062 32.4221 72.2892C32.8689 71.8447 33.402 71.4971 33.9884 71.268C32.4874 70.8083 30.8701 70.9201 29.4462 71.5822C28.6123 72.0026 27.9581 72.7112 27.604 73.5775C27.25 74.4437 27.22 75.4091 27.5197 76.2957C27.6258 76.5376 27.6327 76.8117 27.5389 77.0587C27.4451 77.3057 27.2582 77.5057 27.0185 77.6155C26.9003 77.6708 26.7724 77.7021 26.6421 77.7076C26.5118 77.713 26.3817 77.6925 26.2594 77.6472C26.137 77.6019 26.0248 77.5327 25.9293 77.4437C25.8338 77.3546 25.7568 77.2475 25.7028 77.1284C25.1866 75.8004 25.1706 74.3291 25.6579 72.9901C26.1451 71.6511 27.1021 70.5361 28.3498 69.8539Z" fill="#C16B5B"/>
<path d="M107.462 107.31L81.0076 108.882L54.5532 107.31C63.1991 112.668 62.6352 130.139 62.6352 130.139C66.9581 134.853 81.0076 134.853 81.0076 134.853C81.0076 134.853 95.1041 134.853 99.3644 130.139C99.3644 130.139 98.7692 112.668 107.462 107.31Z" fill="#FFD3B3"/>
<path d="M108.214 19.0582C99.8817 13.9676 89.8105 12.5064 80.0213 12.5221C73.444 12.4209 66.8881 13.2999 60.5681 15.1303C54.2212 16.9792 48.4587 20.4432 43.8403 25.1857C38.4594 31.2324 35.164 38.8575 34.4426 46.9306C33.728 54.9621 34.6499 63.0554 37.1523 70.718C46.5243 58.7496 52.363 44.3849 54.0054 29.255C56.3409 33.7685 59.4535 37.8323 63.1995 41.2587C72.5261 42.838 81.9422 43.8298 91.3925 44.2282L88.9021 38.3364L93.6009 44.3225C95.3708 44.3225 97.1564 44.4168 98.9262 44.4325L97.0311 41.9343C98.0102 42.8555 99.0574 43.7011 100.164 44.4639C107.744 44.4639 115.31 44.1811 122.812 43.4898C123.438 33.7171 116.547 24.1644 108.214 19.0582Z" fill="#3D2614"/>
</g>
</g>
<defs>
<clipPath id="clip0_143_133">
<rect width="162" height="187" fill="white"/>
</clipPath>
</defs>
</svg>
