<svg width="162" height="190" viewBox="0 0 162 190" fill="none" xmlns="http://www.w3.org/2000/svg">
<g clip-path="url(#clip0_143_219)">
<mask id="mask0_143_219" style="mask-type:luminance" maskUnits="userSpaceOnUse" x="-19" y="-7" width="197" height="198">
<path d="M79.8019 190.361C133.97 190.361 177.882 146.302 177.882 91.9511C177.882 37.6007 133.97 -6.45911 79.8019 -6.45911C25.6337 -6.45911 -18.2783 37.6007 -18.2783 91.9511C-18.2783 146.302 25.6337 190.361 79.8019 190.361Z" fill="white"/>
</mask>
<g mask="url(#mask0_143_219)">
<path d="M38.1075 75.497C36.7182 74.9146 35.4659 74.0466 34.4315 72.9488C33.397 71.851 32.6033 70.5479 32.1016 69.1235C31.5999 67.6991 31.4012 66.1849 31.5184 64.6788C31.6356 63.1726 32.0661 61.7078 32.7822 60.3788C32.4583 60.1863 32.1815 59.9235 31.9721 59.6097C31.7626 59.2959 31.6258 58.939 31.5718 58.5653C31.5177 58.1915 31.5477 57.8104 31.6596 57.4498C31.7714 57.0891 31.9624 56.7582 32.2183 56.4813C30.0825 54.8007 28.4125 52.598 27.3685 50.0841C26.3244 47.5702 25.9412 44.8294 26.2556 42.1243C26.57 39.4193 27.5715 36.8405 29.164 34.6351C30.7566 32.4298 32.8869 30.6717 35.3509 29.5293C35.4709 28.6743 35.7747 27.8557 36.2414 27.1302C36.708 26.4047 37.3263 25.7897 38.0534 25.3277C38.7804 24.8658 39.5989 24.568 40.4521 24.455C41.3052 24.342 42.1727 24.4165 42.9943 24.6732C39.5798 10.1364 66.9113 -7.65349 88.5886 5.18604C91.8194 2.44134 95.7655 0.681707 99.961 0.114989C104.156 -0.451728 108.426 0.198145 112.265 1.98785C116.104 3.77755 119.353 6.63231 121.627 10.2149C123.901 13.7976 125.106 17.9584 125.099 22.2059C126.307 22.6844 127.303 23.5823 127.907 24.736C128.51 25.8898 128.681 27.2227 128.388 28.4921C130.147 29.5295 131.629 30.9789 132.709 32.7163C133.788 34.4537 134.433 36.4275 134.586 38.469C134.74 40.5105 134.399 42.559 133.593 44.4396C132.786 46.3201 131.538 47.9768 129.954 49.2679C131.313 50.753 132.102 52.6734 132.183 54.6877C132.263 56.702 131.629 58.6796 130.393 60.2688C131.646 62.6978 132.134 65.4516 131.793 68.1654C131.452 70.8793 130.297 73.425 128.482 75.4656C110.61 77.6343 92.5513 79.9759 74.5861 80.416C62.4005 80.6674 49.557 79.5988 38.1075 75.497Z" fill="#B7403D"/>
<path d="M155.124 159.37C149.705 149.941 112.835 131.318 81.0078 131.318C49.1811 131.318 12.3266 149.973 6.90728 159.37C1.48796 168.768 0 189.984 0 189.984H162.016C162.016 189.984 160.528 168.753 155.124 159.37Z" fill="#583D71"/>
<path d="M80.6477 139.915C79.8541 146.054 79.2485 152.267 78.8308 158.553C78.4706 164.745 78.3453 170.968 78.4392 177.176C78.4392 180.696 78.5645 184.217 78.8151 187.737C78.8151 188.208 79.5513 188.208 79.5356 187.737C79.1754 181.545 79.0501 175.322 79.1597 169.114C79.2694 162.906 79.5826 156.699 80.1465 150.507C80.4597 146.997 80.8461 143.493 81.3055 139.993C81.3055 139.538 80.6477 139.553 80.585 139.993L80.6477 139.915Z" fill="#362549"/>
<path d="M74.4137 157.768C75.5555 157.768 76.4812 156.839 76.4812 155.693C76.4812 154.547 75.5555 153.619 74.4137 153.619C73.2718 153.619 72.3462 154.547 72.3462 155.693C72.3462 156.839 73.2718 157.768 74.4137 157.768Z" fill="#362549"/>
<path d="M73.7716 171.66C74.9134 171.66 75.8391 170.731 75.8391 169.586C75.8391 168.44 74.9134 167.511 73.7716 167.511C72.6297 167.511 71.7041 168.44 71.7041 169.586C71.7041 170.731 72.6297 171.66 73.7716 171.66Z" fill="#362549"/>
<path d="M75.8391 182.535C75.8391 182.945 75.7178 183.346 75.4906 183.688C75.2635 184.029 74.9406 184.295 74.5628 184.452C74.185 184.609 73.7693 184.65 73.3682 184.57C72.9672 184.49 72.5988 184.292 72.3097 184.002C72.0205 183.712 71.8236 183.342 71.7438 182.94C71.6641 182.537 71.705 182.12 71.8615 181.741C72.018 181.362 72.283 181.038 72.623 180.81C72.9629 180.582 73.3627 180.461 73.7716 180.461C74.3199 180.461 74.8458 180.679 75.2335 181.068C75.6212 181.457 75.8391 181.985 75.8391 182.535Z" fill="#362549"/>
<path d="M115.027 33.2853C108.011 22.4888 94.6659 18.8428 81.0079 18.8428C67.35 18.8428 54.0053 22.4888 47.0041 33.2853C32.7666 55.2869 38.6402 98.3945 57.3258 112.806C64.2022 117.811 72.5142 120.436 81.0079 120.286C89.5017 120.436 97.8138 117.811 104.69 112.806C123.391 98.3945 129.265 55.2084 115.027 33.2853Z" fill="#FFC28F"/>
<path d="M40.2845 75.8114C43.558 73.9255 44.2002 69.5252 44.3881 65.7692C44.5552 62.6995 44.6492 59.635 44.6701 56.5757C47.6382 54.7827 50.1318 52.2981 51.9395 49.3326C53.7472 46.3671 54.8157 43.0081 55.0545 39.5401C55.4399 40.2556 56.0634 40.8126 56.8161 41.1141C57.5689 41.4157 58.4033 41.4426 59.1738 41.1902C59.1738 40.483 59.0485 39.7601 59.0015 39.0372C62.911 40.6318 67.1661 41.1804 71.3503 40.6295C75.5346 40.0785 79.5045 38.4468 82.8716 35.8941C84.039 36.7868 85.4249 37.3471 86.8831 37.5158C88.3413 37.6845 89.8178 37.4555 91.1572 36.8528C91.7661 38.4913 92.7472 39.9648 94.0228 41.1565C95.2983 42.3482 96.8331 43.2252 98.5054 43.7179C100.178 44.2106 101.941 44.3054 103.656 43.9948C105.372 43.6843 106.991 42.9769 108.386 41.9289C108.798 43.1914 109.679 44.2458 110.846 44.8724C112.013 45.499 113.376 45.6493 114.651 45.292C113.839 50.0826 114.328 55.0043 116.067 59.5396C117.807 64.075 120.731 68.0564 124.535 71.0653C125.521 62.6104 126.743 53.9512 125.427 45.5591C124.112 37.1671 120.494 28.8222 113.993 23.3532C105.551 16.2341 93.6319 14.9454 82.6679 15.1811C75.8881 15.1311 69.1413 16.133 62.6666 18.1514C56.1538 20.1796 50.4786 24.2848 46.5026 29.8437C42.9785 35.1869 41.6472 41.6303 40.4098 47.9165C38.5773 57.1729 37.7001 66.7436 40.2845 75.8114Z" fill="#B7403D"/>
<path d="M100.336 70.861C100.336 71.6816 100.093 72.4838 99.639 73.166C99.1846 73.8483 98.5388 74.3801 97.7833 74.6941C97.0277 75.0081 96.1963 75.0903 95.3942 74.9302C94.5921 74.7701 93.8553 74.375 93.277 73.7947C92.6987 73.2145 92.3049 72.4753 92.1454 71.6704C91.9858 70.8656 92.0677 70.0314 92.3807 69.2733C92.6936 68.5152 93.2236 67.8673 93.9036 67.4114C94.5836 66.9555 95.3831 66.7122 96.2009 66.7122C97.2976 66.7122 98.3493 67.1493 99.1248 67.9273C99.9002 68.7054 100.336 69.7607 100.336 70.861Z" fill="black"/>
<path d="M95.8717 69.478C95.8717 69.7242 95.7987 69.9648 95.662 70.1693C95.5253 70.3738 95.3312 70.5329 95.1042 70.6264C94.8771 70.7199 94.6276 70.7435 94.3871 70.6943C94.1467 70.6452 93.9262 70.5253 93.7538 70.3501C93.5814 70.1749 93.4648 69.9522 93.4189 69.7104C93.3729 69.4685 93.3997 69.2184 93.4957 68.9918C93.5918 68.7653 93.7528 68.5725 93.9583 68.438C94.1639 68.3035 94.4046 68.2333 94.65 68.2364C94.8118 68.2364 94.9719 68.2686 95.1212 68.3312C95.2704 68.3938 95.4058 68.4855 95.5194 68.601C95.6331 68.7165 95.7228 68.8535 95.7832 69.004C95.8437 69.1546 95.8738 69.3157 95.8717 69.478Z" fill="white"/>
<path d="M69.9657 70.861C69.9657 71.6816 69.7232 72.4838 69.2689 73.166C68.8145 73.8483 68.1687 74.3801 67.4132 74.6941C66.6576 75.0081 65.8262 75.0903 65.0241 74.9302C64.222 74.7701 63.4852 74.375 62.9069 73.7947C62.3286 73.2145 61.9348 72.4753 61.7753 71.6704C61.6157 70.8656 61.6976 70.0314 62.0106 69.2733C62.3235 68.5152 62.8535 67.8673 63.5335 67.4114C64.2135 66.9555 65.013 66.7122 65.8308 66.7122C66.9274 66.7122 67.9792 67.1493 68.7546 67.9273C69.5301 68.7054 69.9657 69.7607 69.9657 70.861Z" fill="black"/>
<path d="M65.5172 69.478C65.5172 69.7235 65.4446 69.9635 65.3087 70.1677C65.1727 70.3719 64.9795 70.531 64.7534 70.625C64.5273 70.7189 64.2785 70.7435 64.0384 70.6956C63.7984 70.6477 63.5779 70.5295 63.4049 70.3558C63.2318 70.1822 63.114 69.961 63.0663 69.7202C63.0185 69.4793 63.043 69.2297 63.1367 69.0028C63.2303 68.776 63.3889 68.5821 63.5924 68.4457C63.7959 68.3092 64.0351 68.2364 64.2798 68.2364C64.4429 68.2343 64.6048 68.265 64.7558 68.3266C64.9069 68.3883 65.0441 68.4797 65.1595 68.5954C65.2748 68.7111 65.3659 68.8488 65.4273 69.0004C65.4887 69.1519 65.5193 69.3143 65.5172 69.478Z" fill="white"/>
<path d="M77.3743 85.4136C77.2354 85.4119 77.1007 85.365 76.9906 85.28C76.8804 85.195 76.8007 85.0764 76.7635 84.9421C75.5574 80.7618 76.9671 79.3474 78.3297 78.8916C79.203 78.6954 80.1086 78.6937 80.9826 78.8864C81.8567 79.0792 82.678 79.4619 83.3888 80.0074C83.4608 80.0508 83.5234 80.1083 83.5728 80.1765C83.6223 80.2446 83.6575 80.3221 83.6765 80.4042C83.6955 80.4863 83.6978 80.5714 83.6834 80.6544C83.669 80.7374 83.638 80.8167 83.5924 80.8875C83.4995 81.0271 83.3571 81.1259 83.1942 81.1638C83.0312 81.2018 82.86 81.176 82.7153 81.0918C82.1712 80.6669 81.5446 80.3607 80.8757 80.1929C80.2068 80.0251 79.5103 79.9994 78.8309 80.1174C77.5623 80.5103 77.2647 82.019 78.0478 84.5963C78.0716 84.6768 78.079 84.7613 78.0697 84.8447C78.0605 84.9281 78.0346 85.0088 77.9937 85.0821C77.9529 85.1553 77.8978 85.2196 77.8317 85.2711C77.7657 85.3227 77.6901 85.3604 77.6092 85.3821L77.3743 85.4136Z" fill="#C16B5B"/>
<path d="M105.457 56.9056C103.151 55.5174 100.575 54.6418 97.9027 54.3382C95.2304 54.0345 92.5242 54.3098 89.967 55.1455C89.7387 55.2095 89.5252 55.318 89.3387 55.4647C89.1521 55.6115 88.9962 55.7937 88.8799 56.0009C88.6449 56.4194 88.5852 56.9145 88.714 57.3771C88.8428 57.8398 89.1494 58.2321 89.5665 58.4679C89.9836 58.7037 90.477 58.7636 90.9381 58.6343C93.0268 57.9271 95.2443 57.6858 97.4355 57.9274C99.6268 58.1689 101.739 58.8876 103.625 60.033C105.661 61.2588 107.494 58.1157 105.457 56.9056Z" fill="#B7403D"/>
<path d="M57.4824 56.9056C59.7866 55.5196 62.3601 54.6453 65.0296 54.3417C67.699 54.0381 70.4023 54.3122 72.9572 55.1455C73.1855 55.2084 73.3992 55.3159 73.5862 55.4617C73.7731 55.6075 73.9296 55.7889 74.0466 55.9954C74.1637 56.2019 74.2391 56.4295 74.2685 56.6652C74.2979 56.9009 74.2808 57.1402 74.2181 57.3692C74.1553 57.5983 74.0482 57.8128 73.9029 58.0003C73.7576 58.1879 73.5769 58.3449 73.3711 58.4623C73.1653 58.5798 72.9384 58.6555 72.7035 58.685C72.4685 58.7145 72.2301 58.6973 72.0018 58.6343C69.9131 57.927 67.6956 57.6858 65.5044 57.9273C63.3131 58.1689 61.2008 58.8875 59.3149 60.033C58.9016 60.2768 58.4087 60.3459 57.9446 60.2251C57.4805 60.1043 57.0832 59.8034 56.8402 59.3887C56.5972 58.974 56.5284 58.4794 56.6488 58.0137C56.7692 57.548 57.0691 57.1495 57.4824 56.9056Z" fill="#B7403D"/>
<path d="M90.7033 90.7411C89.4973 88.9338 86.4274 90.8825 82.7309 91.2125C79.0345 91.5426 75.6514 90.2067 74.7899 92.2026C73.7249 94.7171 77.4526 100.406 83.5141 99.856C89.5756 99.306 92.2069 93.0198 90.7033 90.7411Z" fill="#8E4136"/>
<path d="M90.5466 94.7642C89.3033 94.711 88.0578 94.7425 86.8188 94.8585C82.5272 95.2514 78.9874 96.4301 77.3115 97.9073C78.1706 98.6398 79.1686 99.19 80.2453 99.5249C81.3221 99.8599 82.4553 99.9725 83.5766 99.8561C85.0857 99.7092 86.5281 99.1595 87.7538 98.264C88.9795 97.3686 89.9438 96.1601 90.5466 94.7642Z" fill="#C16B5B"/>
<path d="M82.9186 93.3027C86.2078 93.0041 88.9488 91.9511 89.8103 90.1596C88.244 89.7038 85.7066 91.0239 82.7307 91.2911C79.7547 91.5582 76.9511 90.741 75.5571 91.4639C76.7318 93.0826 79.6138 93.6012 82.9186 93.3027Z" fill="white"/>
<path d="M136.501 88.2894C131.395 94.4027 123.345 96.0528 118.505 91.9825C113.665 87.9122 113.9 79.6616 119.006 73.564C124.112 67.4664 132.163 65.8006 137.002 69.8552C141.842 73.9098 141.607 82.1761 136.501 88.2894Z" fill="#FFC28F"/>
<path d="M133.65 72.8568C132.435 72.2863 131.106 72.0023 129.765 72.0269C128.424 72.0514 127.106 72.3837 125.913 72.9983C124.754 73.4862 123.74 74.2656 122.968 75.2613C122.544 75.8356 122.265 76.504 122.153 77.2098C122.041 77.9156 122.1 78.638 122.326 79.3159C122.8 80.3294 123.536 81.1975 124.456 81.8304C125.015 82.2217 125.498 82.7116 125.881 83.2762C126.112 83.6894 126.206 84.1652 126.151 84.6355C126.096 85.1058 125.895 85.5467 125.575 85.8952C125.256 86.2437 124.835 86.482 124.372 86.5762C123.909 86.6703 123.429 86.6154 122.999 86.4193C122.881 86.3639 122.753 86.3326 122.623 86.3272C122.493 86.3217 122.363 86.3422 122.24 86.3875C122.118 86.4328 122.006 86.502 121.91 86.5911C121.815 86.6802 121.738 86.7873 121.684 86.9065C121.572 87.1482 121.56 87.4247 121.651 87.6752C121.742 87.9257 121.928 88.1297 122.169 88.2423C122.715 88.4916 123.308 88.6203 123.908 88.6194C124.657 88.6321 125.397 88.4439 126.049 88.0744C126.702 87.7048 127.245 87.1672 127.621 86.5171C127.998 85.8669 128.195 85.1277 128.192 84.3757C128.189 83.6237 127.986 82.8861 127.604 82.239C127.103 81.4656 126.466 80.7895 125.725 80.2431C125.067 79.8274 124.527 79.2481 124.159 78.5615C124.051 78.1934 124.033 77.8051 124.103 77.4282C124.174 77.0514 124.333 76.6966 124.566 76.3928C124.775 76.0986 125.029 75.8388 125.318 75.6227C126.365 75.5687 127.392 75.9236 128.184 76.6128C128.536 77.0047 128.796 77.4707 128.945 77.9764C129.094 78.4822 129.128 79.0151 129.045 79.5359C129.023 79.6661 129.027 79.7995 129.057 79.9282C129.087 80.0568 129.142 80.1782 129.219 80.2851C129.297 80.392 129.395 80.4823 129.507 80.5507C129.62 80.619 129.745 80.6641 129.875 80.6831H130.032C130.269 80.6861 130.499 80.6037 130.68 80.4508C130.861 80.2979 130.981 80.0847 131.019 79.8502C131.151 79.0293 131.098 78.189 130.862 77.3918C130.626 76.5945 130.214 75.861 129.656 75.2456C129.209 74.7977 128.676 74.4449 128.09 74.2084C129.591 73.7471 131.209 73.859 132.632 74.5227C133.467 74.9431 134.122 75.651 134.479 76.5169C134.835 77.3827 134.869 78.3484 134.574 79.2373C134.519 79.3559 134.488 79.4842 134.482 79.615C134.477 79.7457 134.497 79.8762 134.543 79.999C134.588 80.1217 134.657 80.2343 134.746 80.3301C134.834 80.426 134.941 80.5032 135.06 80.5574C135.301 80.6698 135.576 80.6817 135.826 80.5903C136.076 80.499 136.279 80.3119 136.391 80.0702C136.882 78.7387 136.875 77.2735 136.371 75.9469C135.867 74.6202 134.9 73.5222 133.65 72.8568Z" fill="#C16B5B"/>
<path d="M25.5775 88.2895C30.6836 94.4028 38.7499 96.0529 43.574 91.9826C48.3982 87.9123 48.1945 79.6617 43.0885 73.5641C37.9824 67.4665 29.8534 65.8321 25.0293 69.8552C20.2052 73.8784 20.4088 82.1762 25.5775 88.2895Z" fill="#FFC28F"/>
<path d="M28.3495 72.8569C29.5672 72.2861 30.8987 72.0021 32.2424 72.0266C33.5861 72.0511 34.9065 72.3835 36.1026 72.9983C37.2627 73.4844 38.2773 74.2641 39.0472 75.2613C39.4798 75.8406 39.7633 76.518 39.8726 77.2334C39.9819 77.9489 39.9136 78.6804 39.6737 79.3631C39.1995 80.3766 38.4641 81.2447 37.5436 81.8775C36.9888 82.2732 36.5065 82.7624 36.1183 83.3234C35.8878 83.7366 35.7933 84.2123 35.8483 84.6827C35.9033 85.153 36.1049 85.5939 36.4245 85.9424C36.744 86.2909 37.1651 86.5292 37.6277 86.6233C38.0903 86.7174 38.5706 86.6625 39.0002 86.4665C39.2412 86.354 39.5168 86.3422 39.7664 86.4335C40.0161 86.5249 40.2193 86.712 40.3316 86.9536C40.4384 87.1979 40.4457 87.4743 40.3521 87.7239C40.2584 87.9736 40.0712 88.1765 39.8304 88.2894C39.2845 88.5388 38.6916 88.6674 38.0918 88.6666C37.3424 88.6793 36.6032 88.4911 35.9505 88.1215C35.2977 87.752 34.755 87.2144 34.3784 86.5642C34.0017 85.9141 33.8047 85.1749 33.8077 84.4229C33.8107 83.6709 34.0136 82.9333 34.3954 82.2861C34.8981 81.5086 35.5408 80.8317 36.2906 80.2903C36.9461 79.8718 37.485 79.2932 37.8568 78.6087C37.9639 78.2406 37.9828 77.8523 37.9121 77.4754C37.8413 77.0986 37.6828 76.7438 37.4496 76.44C37.2403 76.1458 36.9867 75.886 36.6978 75.6699C35.6554 75.6151 34.6327 75.9702 33.8472 76.66C33.4936 77.0512 33.2314 77.5165 33.0797 78.0222C32.9279 78.5278 32.8905 79.0611 32.9701 79.5831C32.9925 79.7121 32.9891 79.8444 32.9602 79.9722C32.9313 80.0999 32.8774 80.2207 32.8016 80.3274C32.7259 80.4341 32.6298 80.5246 32.5189 80.5938C32.408 80.663 32.2845 80.7094 32.1556 80.7303H31.9833C31.7493 80.7296 31.5232 80.6454 31.3453 80.4928C31.1674 80.3402 31.0494 80.1292 31.0122 79.8974C30.8763 79.0764 30.9284 78.2352 31.1645 77.4374C31.4005 76.6397 31.8145 75.9063 32.3749 75.2928C32.8178 74.8396 33.3517 74.486 33.9412 74.2555C32.4401 73.7957 30.8228 73.9076 29.399 74.5698C28.5645 74.9903 27.9089 75.6982 27.5523 76.564C27.1956 77.4299 27.1617 78.3956 27.4568 79.2845C27.5113 79.4032 27.542 79.5314 27.5471 79.662C27.5522 79.7926 27.5316 79.9229 27.4865 80.0454C27.4414 80.168 27.3727 80.2805 27.2843 80.3764C27.1959 80.4724 27.0895 80.5499 26.9712 80.6046C26.853 80.6593 26.7251 80.6901 26.595 80.6952C26.4649 80.7003 26.335 80.6796 26.2128 80.6344C26.0907 80.5892 25.9786 80.5202 25.8829 80.4315C25.7873 80.3428 25.7101 80.2361 25.6556 80.1174C25.1405 78.7862 25.1303 77.3115 25.6269 75.9733C26.1234 74.635 27.0923 73.5261 28.3495 72.8569Z" fill="#C16B5B"/>
<path d="M107.478 110.307L81.0076 111.878L54.5532 110.307C63.2617 115.666 62.6509 133.094 62.6509 133.094C66.9738 137.809 81.0076 137.809 81.0076 137.809C81.0076 137.809 95.1041 137.809 99.3801 133.094C99.3801 133.094 98.7692 115.666 107.478 110.307Z" fill="#FFC28F"/>
<path d="M61.4766 124.073L55.3994 134.634L63.9356 157.767L69.2766 143.404L80.7888 137.856L61.4766 124.073Z" fill="#BFA4E0"/>
<path d="M100.101 124.073L106.178 134.634L97.6417 157.767L92.3007 143.404L80.7886 137.856L100.101 124.073Z" fill="#BFA4E0"/>
</g>
</g>
<defs>
<clipPath id="clip0_143_219">
<rect width="162" height="190" fill="white"/>
</clipPath>
</defs>
</svg>
