<svg width="162" height="190" viewBox="0 0 162 190" fill="none" xmlns="http://www.w3.org/2000/svg">
<g clip-path="url(#clip0_143_251)">
<mask id="mask0_143_251" style="mask-type:luminance" maskUnits="userSpaceOnUse" x="-17" y="-3" width="194" height="194">
<path d="M148.064 162.061C185.736 124.349 185.736 63.2053 148.064 25.4932C110.391 -12.219 49.3114 -12.219 11.6387 25.4932C-26.034 63.2053 -26.034 124.349 11.6387 162.061C49.3114 199.773 110.391 199.773 148.064 162.061Z" fill="white"/>
</mask>
<g mask="url(#mask0_143_251)">
<path d="M47.85 94.7805C41.6217 89.2329 36.5731 82.4868 33.0049 74.9443C29.4367 67.4018 27.4221 59.2174 27.0811 50.8788C26.8932 45.8772 27.7233 40.1543 31.78 37.332C31.2021 37.2909 30.6421 37.1133 30.1461 36.8136C29.65 36.514 29.232 36.1008 28.9263 35.6082C28.6206 35.1155 28.436 34.5573 28.3875 33.9793C28.339 33.4014 28.4281 32.8202 28.6474 32.2834C28.949 31.7878 29.3636 31.3708 29.8573 31.0668C30.3511 30.7628 30.9098 30.5803 31.4877 30.5344C32.0655 30.4885 32.646 30.5804 33.1815 30.8027C33.7169 31.025 34.1921 31.3712 34.568 31.813C38.263 22.099 45.2475 13.9918 54.303 8.90574C63.314 3.89276 73.3336 0.96732 83.6237 0.344918C93.2877 -0.470398 103.249 0.250844 112.24 3.88841C121.23 7.52597 129.187 14.3464 132.883 23.3306C136.58 32.3147 135.452 43.4469 128.967 50.675C130.526 60.193 129.115 69.9606 124.926 78.6466C122.79 82.9768 119.8 86.8291 116.137 89.9711C112.473 93.1131 108.212 95.4799 103.609 96.9285C96.7335 98.9354 89.4033 98.4964 82.2611 97.8693C70.8116 96.8031 59.1428 97.0069 47.85 94.7805Z" fill="#3D2614"/>
<path d="M50.0739 138.902C48.7571 138.351 47.6295 137.427 46.8295 136.244C46.0294 135.061 45.5918 133.67 45.5701 132.242C45.5485 130.814 45.9439 129.41 46.7077 128.203C47.4716 126.997 48.5707 126.039 49.8702 125.449C47.3764 124.866 45.1085 123.563 43.3478 121.701C41.5872 119.839 40.4112 117.501 39.9659 114.977C39.5205 112.452 39.8254 109.852 40.8427 107.499C41.8599 105.147 43.5448 103.145 45.6883 101.742C49.7449 99.0765 54.9606 98.8727 59.7848 99.7507C67.8198 101.271 75.075 105.545 80.303 111.839C86.4509 105.493 94.5356 101.377 103.28 100.143C109.342 99.3117 116.296 100.252 120.165 105.019C121.38 106.635 122.236 108.492 122.676 110.466C123.117 112.44 123.131 114.485 122.718 116.465C121.843 120.428 119.948 124.093 117.22 127.095C118.285 127.944 119.114 129.053 119.626 130.315C120.139 131.577 120.318 132.951 120.146 134.302C119.975 135.654 119.459 136.939 118.647 138.033C117.835 139.127 116.756 139.993 115.513 140.548C94.1332 137.867 69.9029 147.165 50.0739 138.902Z" fill="#E57067"/>
<path d="M155.108 159.426C149.689 150.018 112.819 131.454 80.9922 131.454C49.1655 131.454 12.311 150.065 6.87599 159.426C1.44101 168.786 -0.015625 190 -0.015625 190H161.937C161.937 190 160.528 168.802 155.108 159.426Z" fill="#E57067"/>
<path d="M110.25 172.816C106.89 176.081 102.757 178.439 98.2371 179.667C98.1908 179.68 98.1474 179.701 98.1094 179.73C98.0713 179.759 98.0394 179.796 98.0154 179.837C97.9914 179.879 97.9758 179.925 97.9695 179.972C97.9632 180.02 97.9663 180.068 97.9786 180.114C97.991 180.161 98.0123 180.204 98.0414 180.242C98.0705 180.28 98.1068 180.312 98.1483 180.336C98.1898 180.36 98.2355 180.376 98.283 180.382C98.3305 180.388 98.3787 180.385 98.425 180.373C103.06 179.101 107.299 176.68 110.752 173.333C111.096 173.004 110.579 172.502 110.25 172.816Z" fill="#FF8877"/>
<path d="M112.913 172.643C110.239 177.216 106.21 180.844 101.385 183.023C100.017 183.635 98.5962 184.123 97.1407 184.481C96.7022 184.591 96.8901 185.281 97.3443 185.171C102.621 183.844 107.353 180.901 110.877 176.751C111.881 175.589 112.773 174.335 113.54 173.004C113.775 172.612 113.148 172.251 112.913 172.643Z" fill="#FF8877"/>
<path d="M51.9379 131.046C50.7207 133.27 50.211 135.813 50.4769 138.335C50.7428 140.857 51.7717 143.237 53.4259 145.158C55.0774 146.998 57.2177 148.33 59.597 148.999C62.3066 149.83 65.1416 150.002 67.8826 150.677C70.514 151.317 73.0258 152.376 75.3224 153.813C76.5089 154.552 77.6303 155.391 78.6742 156.321C79.8133 157.152 80.702 158.28 81.2429 159.582C82.0104 162.358 78.1104 163.518 76.1682 164.286C73.7043 165.038 71.4797 166.422 69.7151 168.3C68.8746 169.345 68.3596 170.614 68.2342 171.949C68.1089 173.285 68.3788 174.627 69.0103 175.81C70.373 178.586 73.0826 180.31 75.62 181.894C76.4031 182.38 77.1863 181.141 76.3405 180.655C73.9335 179.432 71.8832 177.606 70.3886 175.356C69.7524 174.243 69.5216 172.944 69.7359 171.68C69.9501 170.416 70.5961 169.266 71.5633 168.425C73.5682 166.544 76.2622 165.838 78.7682 164.772C80.5381 164.02 82.5116 162.781 82.7466 160.68C83.0128 158.218 80.82 156.258 79.1128 154.832C77.1577 153.214 74.9855 151.878 72.6597 150.865C70.2524 149.843 67.7267 149.126 65.1416 148.732C62.4629 148.472 59.8471 147.762 57.4042 146.631C54.8799 145.221 53.0143 142.869 52.2135 140.088C51.4127 137.308 51.7414 134.323 53.1283 131.783C53.5668 130.968 52.3295 130.215 51.8909 131.062L51.9379 131.046Z" fill="white"/>
<path d="M114.949 132.614C115.239 133.085 115.365 133.638 115.309 134.188C115.252 134.739 115.015 135.254 114.636 135.656C113.857 136.464 112.887 137.063 111.816 137.396C109.541 138.217 107.212 138.882 104.846 139.388C100.664 140.375 96.3572 141.473 92.9427 144.233C91.2857 145.406 90.0675 147.1 89.4812 149.046C89.3296 149.914 89.4609 150.808 89.8558 151.596C90.2507 152.384 90.8881 153.023 91.674 153.421C93.4565 154.224 95.1695 155.173 96.7958 156.258C97.6727 157.018 98.2573 158.06 98.4489 159.205C98.6404 160.35 98.4269 161.526 97.8452 162.53C96.9211 164.662 95.4174 166.654 95.3548 169.053C95.2847 169.993 95.5057 170.933 95.9877 171.744C96.4697 172.554 97.1893 173.197 98.0488 173.584C98.9102 173.929 99.2705 172.549 98.4403 172.204C96.4198 171.357 96.6235 168.661 97.2656 167.014C98.0488 164.945 99.4584 163.142 99.8657 160.915C100.04 159.988 99.9883 159.032 99.7157 158.129C99.4431 157.225 98.9573 156.401 98.2994 155.725C96.9234 154.475 95.331 153.487 93.6006 152.809C92.7943 152.487 92.0636 152.001 91.4547 151.382C91.1098 150.937 90.9135 150.395 90.8938 149.832C90.8741 149.269 91.032 148.714 91.3451 148.246C92.502 146.354 94.1686 144.827 96.1536 143.841C100.116 141.645 104.674 141.034 108.997 139.842C111.285 139.403 113.434 138.419 115.262 136.973C116.011 136.31 116.486 135.391 116.593 134.397C116.7 133.402 116.432 132.403 115.842 131.595C115.278 130.874 114.275 131.893 114.839 132.614H114.949Z" fill="white"/>
<path d="M114.949 33.6474C108.011 22.8758 94.5877 19.2383 81.0081 19.2383C67.4285 19.2383 54.0055 22.8758 46.9886 33.6474C32.7511 55.5042 38.6247 98.5905 57.326 112.984C64.2023 117.977 72.5143 120.597 81.0081 120.447C89.5019 120.597 97.8139 117.977 104.69 112.984C123.376 98.5905 129.249 55.5042 114.949 33.6474Z" fill="#FFD3B3"/>
<path d="M36.6355 76.5927C41.8375 67.8149 44.2417 57.6577 43.5271 47.4765C44.4375 47.8239 45.4089 47.9824 46.3824 47.9424C47.3558 47.9024 48.311 47.6648 49.1899 47.244C50.0688 46.8231 50.8531 46.2278 51.4951 45.4942C52.1372 44.7607 52.6236 43.9041 52.9247 42.9766C60.8805 45.9378 69.4136 47.0132 77.8544 46.1182C86.2951 45.2231 94.4138 42.3822 101.573 37.8181C102.461 41.2596 104.325 44.3701 106.941 46.774C109.556 49.1779 112.811 50.7724 116.312 51.3649C114.397 55.5723 113.958 60.304 115.067 64.7923C116.176 69.2806 118.767 73.2622 122.42 76.091C127.84 65.3507 127.48 51.7726 122.89 40.6561C120.552 35.0967 117.062 30.0976 112.65 25.9892C108.238 21.8808 103.005 18.7568 97.2974 16.8237C88.9465 14.3599 80.16 13.7446 71.5478 15.0206C59.6911 16.4318 47.3175 20.4613 40.0186 29.9158C35.1788 36.1875 33.08 44.2309 32.8138 52.1332C32.5475 60.0355 34.9596 68.8472 36.6355 76.5927Z" fill="#3D2614"/>
<path d="M100.32 71.1362C100.32 71.9536 100.078 72.7526 99.6255 73.4326C99.1725 74.1126 98.5285 74.6432 97.7748 74.9574C97.0211 75.2716 96.1913 75.3553 95.39 75.1982C94.5888 75.041 93.852 74.6498 93.2724 74.0741C92.6929 73.4983 92.2967 72.7637 92.1336 71.9628C91.9705 71.162 92.048 70.3307 92.3561 69.5738C92.6643 68.8169 93.1894 68.1683 93.8653 67.7097C94.5411 67.2512 95.3375 67.0031 96.1539 66.9969C96.6996 66.9928 97.2406 67.0968 97.7459 67.303C98.2512 67.5092 98.7108 67.8134 99.0981 68.1982C99.4854 68.583 99.7928 69.0407 100.003 69.5449C100.212 70.0492 100.32 70.59 100.32 71.1362Z" fill="black"/>
<path d="M95.8561 69.7566C95.856 70.0022 95.7831 70.2423 95.6464 70.4463C95.5097 70.6504 95.3155 70.8091 95.0885 70.9024C94.8615 70.9956 94.6119 71.0192 94.3715 70.9702C94.1311 70.9211 93.9106 70.8015 93.7382 70.6267C93.5658 70.4519 93.4492 70.2298 93.4032 69.9885C93.3573 69.7472 93.384 69.4976 93.4801 69.2716C93.5762 69.0456 93.7372 68.8532 93.9427 68.719C94.1482 68.5848 94.389 68.5148 94.6344 68.5179C94.7961 68.5179 94.9563 68.5501 95.1055 68.6125C95.2548 68.6749 95.3902 68.7664 95.5038 68.8817C95.6175 68.9969 95.7071 69.1336 95.7676 69.2837C95.8281 69.4339 95.8581 69.5947 95.8561 69.7566Z" fill="white"/>
<path d="M69.9501 71.1364C69.9501 71.955 69.7076 72.7553 69.2533 73.436C68.7989 74.1167 68.1531 74.6473 67.3975 74.9606C66.642 75.2739 65.8106 75.3558 65.0085 75.1961C64.2063 75.0364 63.4696 74.6422 62.8913 74.0633C62.313 73.4844 61.9192 72.7469 61.7596 71.9439C61.6001 71.141 61.682 70.3087 61.9949 69.5523C62.3079 68.796 62.8379 68.1495 63.5179 67.6947C64.1979 67.2398 64.9973 66.9971 65.8152 66.9971C66.9118 66.9971 67.9636 67.4332 68.739 68.2094C69.5145 68.9857 69.9501 70.0386 69.9501 71.1364Z" fill="black"/>
<path d="M65.5016 69.7566C65.5016 70.0016 65.429 70.241 65.293 70.4447C65.1571 70.6484 64.9638 70.8072 64.7377 70.9009C64.5116 70.9947 64.2628 71.0192 64.0228 70.9714C63.7828 70.9236 63.5623 70.8057 63.3893 70.6324C63.2162 70.4592 63.0984 70.2385 63.0506 69.9982C63.0029 69.758 63.0274 69.5089 63.121 69.2826C63.2147 69.0562 63.3733 68.8628 63.5768 68.7267C63.7803 68.5906 64.0195 68.5179 64.2642 68.5179C64.4273 68.5158 64.5891 68.5464 64.7402 68.6079C64.8913 68.6694 65.0285 68.7606 65.1438 68.876C65.2592 68.9915 65.3502 69.1289 65.4117 69.2801C65.4731 69.4313 65.5037 69.5933 65.5016 69.7566Z" fill="white"/>
<path d="M77.3587 85.6395C77.2211 85.6413 77.0868 85.5978 76.9764 85.5156C76.866 85.4335 76.7857 85.3172 76.7478 85.1848C75.5418 81.0141 76.9514 79.603 78.3141 79.1483C79.1865 78.9536 80.0907 78.9509 80.9642 79.1404C81.8377 79.3299 82.6596 79.7071 83.3732 80.2458C83.5154 80.3362 83.6164 80.4789 83.6545 80.6432C83.6926 80.8074 83.6647 80.98 83.5768 81.1239C83.4863 81.2658 83.345 81.3676 83.1819 81.4084C83.0188 81.4492 82.8462 81.4259 82.6997 81.3434C82.1525 80.9009 81.5177 80.5798 80.8373 80.4014C80.1568 80.223 79.4463 80.1913 78.7527 80.3086C77.4996 80.7162 77.1864 82.2214 77.9695 84.7771C78.0185 84.9393 78.0016 85.1143 77.9224 85.264C77.8432 85.4138 77.7082 85.5262 77.5466 85.5768L77.3587 85.6395Z" fill="#C16B5B"/>
<path d="M89.4816 91.1273C87.71 92.7451 85.5404 93.8621 83.1954 94.3635C80.8503 94.865 78.4142 94.7329 76.1369 93.9809C74.8056 93.5419 74.226 95.6429 75.5574 96.0819C78.203 96.9352 81.0278 97.0683 83.7418 96.4676C86.4558 95.8669 88.9612 94.5541 91.0009 92.6638C92.0346 91.7231 90.4997 90.1865 89.4816 91.1273Z" fill="#C16B5B"/>
<path d="M105.551 57.2132C103.248 55.8278 100.675 54.9528 98.006 54.6471C95.3366 54.3415 92.6327 54.6124 90.0767 55.4414C89.6189 55.5768 89.2313 55.8841 88.9948 56.2991C88.7583 56.7141 88.6914 57.2046 88.808 57.6679C88.9397 58.1283 89.2461 58.5189 89.6617 58.7562C90.0773 58.9936 90.5691 59.0588 91.0321 58.9379C93.1208 58.2322 95.3382 57.9915 97.5295 58.2325C99.7208 58.4736 101.833 59.1905 103.719 60.3333C104.132 60.5766 104.625 60.6455 105.089 60.525C105.553 60.4044 105.951 60.1043 106.194 59.6905C106.437 59.2767 106.506 58.7833 106.385 58.3187C106.265 57.8541 105.965 57.4565 105.551 57.2132Z" fill="#3D2614"/>
<path d="M57.4668 57.2132C59.7718 55.8255 62.3475 54.9493 65.0198 54.6436C67.6922 54.3379 70.399 54.61 72.9572 55.4415C73.4121 55.58 73.7961 55.8887 74.0294 56.3033C74.2628 56.718 74.3276 57.2067 74.2103 57.6679C74.0821 58.1306 73.7763 58.5238 73.3597 58.7617C72.943 58.9997 72.4493 59.063 71.9862 58.9379C69.8974 58.2322 67.68 57.9915 65.4887 58.2325C63.2975 58.4736 61.1851 59.1905 59.2993 60.3333C58.886 60.5766 58.3931 60.6456 57.929 60.525C57.4649 60.4044 57.0676 60.1043 56.8246 59.6905C56.5816 59.2767 56.5127 58.7833 56.6332 58.3187C56.7536 57.8541 57.0534 57.4565 57.4668 57.2132Z" fill="#3D2614"/>
<path d="M136.486 88.5245C131.38 94.608 123.329 96.27 118.489 92.2091C113.649 88.1482 113.884 79.9166 118.99 73.8174C124.096 67.7182 132.147 66.0719 136.987 70.1328C141.827 74.1937 141.576 82.4253 136.486 88.5245Z" fill="#FFD3B3"/>
<path d="M133.65 73.1118C132.434 72.545 131.105 72.2644 129.763 72.2916C128.422 72.3188 127.105 72.653 125.913 73.2686C124.733 73.7646 123.71 74.5721 122.953 75.6048C122.527 76.1738 122.247 76.8388 122.137 77.5414C122.028 78.244 122.093 78.9627 122.326 79.6344C122.794 80.6494 123.524 81.5209 124.44 82.1587C124.998 82.544 125.481 83.0274 125.866 83.5855C126.096 83.9978 126.191 84.4725 126.136 84.9417C126.081 85.411 125.879 85.8508 125.56 86.1985C125.24 86.5462 124.819 86.784 124.356 86.8779C123.894 86.9718 123.413 86.917 122.984 86.7214C122.866 86.6668 122.738 86.6361 122.608 86.631C122.477 86.6259 122.348 86.6465 122.225 86.6916C122.103 86.7367 121.991 86.8055 121.896 86.894C121.8 86.9825 121.723 87.089 121.668 87.2074C121.614 87.3258 121.583 87.4538 121.578 87.584C121.573 87.7143 121.593 87.8443 121.638 87.9666C121.684 88.0889 121.752 88.2011 121.841 88.2968C121.929 88.3925 122.035 88.4699 122.154 88.5245C122.7 88.7732 123.293 88.9016 123.892 88.9008C124.642 88.9134 125.381 88.7257 126.034 88.3569C126.686 87.9882 127.229 87.4519 127.606 86.8032C127.982 86.1546 128.179 85.4171 128.176 84.6668C128.173 83.9165 127.971 83.1806 127.589 82.535C127.087 81.768 126.45 81.0986 125.709 80.5594C125.053 80.1425 124.514 79.5651 124.143 78.8818C124.03 78.5136 124.006 78.1236 124.074 77.7445C124.143 77.3654 124.3 77.008 124.534 76.7024C124.749 76.4174 125.002 76.164 125.286 75.9498C126.33 75.898 127.355 76.2455 128.153 76.9219C128.511 77.3155 128.778 77.7845 128.932 78.2945C129.087 78.8045 129.125 79.3427 129.045 79.8696C129.023 79.9995 129.027 80.1325 129.057 80.2609C129.087 80.3893 129.142 80.5104 129.219 80.617C129.297 80.7237 129.395 80.8138 129.507 80.882C129.62 80.9502 129.745 80.9951 129.875 81.0141H130.032C130.269 81.0171 130.499 80.9349 130.68 80.7823C130.861 80.6298 130.981 80.4171 131.019 80.1831C131.148 79.3678 131.093 78.534 130.86 77.7421C130.627 76.9503 130.221 76.2202 129.672 75.6048C129.223 75.1636 128.691 74.817 128.106 74.5857C129.605 74.1163 131.227 74.2282 132.648 74.8993C133.485 75.3162 134.142 76.0222 134.499 76.8869C134.856 77.7516 134.888 78.7164 134.59 79.603C134.53 79.723 134.495 79.8537 134.487 79.9875C134.478 80.1213 134.496 80.2554 134.541 80.382C134.585 80.5086 134.654 80.625 134.744 80.7244C134.834 80.8238 134.942 80.9041 135.064 80.9607C135.185 81.0173 135.317 81.0489 135.451 81.0538C135.584 81.0586 135.718 81.0366 135.843 80.989C135.968 80.9413 136.083 80.8691 136.18 80.7764C136.276 80.6838 136.354 80.5727 136.407 80.4497C136.933 79.1016 136.942 77.6065 136.433 76.2519C135.925 74.8972 134.933 73.7788 133.65 73.1118Z" fill="#C16B5B"/>
<path d="M25.4989 88.5245C30.605 94.608 38.6713 96.27 43.4954 92.2091C48.3196 88.1482 48.1159 79.9166 43.0099 73.8174C37.9038 67.7182 29.8375 66.0719 25.0134 70.1328C20.1892 74.1937 20.3928 82.4253 25.4989 88.5245Z" fill="#FFD3B3"/>
<path d="M28.334 73.1118C29.5531 72.5459 30.8851 72.2659 32.2287 72.2931C33.5722 72.3202 34.8918 72.6539 36.0871 73.2686C37.2646 73.7686 38.2868 74.5753 39.0474 75.6048C39.4696 76.1756 39.7472 76.8405 39.8564 77.5423C39.9655 78.2442 39.9029 78.9621 39.6739 79.6343C39.202 80.6513 38.4664 81.523 37.5437 82.1587C36.9934 82.5524 36.5118 83.0345 36.1184 83.5855C35.8986 83.9984 35.8123 84.4694 35.8716 84.9335C35.9308 85.3976 36.1325 85.8318 36.449 86.1761C36.7654 86.5204 37.1809 86.7578 37.6379 86.8555C38.095 86.9531 38.5711 86.9063 39.0004 86.7213C39.1206 86.6457 39.2554 86.5965 39.396 86.577C39.5366 86.5575 39.6797 86.568 39.8159 86.608C39.9522 86.648 40.0783 86.7165 40.1861 86.809C40.2939 86.9015 40.3808 87.0158 40.4411 87.1444C40.5015 87.273 40.5338 87.413 40.5361 87.5551C40.5383 87.6972 40.5104 87.8381 40.4541 87.9686C40.3979 88.099 40.3146 88.216 40.2098 88.3119C40.105 88.4077 39.981 88.4802 39.8462 88.5244C39.3003 88.7732 38.7074 88.9015 38.1076 88.9007C37.3569 88.9162 36.6157 88.7305 35.9607 88.363C35.3057 87.9955 34.7608 87.4594 34.3822 86.8102C34.0037 86.1611 33.8053 85.4224 33.8076 84.6708C33.81 83.9191 34.0129 83.1818 34.3955 82.535C34.9029 81.7673 35.545 81.0979 36.2907 80.5594C36.9467 80.1425 37.4857 79.5651 37.857 78.8817C37.9701 78.5136 37.9936 78.1236 37.9255 77.7445C37.8574 77.3653 37.6996 77.008 37.4654 76.7023C37.2415 76.4208 36.9837 76.1681 36.6979 75.9497C35.6586 75.8973 34.6385 76.2451 33.8473 76.9219C33.4971 77.3174 33.2372 77.7847 33.0857 78.291C32.9342 78.7974 32.8948 79.3307 32.9702 79.8539C32.9926 79.9826 32.9893 80.1146 32.9603 80.242C32.9314 80.3695 32.8775 80.49 32.8018 80.5964C32.726 80.7029 32.6299 80.7932 32.519 80.8623C32.4081 80.9313 32.2846 80.9775 32.1557 80.9984H31.9365C31.7025 80.9977 31.4763 80.9137 31.2984 80.7615C31.1206 80.6093 31.0025 80.3987 30.9654 80.1674C30.8378 79.3533 30.894 78.521 31.1298 77.7314C31.3656 76.9419 31.775 76.2152 32.328 75.6048C32.7748 75.1612 33.3079 74.8143 33.8943 74.5857C32.3945 74.1163 30.7733 74.2282 29.3521 74.8992C28.5154 75.3162 27.8577 76.0222 27.5007 76.8869C27.1437 77.7515 27.1114 78.7164 27.4099 79.603C27.522 79.8442 27.5338 80.1201 27.4427 80.37C27.3517 80.6199 27.1652 80.8234 26.9244 80.9357C26.8062 80.991 26.6783 81.0222 26.548 81.0276C26.4177 81.0331 26.2876 81.0126 26.1653 80.9674C26.0429 80.9222 25.9307 80.8532 25.8352 80.7643C25.7397 80.6754 25.6627 80.5685 25.6087 80.4497C25.0766 79.1057 25.0607 77.612 25.564 76.2569C26.0673 74.9019 27.0541 73.7814 28.334 73.1118Z" fill="#C16B5B"/>
<path d="M107.462 110.491L81.0077 112.059L54.5376 110.491C63.2461 115.838 62.6352 133.226 62.6352 133.226C66.9582 137.929 81.0077 137.929 81.0077 137.929C81.0077 137.929 95.1042 137.929 99.3644 133.226C99.3644 133.226 98.7693 115.838 107.462 110.491Z" fill="#FFD3B3"/>
</g>
</g>
<defs>
<clipPath id="clip0_143_251">
<rect width="162" height="190" fill="white"/>
</clipPath>
</defs>
</svg>
