<svg width="316" height="60" viewBox="0 0 316 60" fill="none" xmlns="http://www.w3.org/2000/svg">
<rect width="60" height="60" rx="30" fill="white"/>
<path d="M12 31.2995C12 29.7665 12.248 28.4207 12.744 27.262C13.2555 26.1034 13.9453 25.2121 14.8133 24.5882C15.6813 23.9643 16.6501 23.6524 17.7196 23.6524C18.6341 23.6524 19.4324 23.8663 20.1144 24.2941C20.8119 24.7219 21.3467 25.2834 21.7187 25.9786V23.8663H25.6945V38.7861H21.7187V36.6738C21.3312 37.369 20.7887 37.9305 20.0911 38.3583C19.4091 38.7861 18.6109 39 17.6963 39C16.6423 39 15.6813 38.6881 14.8133 38.0642C13.9453 37.4225 13.2555 36.5223 12.744 35.3636C12.248 34.1872 12 32.8324 12 31.2995ZM21.7187 31.3262C21.7187 30.1854 21.4397 29.2852 20.8817 28.6257C20.3391 27.9661 19.6726 27.6364 18.8821 27.6364C18.0916 27.6364 17.4173 27.9661 16.8593 28.6257C16.3168 29.2674 16.0456 30.1586 16.0456 31.2995C16.0456 32.4403 16.3168 33.3494 16.8593 34.0267C17.4173 34.6863 18.0916 35.016 18.8821 35.016C19.6726 35.016 20.3391 34.6863 20.8817 34.0267C21.4397 33.3672 21.7187 32.467 21.7187 31.3262ZM32.5466 19V38.7861H28.5708V19H32.5466ZM34.6374 31.2995C34.6374 29.7665 34.8854 28.4207 35.3814 27.262C35.8929 26.1034 36.5827 25.2121 37.4507 24.5882C38.3187 23.9643 39.2875 23.6524 40.357 23.6524C41.2715 23.6524 42.0698 23.8663 42.7518 24.2941C43.4493 24.7219 43.984 25.2834 44.356 25.9786V23.8663H48.3319V38.7861H44.356V36.6738C43.9685 37.369 43.426 37.9305 42.7285 38.3583C42.0465 38.7861 41.2482 39 40.3337 39C39.2797 39 38.3187 38.6881 37.4507 38.0642C36.5827 37.4225 35.8929 36.5223 35.3814 35.3636C34.8854 34.1872 34.6374 32.8324 34.6374 31.2995ZM44.356 31.3262C44.356 30.1854 44.077 29.2852 43.519 28.6257C42.9765 27.9661 42.31 27.6364 41.5195 27.6364C40.729 27.6364 40.0547 27.9661 39.4967 28.6257C38.9542 29.2674 38.6829 30.1586 38.6829 31.2995C38.6829 32.4403 38.9542 33.3494 39.4967 34.0267C40.0547 34.6863 40.729 35.016 41.5195 35.016C42.31 35.016 42.9765 34.6863 43.519 34.0267C44.077 33.3672 44.356 32.467 44.356 31.3262Z" fill="#6738BA"/>
<path d="M75 36.7592C75 33.5944 75.512 30.816 76.536 28.424C77.592 26.032 79.016 24.192 80.808 22.904C82.6 21.616 84.6 20.972 86.808 20.972C88.696 20.972 90.344 21.4136 91.752 22.2968C93.192 23.18 94.296 24.3392 95.064 25.7744V21.4136H103.272V52.2152H95.064V47.8544C94.264 49.2896 93.144 50.4488 91.704 51.332C90.296 52.2152 88.648 52.6568 86.76 52.6568C84.584 52.6568 82.6 52.0128 80.808 50.7248C79.016 49.4 77.592 47.5416 76.536 45.1496C75.512 42.7208 75 39.924 75 36.7592ZM95.064 36.8144C95.064 34.4592 94.488 32.6008 93.336 31.2392C92.216 29.8776 90.84 29.1968 89.208 29.1968C87.576 29.1968 86.184 29.8776 85.032 31.2392C83.912 32.564 83.352 34.404 83.352 36.7592C83.352 39.1144 83.912 40.9912 85.032 42.3896C86.184 43.7512 87.576 44.432 89.208 44.432C90.84 44.432 92.216 43.7512 93.336 42.3896C94.488 41.028 95.064 39.1696 95.064 36.8144ZM117.418 11.3672V52.2152H109.21V11.3672H117.418ZM121.734 36.7592C121.734 33.5944 122.246 30.816 123.27 28.424C124.326 26.032 125.75 24.192 127.542 22.904C129.334 21.616 131.334 20.972 133.542 20.972C135.43 20.972 137.078 21.4136 138.486 22.2968C139.926 23.18 141.03 24.3392 141.798 25.7744V21.4136H150.006V52.2152H141.798V47.8544C140.998 49.2896 139.878 50.4488 138.438 51.332C137.03 52.2152 135.382 52.6568 133.494 52.6568C131.318 52.6568 129.334 52.0128 127.542 50.7248C125.75 49.4 124.326 47.5416 123.27 45.1496C122.246 42.7208 121.734 39.924 121.734 36.7592ZM141.798 36.8144C141.798 34.4592 141.222 32.6008 140.07 31.2392C138.95 29.8776 137.574 29.1968 135.942 29.1968C134.31 29.1968 132.918 29.8776 131.766 31.2392C130.646 32.564 130.086 34.404 130.086 36.7592C130.086 39.1144 130.646 40.9912 131.766 42.3896C132.918 43.7512 134.31 44.432 135.942 44.432C137.574 44.432 138.95 43.7512 140.07 42.3896C141.222 41.028 141.798 39.1696 141.798 36.8144ZM190.121 21.0824C193.449 21.0824 196.089 22.2416 198.041 24.56C200.025 26.8784 201.017 30.0984 201.017 34.22V52.2152H192.857V35.4896C192.857 33.5024 192.393 31.9752 191.465 30.908C190.569 29.804 189.321 29.252 187.721 29.252C186.121 29.252 184.857 29.804 183.929 30.908C183.033 31.9752 182.585 33.5024 182.585 35.4896V52.2152H174.424V35.4896C174.424 33.5024 173.961 31.9752 173.033 30.908C172.137 29.804 170.888 29.252 169.288 29.252C167.688 29.252 166.424 29.804 165.496 30.908C164.6 31.9752 164.152 33.5024 164.152 35.4896V52.2152H155.944V21.4136H164.152V25.2776C164.984 23.9896 166.072 22.9776 167.416 22.2416C168.76 21.4688 170.281 21.0824 171.977 21.0824C173.993 21.0824 175.785 21.5792 177.353 22.5728C178.953 23.5664 180.201 24.9832 181.097 26.8232C182.025 25.1304 183.289 23.7504 184.889 22.6832C186.489 21.616 188.233 21.0824 190.121 21.0824ZM232.005 36.3176C232.005 37.2008 231.957 38.1208 231.861 39.0776H213.285C213.413 40.9912 213.941 42.4632 214.869 43.4936C215.829 44.4872 216.997 44.984 218.373 44.984C220.421 44.984 221.845 43.9904 222.645 42.0032H231.381C230.933 44.0272 230.117 45.8488 228.933 47.468C227.781 49.0872 226.325 50.3568 224.565 51.2768C222.805 52.1968 220.837 52.6568 218.661 52.6568C216.037 52.6568 213.701 52.0128 211.653 50.7248C209.605 49.4368 208.005 47.5968 206.853 45.2048C205.701 42.8128 205.125 40.016 205.125 36.8144C205.125 33.6128 205.685 30.816 206.805 28.424C207.957 26.032 209.557 24.192 211.605 22.904C213.653 21.616 216.005 20.972 218.661 20.972C221.253 20.972 223.557 21.5976 225.573 22.8488C227.589 24.1 229.157 25.8848 230.277 28.2032C231.429 30.5216 232.005 33.2264 232.005 36.3176ZM223.605 33.8336C223.605 32.2144 223.125 30.9264 222.165 29.9696C221.205 29.0128 220.005 28.5344 218.565 28.5344C217.189 28.5344 216.021 28.9944 215.061 29.9144C214.133 30.8344 213.557 32.1408 213.333 33.8336H223.605ZM251.263 44.2112V52.2152H247.087C244.111 52.2152 241.791 51.3872 240.127 49.7312C238.463 48.0384 237.631 45.2968 237.631 41.5064V29.252H234.367V21.4136H237.631V13.9064H245.839V21.4136H251.215V29.252H245.839V41.6168C245.839 42.5368 246.031 43.1992 246.415 43.604C246.799 44.0088 247.439 44.2112 248.335 44.2112H251.263ZM264.043 26.5472C265.003 24.8544 266.203 23.5296 267.643 22.5728C269.083 21.5792 270.683 21.0824 272.443 21.0824V31.0736H270.187C268.139 31.0736 266.603 31.5888 265.579 32.6192C264.555 33.6128 264.043 35.3792 264.043 37.9184V52.2152H255.835V21.4136H264.043V26.5472ZM280.494 18.212C279.054 18.212 277.87 17.7336 276.942 16.7768C276.046 15.7832 275.598 14.5688 275.598 13.1336C275.598 11.6616 276.046 10.4472 276.942 9.4904C277.87 8.4968 279.054 8 280.494 8C281.902 8 283.054 8.4968 283.95 9.4904C284.878 10.4472 285.342 11.6616 285.342 13.1336C285.342 14.5688 284.878 15.7832 283.95 16.7768C283.054 17.7336 281.902 18.212 280.494 18.212ZM284.574 21.4136V52.2152H276.366V21.4136H284.574ZM288.891 36.8144C288.891 33.6128 289.451 30.816 290.571 28.424C291.723 26.032 293.307 24.192 295.323 22.904C297.371 21.616 299.707 20.972 302.331 20.972C305.691 20.972 308.491 21.984 310.731 24.008C313.003 26.032 314.491 28.884 315.195 32.564H306.459C305.723 30.2088 304.299 29.0312 302.187 29.0312C300.683 29.0312 299.483 29.712 298.587 31.0736C297.691 32.3984 297.243 34.312 297.243 36.8144C297.243 39.3168 297.691 41.2488 298.587 42.6104C299.483 43.9352 300.683 44.5976 302.187 44.5976C304.299 44.5976 305.723 43.42 306.459 41.0648H315.195C314.491 44.6712 313.003 47.5048 310.731 49.5656C308.459 51.6264 305.659 52.6568 302.331 52.6568C299.707 52.6568 297.371 52.0128 295.323 50.7248C293.307 49.4368 291.723 47.5968 290.571 45.2048C289.451 42.8128 288.891 40.016 288.891 36.8144Z" fill="white"/>
</svg>
